<svg width="333" height="328" viewBox="0 0 333 328" fill="none" xmlns="http://www.w3.org/2000/svg">
    <path opacity="0.9" d="M162.095 127.567C163.53 124.072 168.46 124.217 169.829 127.567L178.999 149.827L203.2 151.607C206.947 151.871 208.529 156.552 205.485 159.018L187.079 174.473L192.86 197.866C193.737 201.426 189.777 204.367 186.508 202.31L165.962 189.69L145.323 202.376C142.147 204.315 138.187 201.44 139.064 197.866L144.845 174.473L126.319 158.925C123.449 156.525 125.003 151.883 128.725 151.62L152.925 149.839L162.095 127.567Z" fill="url(#paint0_radial_1718_39480)"/>
    <g style="mix-blend-mode:color-dodge" filter="url(#filter0_d_1718_39480)">
    <path d="M162.095 127.567C163.53 124.072 168.46 124.217 169.829 127.567L178.999 149.827L203.2 151.607C206.947 151.871 208.529 156.552 205.485 159.018L187.079 174.473L192.86 197.866C193.737 201.426 189.777 204.367 186.508 202.31L165.962 189.69L145.323 202.376C142.147 204.315 138.187 201.44 139.064 197.866L144.845 174.473L126.319 158.925C123.449 156.525 125.003 151.883 128.725 151.62L152.925 149.839L162.095 127.567Z" fill="url(#paint1_linear_1718_39480)" shape-rendering="crispEdges"/>
    <path d="M163.482 128.137L163.482 128.138L154.312 150.411L153.959 151.267L153.035 151.335L128.835 153.116L128.831 153.116C126.417 153.287 125.476 156.265 127.281 157.775L127.283 157.776L145.809 173.324L146.525 173.925L146.301 174.833L140.521 198.224C140.521 198.224 140.52 198.224 140.52 198.225C139.971 200.467 142.48 202.352 144.54 201.097C144.54 201.096 144.541 201.096 144.542 201.096L165.176 188.412L165.962 187.93L166.747 188.412L187.293 201.032L187.3 201.036L187.306 201.04C189.451 202.39 191.952 200.456 191.404 198.226L163.482 128.137ZM163.482 128.137C164.386 125.935 167.558 125.975 168.441 128.134L168.442 128.138L177.612 150.398L177.965 151.255L178.889 151.323L203.089 153.103L203.094 153.103C205.507 153.273 206.509 156.258 204.541 157.852L204.531 157.861L204.521 157.869L186.115 173.324L185.399 173.925L185.623 174.833L191.404 198.225L163.482 128.137Z" stroke="url(#paint2_linear_1718_39480)" stroke-width="3" shape-rendering="crispEdges"/>
    </g>
    <path opacity="0.4" d="M132.022 167.628C123.725 175.322 117.995 185.745 116.259 197.469C117.957 196.396 119.79 195.98 121.603 195.568C122.065 195.463 122.527 195.358 122.984 195.243L122.987 195.248C126.894 194.27 125.288 202.554 122.222 205.77C120.713 207.354 118.63 208.469 115.853 208.902C116.022 211.127 116.333 213.312 116.778 215.449C118.224 213.724 120.149 212.829 121.976 211.979C122.666 211.658 123.342 211.344 123.973 210.993C127.329 209.13 128.22 216.8 125.553 220.916C124.372 222.741 122.522 224.255 119.94 225.369C120.799 227.337 121.779 229.24 122.87 231.069C123.691 227.845 125.94 225.015 129.226 222.782L129.229 222.787C131.845 221.015 134.599 227.091 133.698 231.122C133.103 233.778 131.27 236.301 128.263 238.499C130.399 240.946 132.765 243.186 135.327 245.187C133.998 240.04 137.113 232.633 139.973 233.814C146.762 236.607 146.848 244.69 143.349 250.324C143.967 250.643 144.592 250.949 145.225 251.243C146.898 251.985 148.609 252.636 150.347 253.191C148.115 249.456 149.232 245.889 150.238 242.675L150.238 242.673C150.393 242.178 150.545 241.692 150.682 241.215C151.832 237.209 158.549 243.216 159.832 247.721C160.458 249.936 160.38 252.422 159.355 255.165L159.247 255.423C161.669 255.777 164.146 255.96 166.666 255.96C169.136 255.96 171.565 255.784 173.941 255.444L173.817 255.147C171.406 248.677 174.071 243.605 179.743 240.142C181.771 238.903 182.485 241.194 182.818 242.262C182.838 242.326 182.857 242.386 182.874 242.441C183.883 245.598 185.083 249.378 182.823 253.164C185.223 252.398 187.57 251.453 189.84 250.329C183.073 239.488 192.839 231.448 195.296 234.299C197.809 237.224 198.868 241.593 197.792 245.352C200.417 243.324 202.838 241.046 205.021 238.554C199.252 234.394 197.308 228.494 201.468 223.154C202.064 222.389 203.149 222.222 203.941 222.76L203.944 222.755C207.299 225.041 209.572 227.938 210.352 231.252C211.481 229.378 212.492 227.425 213.376 225.404C207.587 222.968 204.925 218.225 206.533 212.098C206.835 210.947 208.147 210.386 209.192 210.963C209.824 211.313 210.499 211.628 211.189 211.948C213.073 212.825 215.061 213.749 216.524 215.586C216.985 213.404 217.307 211.171 217.479 208.897C210.993 207.957 207.935 203.284 207.896 197.006C207.889 195.806 209.014 194.929 210.174 195.215L210.177 195.21C210.627 195.322 211.08 195.425 211.534 195.528C213.404 195.952 215.29 196.379 217.034 197.521L217.089 197.581C215.326 185.494 209.32 174.784 200.632 167.01L203.755 164.387C214.023 173.769 220.72 186.992 221.573 201.782C225.543 198.371 229.368 199.478 232.735 200.452L233.032 200.538C237.015 201.7 230.824 208.126 228.152 209.469C226.203 210.451 223.986 210.76 221.439 210.033C221.148 213.241 220.581 216.369 219.763 219.393C224.001 217.353 227.667 218.107 231.307 220.288C235.117 222.576 226.108 227.569 224.183 228.166C221.829 228.896 219.364 228.835 216.907 227.412C215.707 230.098 214.298 232.67 212.701 235.107C217.432 234.396 220.896 236.411 223.906 239.526L223.903 239.531C226.937 242.661 217.399 245.379 213.549 244.871C211.376 244.582 209.318 243.644 207.578 241.759C205.71 243.837 203.685 245.773 201.523 247.546C205.513 248.235 208.514 250.607 210.778 252.955L210.775 252.961C213.824 256.113 204.251 258.938 199.11 258.035C196.422 257.562 193.879 256.283 191.851 253.908C190.362 254.676 188.833 255.379 187.268 256.011C190.749 257.914 192.84 260.856 194.391 263.541C196.609 267.364 186.937 267.751 181.644 265.2C179.124 263.983 176.941 262.052 175.573 259.283C172.673 259.755 169.698 260 166.666 260C163.585 260 160.563 259.747 157.619 259.26C154.373 265.864 146.324 267.957 139.889 266.283C135.828 265.232 141.936 258.29 146.001 255.986C144.423 255.346 142.881 254.634 141.38 253.856C136.608 259.545 128.675 259.184 122.803 255.851C121.76 255.256 121.563 253.844 122.391 252.982L122.388 252.977C124.686 250.596 127.727 248.192 131.801 247.54C129.613 245.744 127.566 243.783 125.679 241.676C121.267 246.56 114.8 245.321 109.678 242.413C108.635 241.818 108.438 240.406 109.266 239.544L109.263 239.539C112.319 236.38 115.835 234.353 120.659 235.151C119.037 232.681 117.609 230.072 116.395 227.347C110.879 230.653 105.453 227.069 101.52 223.169C100.674 222.333 100.844 220.916 101.867 220.299C105.552 218.084 109.28 217.342 113.596 219.495C112.76 216.428 112.183 213.254 111.89 209.999C105.995 211.762 101.903 208.073 99.0731 203.23C98.474 202.204 99.0027 200.883 100.141 200.549L100.455 200.458C103.863 199.478 107.741 198.362 111.75 201.924C112.551 187.402 118.985 174.382 128.904 165.012L132.022 167.628Z" fill="url(#paint3_radial_1718_39480)"/>
    <g filter="url(#filter1_d_1718_39480)">
    <path d="M162.527 127.567C163.962 124.072 168.893 124.217 170.262 127.567L179.432 149.827L203.632 151.607C207.379 151.87 208.961 156.552 205.918 159.018L187.511 174.472L193.292 197.866C194.169 201.426 190.209 204.367 186.94 202.31L166.394 189.69L145.756 202.375C142.58 204.314 138.619 201.439 139.496 197.866L145.277 174.472L126.752 158.925C123.881 156.525 125.436 151.883 129.157 151.62L153.357 149.839L162.527 127.567Z" fill="white"/>
    </g>
    <g opacity="0.9" filter="url(#filter2_d_1718_39480)">
    <path d="M162.527 127.567C163.962 124.072 168.893 124.217 170.262 127.567L179.432 149.827L203.632 151.607C207.379 151.87 208.961 156.552 205.918 159.018L187.511 174.472L193.292 197.866C194.169 201.426 190.209 204.367 186.94 202.31L166.394 189.69L145.756 202.375C142.58 204.314 138.619 201.439 139.496 197.866L145.277 174.472L126.752 158.925C123.881 156.525 125.436 151.883 129.157 151.62L153.357 149.839L162.527 127.567Z" fill="#202348"/>
    </g>
    <path opacity="0.85" d="M162.527 127.567C163.962 124.072 168.893 124.217 170.262 127.567L179.432 149.827L203.632 151.607C207.379 151.87 208.961 156.552 205.918 159.018L187.511 174.472L193.292 197.866C194.169 201.426 190.209 204.367 186.94 202.31L166.394 189.69L145.756 202.375C142.58 204.314 138.619 201.439 139.496 197.866L145.277 174.472L126.752 158.925C123.881 156.525 125.436 151.883 129.157 151.62L153.357 149.839L162.527 127.567Z" fill="url(#paint4_radial_1718_39480)"/>
    <g style="mix-blend-mode:color-dodge">
    <path d="M163.915 128.137L163.914 128.138L154.744 150.41L154.392 151.267L153.467 151.335L129.267 153.116L129.263 153.116C126.849 153.287 125.908 156.265 127.714 157.774L127.716 157.776L146.242 173.323L146.958 173.925L146.733 174.832L140.953 198.223C140.953 198.224 140.953 198.224 140.953 198.224C140.404 200.466 142.913 202.351 144.972 201.096C144.973 201.096 144.973 201.096 144.974 201.095L165.609 188.412L166.394 187.929L167.179 188.412L187.725 201.032L187.732 201.036L187.739 201.04C189.883 202.39 192.384 200.455 191.836 198.226L163.915 128.137ZM163.915 128.137C164.819 125.935 167.991 125.975 168.873 128.134L168.875 128.138L178.045 150.398L178.398 151.255L179.321 151.323L203.522 153.103L203.527 153.103C205.939 153.273 206.941 156.258 204.973 157.852L204.963 157.86L204.953 157.869L186.547 173.324L185.831 173.925L186.055 174.832L191.836 198.225L163.915 128.137Z" fill="url(#paint5_linear_1718_39480)"/>
    <path d="M163.915 128.137L163.914 128.138L154.744 150.41L154.392 151.267L153.467 151.335L129.267 153.116L129.263 153.116C126.849 153.287 125.908 156.265 127.714 157.774L127.716 157.776L146.242 173.323L146.958 173.925L146.733 174.832L140.953 198.223C140.953 198.224 140.953 198.224 140.953 198.224C140.404 200.466 142.913 202.351 144.972 201.096C144.973 201.096 144.973 201.096 144.974 201.095L165.609 188.412L166.394 187.929L167.179 188.412L187.725 201.032L187.732 201.036L187.739 201.04C189.883 202.39 192.384 200.455 191.836 198.226L163.915 128.137ZM163.915 128.137C164.819 125.935 167.991 125.975 168.873 128.134L168.875 128.138L178.045 150.398L178.398 151.255L179.321 151.323L203.522 153.103L203.527 153.103C205.939 153.273 206.941 156.258 204.973 157.852L204.963 157.86L204.953 157.869L186.547 173.324L185.831 173.925L186.055 174.832L191.836 198.225L163.915 128.137Z" stroke="url(#paint6_linear_1718_39480)" stroke-width="2.99999"/>
    </g>
    <defs>
    <filter id="filter0_d_1718_39480" x="58.1769" y="66.5459" width="215.569" height="211.314" filterUnits="userSpaceOnUse" color-interpolation-filters="sRGB">
    <feFlood flood-opacity="0" result="BackgroundImageFix"/>
    <feColorMatrix in="SourceAlpha" type="matrix" values="0 0 0 0 0 0 0 0 0 0 0 0 0 0 0 0 0 0 127 0" result="hardAlpha"/>
    <feOffset dy="8.20297"/>
    <feGaussianBlur stdDeviation="33.3285"/>
    <feComposite in2="hardAlpha" operator="out"/>
    <feColorMatrix type="matrix" values="0 0 0 0 0.036 0 0 0 0 0.0413333 0 0 0 0 0.064 0 0 0 1 0"/>
    <feBlend mode="normal" in2="BackgroundImageFix" result="effect1_dropShadow_1718_39480"/>
    <feBlend mode="normal" in="SourceGraphic" in2="effect1_dropShadow_1718_39480" result="shape"/>
    </filter>
    <filter id="filter1_d_1718_39480" x="0.466606" y="0.200005" width="331.854" height="327.6" filterUnits="userSpaceOnUse" color-interpolation-filters="sRGB">
    <feFlood flood-opacity="0" result="BackgroundImageFix"/>
    <feColorMatrix in="SourceAlpha" type="matrix" values="0 0 0 0 0 0 0 0 0 0 0 0 0 0 0 0 0 0 127 0" result="hardAlpha"/>
    <feMorphology radius="24.96" operator="dilate" in="SourceAlpha" result="effect1_dropShadow_1718_39480"/>
    <feOffset/>
    <feGaussianBlur stdDeviation="49.92"/>
    <feComposite in2="hardAlpha" operator="out"/>
    <feColorMatrix type="matrix" values="0 0 0 0 1 0 0 0 0 1 0 0 0 0 1 0 0 0 0.2 0"/>
    <feBlend mode="normal" in2="BackgroundImageFix" result="effect1_dropShadow_1718_39480"/>
    <feBlend mode="normal" in="SourceGraphic" in2="effect1_dropShadow_1718_39480" result="shape"/>
    </filter>
    <filter id="filter2_d_1718_39480" x="119.027" y="118.76" width="94.7344" height="90.48" filterUnits="userSpaceOnUse" color-interpolation-filters="sRGB">
    <feFlood flood-opacity="0" result="BackgroundImageFix"/>
    <feColorMatrix in="SourceAlpha" type="matrix" values="0 0 0 0 0 0 0 0 0 0 0 0 0 0 0 0 0 0 127 0" result="hardAlpha"/>
    <feOffset/>
    <feGaussianBlur stdDeviation="3.12"/>
    <feComposite in2="hardAlpha" operator="out"/>
    <feColorMatrix type="matrix" values="0 0 0 0 1 0 0 0 0 1 0 0 0 0 1 0 0 0 0.25 0"/>
    <feBlend mode="normal" in2="BackgroundImageFix" result="effect1_dropShadow_1718_39480"/>
    <feBlend mode="normal" in="SourceGraphic" in2="effect1_dropShadow_1718_39480" result="shape"/>
    </filter>
    <radialGradient id="paint0_radial_1718_39480" cx="0" cy="0" r="1" gradientUnits="userSpaceOnUse" gradientTransform="translate(135.116 136.48) rotate(50.9416) scale(73.4288 68.5776)">
    <stop stop-color="white"/>
    <stop offset="1" stop-color="white" stop-opacity="0.62"/>
    </radialGradient>
    <linearGradient id="paint1_linear_1718_39480" x1="207.089" y1="202.791" x2="133.486" y2="140.917" gradientUnits="userSpaceOnUse">
    <stop stop-color="#79AEE7"/>
    <stop offset="0.331593" stop-color="#4960A7"/>
    <stop offset="1" stop-color="#1B2030" stop-opacity="0.25"/>
    </linearGradient>
    <linearGradient id="paint2_linear_1718_39480" x1="134.698" y1="199.406" x2="189.441" y2="142.655" gradientUnits="userSpaceOnUse">
    <stop stop-color="#EBF8FC"/>
    <stop offset="0.295134" stop-color="#7FB8EF"/>
    <stop offset="0.57639" stop-color="#5142F1"/>
    <stop offset="1" stop-color="#1D1D29"/>
    </linearGradient>
    <radialGradient id="paint3_radial_1718_39480" cx="0" cy="0" r="1" gradientUnits="userSpaceOnUse" gradientTransform="translate(115.762 179.465) rotate(44.4934) scale(106.856 101.966)">
    <stop stop-color="white"/>
    <stop offset="1" stop-color="white" stop-opacity="0.62"/>
    </radialGradient>
    <radialGradient id="paint4_radial_1718_39480" cx="0" cy="0" r="1" gradientUnits="userSpaceOnUse" gradientTransform="translate(135.548 136.48) rotate(50.9416) scale(73.4285 68.5773)">
    <stop stop-color="white"/>
    <stop offset="1" stop-color="white" stop-opacity="0.62"/>
    </radialGradient>
    <linearGradient id="paint5_linear_1718_39480" x1="207.521" y1="202.79" x2="133.919" y2="140.917" gradientUnits="userSpaceOnUse">
    <stop stop-color="#79AEE7"/>
    <stop offset="0.331593" stop-color="#4960A7"/>
    <stop offset="1" stop-color="#1B2030" stop-opacity="0.25"/>
    </linearGradient>
    <linearGradient id="paint6_linear_1718_39480" x1="135.131" y1="199.405" x2="189.873" y2="142.655" gradientUnits="userSpaceOnUse">
    <stop stop-color="#EBF8FC"/>
    <stop offset="0.295134" stop-color="#7FB8EF"/>
    <stop offset="0.57639" stop-color="#5142F1"/>
    <stop offset="1" stop-color="#1D1D29"/>
    </linearGradient>
    </defs>
    </svg>
    