<svg width="183" height="216" viewBox="0 0 183 216" fill="none" xmlns="http://www.w3.org/2000/svg">
<path opacity="0.2" d="M14.3936 76.3739H18.4764C18.9803 76.3768 19.4702 76.2081 19.8656 75.8957C20.2609 75.5833 20.5383 75.1457 20.6521 74.6548C25.3214 56.4231 36.7061 40.6284 52.5262 30.434C52.9296 30.1655 53.235 29.7733 53.3964 29.3164C53.5579 28.8595 53.5667 28.3625 53.4215 27.9002C52.0238 23.5932 49.5599 19.7095 46.2588 16.61C45.096 15.5115 44.2487 14.1215 43.805 12.5847C43.3613 11.0478 43.3375 9.42015 43.736 7.87095C44.1345 6.32176 44.9408 4.90762 46.0709 3.77559C47.2011 2.64355 48.614 1.83498 50.1625 1.43394C57.0256 -0.353772 64.2652 -0.060383 70.9612 2.27681C77.6571 4.61401 83.5068 8.88945 87.7668 14.5596C88.016 14.8903 88.3524 15.145 88.7383 15.2953C89.1241 15.4455 89.5442 15.4853 89.9514 15.4102C103.833 12.7494 118.121 13.0614 131.873 16.3255C145.626 19.5895 158.53 25.7316 169.735 34.3466C182.856 44.4518 192.153 58.7153 196.103 74.7981C196.178 75.1446 196.169 75.5039 196.077 75.8463C195.986 76.1888 195.814 76.5044 195.576 76.767C195.337 77.0296 195.04 77.2316 194.708 77.3564C194.376 77.4811 194.02 77.5249 193.668 77.4841C185.378 76.6317 177.047 76.261 168.714 76.3739C152.795 76.3739 110.517 76.3739 110.517 98.7574V163.616C110.517 164.208 110.283 164.776 109.865 165.195C109.447 165.615 108.88 165.852 108.288 165.854C98.4364 165.888 88.6348 164.452 79.2073 161.592C78.9245 161.508 78.6279 161.48 78.3344 161.511C78.0409 161.542 77.7564 161.63 77.4972 161.771C76.9764 162.06 76.5905 162.543 76.4228 163.114L72.0625 178.192C71.2537 180.987 69.5593 183.443 67.2342 185.192C64.909 186.94 62.0789 187.887 59.1696 187.889C57.9028 187.89 56.6424 187.709 55.4271 187.351C52.0088 186.359 49.1241 184.051 47.4067 180.934C45.6893 177.816 45.2796 174.144 46.2677 170.725L52.0695 150.687C52.2004 150.241 52.1888 149.764 52.0363 149.325C51.8839 148.885 51.5982 148.504 51.219 148.234C41.449 141.476 33.3296 132.6 27.4656 122.269C27.2711 121.919 26.9869 121.628 26.6422 121.425C26.2975 121.222 25.9049 121.115 25.5048 121.114H14.3936C10.8318 121.114 7.41577 119.699 4.89714 117.18C2.37849 114.662 0.963547 111.246 0.963547 107.684V89.804C0.963547 86.2421 2.37849 82.8261 4.89714 80.3075C7.41577 77.7889 10.8318 76.3739 14.3936 76.3739ZM63.6373 76.3739C63.6373 74.6031 63.1122 72.872 62.1284 71.3997C61.1446 69.9273 59.7463 68.7797 58.1103 68.102C56.4742 67.4244 54.674 67.2471 52.9372 67.5925C51.2004 67.938 49.6051 68.7907 48.3529 70.0429C47.1008 71.2951 46.248 72.8904 45.9026 74.6272C45.5571 76.364 45.7344 78.1642 46.4121 79.8002C47.0897 81.4362 48.2373 82.8346 49.7097 83.8184C51.1821 84.8022 52.9131 85.3273 54.6839 85.3273C57.0585 85.3273 59.3359 84.384 61.015 82.7049C62.694 81.0258 63.6373 78.7485 63.6373 76.3739ZM144.666 59.3624C146.09 60.4296 147.88 60.8885 149.642 60.6384C151.404 60.3883 152.995 59.4498 154.067 58.0284C154.598 57.3232 154.984 56.5202 155.205 55.6654C155.425 54.8106 155.475 53.9208 155.351 53.0468C155.227 52.1728 154.932 51.3318 154.483 50.5719C154.033 49.812 153.439 49.1482 152.733 48.6184C138.607 37.9891 121.125 32.8049 103.489 34.0154C102.606 34.0722 101.744 34.3029 100.951 34.694C100.158 35.0851 99.4495 35.6291 98.8671 36.2946C98.2848 36.9602 97.8396 37.7342 97.5572 38.5722C97.2748 39.4103 97.1608 40.2958 97.2216 41.1781C97.3724 42.9466 98.203 44.5877 99.5388 45.7565C100.875 46.9253 102.611 47.5307 104.384 47.4455C118.803 46.487 133.089 50.7136 144.666 59.3624Z" fill="#1F2348"/>
<path d="M125.131 140.785C124.772 140.594 124.472 140.309 124.262 139.961C124.052 139.612 123.941 139.213 123.94 138.807V117.56C123.94 117.202 124.026 116.85 124.19 116.531C124.354 116.213 124.592 115.939 124.884 115.732C125.176 115.525 125.514 115.392 125.868 115.342C126.223 115.292 126.584 115.328 126.922 115.447C140.484 119.438 154.572 121.352 168.707 121.124C182.84 121.351 196.925 119.438 210.484 115.447C210.822 115.329 211.184 115.293 211.539 115.343C211.893 115.392 212.231 115.526 212.524 115.733C212.817 115.94 213.056 116.213 213.221 116.531C213.386 116.849 213.473 117.202 213.474 117.56V138.816C213.472 139.224 213.36 139.625 213.148 139.975C212.937 140.325 212.635 140.611 212.275 140.803C198.418 146.228 183.572 148.669 168.707 147.966C153.837 148.689 138.983 146.242 125.131 140.785Z" fill="url(#paint0_radial)"/>
<path d="M168.716 192.769C182.848 192.997 196.934 191.083 210.493 187.092C210.831 186.974 211.192 186.938 211.547 186.988C211.902 187.037 212.24 187.171 212.533 187.378C212.825 187.585 213.064 187.858 213.23 188.176C213.395 188.494 213.482 188.847 213.483 189.205V206.199C213.483 211.159 193.436 215.152 168.716 215.152C143.996 215.152 123.949 211.159 123.949 206.199V189.188C123.949 188.83 124.034 188.477 124.199 188.159C124.363 187.841 124.601 187.567 124.893 187.36C125.185 187.153 125.523 187.019 125.877 186.969C126.232 186.92 126.593 186.956 126.931 187.075C140.492 191.072 154.58 192.991 168.716 192.769Z" fill="url(#paint1_radial)"/>
<path d="M213.483 98.7578V103.02C213.481 103.428 213.369 103.829 213.157 104.179C212.946 104.529 212.644 104.815 212.283 105.007C198.426 110.432 183.581 112.873 168.716 112.17C153.842 112.889 138.984 110.435 125.131 104.972C124.772 104.78 124.472 104.495 124.262 104.147C124.052 103.798 123.941 103.399 123.94 102.993V98.7578C123.94 93.8245 143.978 89.8044 168.707 89.8044C193.436 89.8044 213.483 93.8245 213.483 98.7578Z" fill="url(#paint2_radial)"/>
<path d="M123.949 153.374C123.949 153.016 124.034 152.663 124.199 152.345C124.363 152.027 124.601 151.753 124.893 151.546C125.185 151.339 125.523 151.205 125.877 151.155C126.232 151.106 126.593 151.142 126.931 151.261C140.493 155.252 154.581 157.166 168.716 156.937C182.848 157.165 196.934 155.251 210.493 151.261C210.831 151.142 211.192 151.106 211.547 151.156C211.902 151.206 212.24 151.34 212.533 151.546C212.825 151.753 213.064 152.027 213.23 152.345C213.395 152.663 213.482 153.016 213.483 153.374V174.629C213.481 175.038 213.369 175.438 213.157 175.788C212.946 176.138 212.644 176.425 212.283 176.617C198.426 182.042 183.581 184.483 168.716 183.78C153.843 184.504 138.986 182.057 125.131 176.599C124.772 176.408 124.472 176.123 124.262 175.774C124.052 175.426 123.941 175.027 123.94 174.62L123.949 153.374Z" fill="url(#paint3_radial)"/>
<defs>
<radialGradient id="paint0_radial" cx="0" cy="0" r="1" gradientUnits="userSpaceOnUse" gradientTransform="translate(123.94 148.09) scale(89.534 32.7697)">
<stop stop-color="#EC991C"/>
<stop offset="1" stop-color="#E9B213"/>
</radialGradient>
<radialGradient id="paint1_radial" cx="0" cy="0" r="1" gradientUnits="userSpaceOnUse" gradientTransform="translate(123.949 215.152) scale(89.534 28.2048)">
<stop stop-color="#EC991C"/>
<stop offset="1" stop-color="#E9B213"/>
</radialGradient>
<radialGradient id="paint2_radial" cx="0" cy="0" r="1" gradientUnits="userSpaceOnUse" gradientTransform="translate(123.94 112.292) scale(89.543 22.4881)">
<stop stop-color="#EC991C"/>
<stop offset="1" stop-color="#E9B213"/>
</radialGradient>
<radialGradient id="paint3_radial" cx="0" cy="0" r="1" gradientUnits="userSpaceOnUse" gradientTransform="translate(123.94 183.904) scale(89.543 32.7701)">
<stop stop-color="#EC991C"/>
<stop offset="1" stop-color="#E9B213"/>
</radialGradient>
</defs>
</svg>
