<svg xmlns="http://www.w3.org/2000/svg" width="146" height="144" fill="none" viewBox="0 0 146 144">
  <g opacity=".4">
    <path fill="url(#a)" d="M8.642 136.296v-30.528h4.893l11.215 25.245h-1.342l11.215-25.245h4.85v30.528h-5.066v-22.647h1.559l-10.263 22.647h-3.334l-10.263-22.647h1.602v22.647H8.642Z"/>
    <path fill="url(#b)" d="M45.843 136.296v-21.868h5.413v21.868h-5.413Zm-.303-25.981v-5.283h6.02v5.283h-6.02Z"/>
    <path fill="url(#c)" d="M57.134 136.296v-31.87h5.413v31.87h-5.413Z"/>
    <path fill="url(#d)" d="M68.425 136.296v-31.87h5.413v31.87h-5.413Z"/>
    <path fill="url(#e)" d="M79.716 136.296v-21.868h5.412v21.868h-5.412Zm-.304-25.981v-5.283h6.02v5.283h-6.02Z"/>
    <path fill="url(#f)" d="M100.879 136.729c-2.252 0-4.2-.462-5.846-1.386-1.645-.924-2.93-2.237-3.854-3.94-.895-1.703-1.342-3.724-1.342-6.063 0-2.338.447-4.344 1.342-6.019.924-1.703 2.209-3.016 3.854-3.94 1.646-.924 3.594-1.386 5.846-1.386 2.252 0 4.2.462 5.846 1.386a9.398 9.398 0 0 1 3.854 3.94c.924 1.675 1.385 3.681 1.385 6.019 0 2.339-.461 4.36-1.385 6.063a9.398 9.398 0 0 1-3.854 3.94c-1.646.924-3.594 1.386-5.846 1.386Zm0-4.157c1.703 0 3.06-.592 4.071-1.775 1.01-1.213 1.515-3.032 1.515-5.457 0-2.424-.505-4.229-1.515-5.412-1.011-1.184-2.368-1.776-4.071-1.776-1.703 0-3.06.592-4.07 1.776-1.01 1.183-1.516 2.988-1.516 5.412 0 2.425.505 4.244 1.516 5.457 1.01 1.183 2.367 1.775 4.07 1.775Z"/>
    <path fill="url(#g)" d="M116.632 136.296v-16.412c0-.895-.029-1.804-.086-2.728a42.151 42.151 0 0 0-.26-2.728h5.239l.433 4.331h-.519c.693-1.53 1.717-2.7 3.074-3.508 1.357-.837 2.93-1.256 4.72-1.256 2.569 0 4.504.722 5.803 2.165 1.299 1.444 1.948 3.696 1.948 6.756v13.38h-5.412v-13.121c0-1.761-.347-3.016-1.04-3.767-.664-.779-1.674-1.169-3.031-1.169-1.674 0-3.002.52-3.984 1.559-.981 1.039-1.472 2.425-1.472 4.157v12.341h-5.413Z"/>
  </g>
  <g filter="url(#h)" opacity=".9">
    <path fill="#202348" fill-rule="evenodd" d="m43.947 75.352-.006-.008c-4.566-6.41-6.719-15.323-6.719-26.485 0-11.274 2.148-20.177 6.737-26.415C48.61 16.124 55.27 13 63.667 13c8.451 0 15.12 3.118 19.711 9.45 2.064 2.806 3.633 6.145 4.736 9.99 1.103-3.852 2.672-7.193 4.734-9.996C97.498 16.124 104.16 13 112.556 13c8.451 0 15.121 3.119 19.712 9.45C136.853 28.687 139 37.554 139 48.766c0 11.22-2.151 20.165-6.718 26.576C127.698 81.804 121.026 85 112.556 85c-8.415 0-15.078-3.2-19.72-9.648-2.055-2.884-3.626-6.283-4.728-10.157-1.1 3.878-2.664 7.27-4.716 10.149C78.808 81.804 72.137 85 63.667 85c-8.415 0-15.078-3.2-19.72-9.648Zm27.54-43.811c-.9-1.648-1.993-2.804-3.233-3.546-1.239-.74-2.744-1.147-4.587-1.147-3.478 0-6.016 1.49-7.824 4.698-1.824 3.287-2.872 8.918-2.872 17.22 0 8.278 1.041 14.027 2.885 17.524.935 1.683 2.04 2.85 3.283 3.605 1.242.755 2.728 1.163 4.528 1.163 1.837 0 3.338-.411 4.575-1.163 1.238-.752 2.326-1.915 3.23-3.593 1.847-3.496 2.89-9.249 2.89-17.537 0-8.305-1.048-13.938-2.874-17.224Zm48.89 0-.007-.012c-.901-1.648-1.987-2.792-3.227-3.534-1.239-.74-2.744-1.147-4.587-1.147-3.478 0-6.016 1.49-7.824 4.698-1.824 3.287-2.872 8.919-2.872 17.22 0 8.278 1.041 14.027 2.885 17.524.935 1.683 2.041 2.85 3.283 3.605 1.241.755 2.728 1.163 4.528 1.163 1.837 0 3.338-.411 4.575-1.163 1.238-.753 2.326-1.916 3.23-3.594 1.847-3.496 2.89-9.248 2.89-17.535 0-8.306-1.049-13.939-2.874-17.225ZM8 85a1 1 0 0 1-1-1V72.66a1 1 0 0 1 1-1h9.014V30.88l-7.509 4.528a1 1 0 0 1-1.516-.856v-12.61a1 1 0 0 1 .48-.855l12.032-7.316a1 1 0 0 1 .52-.146h9.633a1 1 0 0 1 1 1V71.66h8.396a1 1 0 0 1 1 1V84a1 1 0 0 1-1 1H8Z" clip-rule="evenodd"/>
  </g>
  <path fill="url(#i)" fill-rule="evenodd" d="m43.947 75.352-.006-.008c-4.566-6.41-6.719-15.323-6.719-26.485 0-11.274 2.148-20.177 6.737-26.415C48.61 16.124 55.27 13 63.667 13c8.451 0 15.12 3.118 19.711 9.45 2.064 2.806 3.633 6.145 4.736 9.99 1.103-3.852 2.672-7.193 4.734-9.996C97.498 16.124 104.16 13 112.556 13c8.451 0 15.121 3.119 19.712 9.45C136.853 28.687 139 37.554 139 48.766c0 11.22-2.151 20.165-6.718 26.576C127.698 81.804 121.026 85 112.556 85c-8.415 0-15.078-3.2-19.72-9.648-2.055-2.884-3.626-6.283-4.728-10.157-1.1 3.878-2.664 7.27-4.716 10.149C78.808 81.804 72.137 85 63.667 85c-8.415 0-15.078-3.2-19.72-9.648Zm27.54-43.811c-.9-1.648-1.993-2.804-3.233-3.546-1.239-.74-2.744-1.147-4.587-1.147-3.478 0-6.016 1.49-7.824 4.698-1.824 3.287-2.872 8.918-2.872 17.22 0 8.278 1.041 14.027 2.885 17.524.935 1.683 2.04 2.85 3.283 3.605 1.242.755 2.728 1.163 4.528 1.163 1.837 0 3.338-.411 4.575-1.163 1.238-.752 2.326-1.915 3.23-3.593 1.847-3.496 2.89-9.249 2.89-17.537 0-8.305-1.048-13.938-2.874-17.224Zm48.89 0-.007-.012c-.901-1.648-1.987-2.792-3.227-3.534-1.239-.74-2.744-1.147-4.587-1.147-3.478 0-6.016 1.49-7.824 4.698-1.824 3.287-2.872 8.919-2.872 17.22 0 8.278 1.041 14.027 2.885 17.524.935 1.683 2.041 2.85 3.283 3.605 1.241.755 2.728 1.163 4.528 1.163 1.837 0 3.338-.411 4.575-1.163 1.238-.753 2.326-1.916 3.23-3.594 1.847-3.496 2.89-9.248 2.89-17.535 0-8.306-1.049-13.939-2.874-17.225ZM8 85a1 1 0 0 1-1-1V72.66a1 1 0 0 1 1-1h9.014V30.88l-7.509 4.528a1 1 0 0 1-1.516-.856v-12.61a1 1 0 0 1 .48-.855l12.032-7.316a1 1 0 0 1 .52-.146h9.633a1 1 0 0 1 1 1V71.66h8.396a1 1 0 0 1 1 1V84a1 1 0 0 1-1 1H8Z" clip-rule="evenodd" opacity=".85"/>
  <path fill="url(#j)" fill-rule="evenodd" d="M81.763 74.183c2.536-3.559 4.311-8.026 5.328-13.403.675-3.572 1.015-7.546 1.02-11.92 0 4.372.338 8.346 1.014 11.92 1.015 5.37 2.793 9.837 5.334 13.403C98.691 80.061 104.723 83 112.556 83c7.895 0 13.927-2.939 18.096-8.817 4.232-5.94 6.348-14.412 6.348-25.418 0-11.005-2.116-19.383-6.348-25.136C126.483 17.876 120.451 15 112.556 15c-7.833 0-13.865 2.876-18.097 8.629-2.535 3.446-4.311 7.846-5.328 13.2-.675 3.558-1.015 7.537-1.02 11.937 0-4.399-.338-8.377-1.014-11.937-1.015-5.346-2.793-9.746-5.334-13.2C77.594 17.876 71.563 15 63.667 15c-7.833 0-13.865 2.876-18.097 8.629-4.232 5.753-6.348 14.163-6.348 25.23 0 10.943 2.116 19.384 6.348 25.324C49.802 80.061 55.834 83 63.667 83c7.895 0 13.927-2.939 18.096-8.817Zm-8.527-6.94c-2.084 3.877-5.274 5.815-9.57 5.815-4.231 0-7.421-1.939-9.569-5.815-2.084-3.94-3.126-10.099-3.126-18.477 0-8.38 1.042-14.445 3.126-18.196 2.148-3.815 5.338-5.722 9.57-5.722 4.295 0 7.485 1.907 9.569 5.722 2.084 3.751 3.127 9.817 3.127 18.196 0 8.378-1.043 14.537-3.127 18.477Zm29.75 0c2.148 3.877 5.338 5.815 9.57 5.815 4.295 0 7.484-1.939 9.569-5.815 2.084-3.94 3.126-10.099 3.126-18.477 0-8.38-1.042-14.445-3.126-18.196-2.085-3.815-5.274-5.722-9.569-5.722-4.232 0-7.422 1.907-9.57 5.722-2.084 3.751-3.126 9.817-3.126 18.196 0 8.378 1.042 14.537 3.126 18.477ZM29.654 73.66V15.625h-8.353L9.989 22.503v10.278l9.025-5.442V73.66H9V83h30.05v-9.34h-9.396Z" clip-rule="evenodd" style="mix-blend-mode:color-dodge"/>
  <path fill="url(#k)" fill-rule="evenodd" d="m43.947 75.352-.006-.008c-4.566-6.41-6.719-15.323-6.719-26.485 0-11.274 2.148-20.177 6.737-26.415C48.61 16.124 55.27 13 63.667 13c8.451 0 15.12 3.118 19.711 9.45 2.064 2.806 3.633 6.145 4.736 9.99 1.103-3.852 2.672-7.193 4.734-9.996C97.498 16.124 104.16 13 112.556 13c8.451 0 15.121 3.119 19.712 9.45C136.853 28.687 139 37.554 139 48.766c0 11.22-2.151 20.165-6.718 26.576C127.698 81.804 121.026 85 112.556 85c-8.415 0-15.078-3.2-19.72-9.648-2.055-2.884-3.626-6.283-4.728-10.157-1.1 3.878-2.664 7.27-4.716 10.149C78.808 81.804 72.137 85 63.667 85c-8.415 0-15.078-3.2-19.72-9.648Zm37.816-1.169c2.536-3.559 4.311-8.026 5.328-13.403.675-3.572 1.015-7.546 1.02-11.92 0 4.372.338 8.346 1.014 11.92 1.015 5.37 2.793 9.837 5.334 13.403C98.691 80.061 104.723 83 112.556 83c7.895 0 13.927-2.939 18.096-8.817 4.232-5.94 6.348-14.412 6.348-25.418 0-11.005-2.116-19.383-6.348-25.136C126.483 17.876 120.451 15 112.556 15c-7.833 0-13.865 2.876-18.097 8.629-2.535 3.446-4.311 7.846-5.328 13.2-.675 3.558-1.015 7.537-1.02 11.937 0-4.399-.338-8.377-1.014-11.937-1.015-5.346-2.793-9.746-5.334-13.2C77.594 17.876 71.563 15 63.667 15c-7.833 0-13.865 2.876-18.097 8.629-4.232 5.753-6.348 14.163-6.348 25.23 0 10.943 2.116 19.384 6.348 25.324C49.802 80.061 55.834 83 63.667 83c7.895 0 13.927-2.939 18.096-8.817ZM71.488 31.541c-.9-1.648-1.994-2.804-3.234-3.546-1.239-.74-2.744-1.147-4.587-1.147-3.478 0-6.016 1.49-7.824 4.698-1.824 3.287-2.872 8.918-2.872 17.22 0 8.278 1.041 14.027 2.885 17.524.935 1.683 2.04 2.85 3.283 3.605 1.242.755 2.728 1.163 4.528 1.163 1.837 0 3.338-.411 4.575-1.163 1.238-.752 2.326-1.915 3.23-3.593 1.847-3.496 2.89-9.249 2.89-17.537 0-8.305-1.048-13.938-2.874-17.224Zm1.748 35.702c-2.084 3.877-5.274 5.815-9.57 5.815-4.231 0-7.421-1.939-9.569-5.815-2.084-3.94-3.126-10.099-3.126-18.477 0-8.38 1.042-14.445 3.126-18.196 2.148-3.815 5.338-5.722 9.57-5.722 4.295 0 7.485 1.907 9.569 5.722 2.084 3.751 3.127 9.817 3.127 18.196 0 8.378-1.043 14.537-3.127 18.477Zm47.141-35.702-.007-.012c-.901-1.648-1.987-2.792-3.227-3.534-1.239-.74-2.744-1.147-4.587-1.147-3.478 0-6.016 1.49-7.824 4.698-1.824 3.287-2.872 8.919-2.872 17.22 0 8.278 1.041 14.027 2.885 17.524.935 1.683 2.041 2.85 3.283 3.605 1.241.755 2.728 1.163 4.528 1.163 1.837 0 3.338-.411 4.575-1.163 1.238-.753 2.326-1.916 3.23-3.594 1.847-3.496 2.89-9.248 2.89-17.535 0-8.306-1.049-13.939-2.874-17.225Zm-17.391 35.702c2.148 3.877 5.338 5.815 9.57 5.815 4.295 0 7.484-1.939 9.569-5.815 2.084-3.94 3.126-10.099 3.126-18.477 0-8.38-1.042-14.445-3.126-18.196-2.085-3.815-5.274-5.722-9.569-5.722-4.232 0-7.422 1.907-9.57 5.722-2.084 3.751-3.126 9.817-3.126 18.196 0 8.378 1.042 14.537 3.126 18.477ZM8 85a1 1 0 0 1-1-1V72.66a1 1 0 0 1 1-1h9.014V30.88l-7.509 4.528a1 1 0 0 1-1.516-.856v-12.61a1 1 0 0 1 .48-.855l12.032-7.316a1 1 0 0 1 .52-.146h9.633a1 1 0 0 1 1 1V71.66h8.396a1 1 0 0 1 1 1V84a1 1 0 0 1-1 1H8Zm21.654-11.34V15.625h-8.353L9.989 22.503v10.278l9.025-5.442V73.66H9V83h30.05v-9.34h-9.396Z" clip-rule="evenodd" style="mix-blend-mode:color-dodge"/>
  <defs>
    <radialGradient id="a" cx="0" cy="0" r="1" gradientTransform="matrix(75.93755 31.43263 -21.20211 51.22183 21.875 104.624)" gradientUnits="userSpaceOnUse">
      <stop stop-color="#fff"/>
      <stop offset="1" stop-color="#fff" stop-opacity=".62"/>
    </radialGradient>
    <radialGradient id="b" cx="0" cy="0" r="1" gradientTransform="matrix(75.93755 31.43263 -21.20211 51.22183 21.875 104.624)" gradientUnits="userSpaceOnUse">
      <stop stop-color="#fff"/>
      <stop offset="1" stop-color="#fff" stop-opacity=".62"/>
    </radialGradient>
    <radialGradient id="c" cx="0" cy="0" r="1" gradientTransform="matrix(75.93755 31.43263 -21.20211 51.22183 21.875 104.624)" gradientUnits="userSpaceOnUse">
      <stop stop-color="#fff"/>
      <stop offset="1" stop-color="#fff" stop-opacity=".62"/>
    </radialGradient>
    <radialGradient id="d" cx="0" cy="0" r="1" gradientTransform="matrix(75.93755 31.43263 -21.20211 51.22183 21.875 104.624)" gradientUnits="userSpaceOnUse">
      <stop stop-color="#fff"/>
      <stop offset="1" stop-color="#fff" stop-opacity=".62"/>
    </radialGradient>
    <radialGradient id="e" cx="0" cy="0" r="1" gradientTransform="matrix(75.93755 31.43263 -21.20211 51.22183 21.875 104.624)" gradientUnits="userSpaceOnUse">
      <stop stop-color="#fff"/>
      <stop offset="1" stop-color="#fff" stop-opacity=".62"/>
    </radialGradient>
    <radialGradient id="f" cx="0" cy="0" r="1" gradientTransform="matrix(75.93755 31.43263 -21.20211 51.22183 21.875 104.624)" gradientUnits="userSpaceOnUse">
      <stop stop-color="#fff"/>
      <stop offset="1" stop-color="#fff" stop-opacity=".62"/>
    </radialGradient>
    <radialGradient id="g" cx="0" cy="0" r="1" gradientTransform="matrix(75.93755 31.43263 -21.20211 51.22183 21.875 104.624)" gradientUnits="userSpaceOnUse">
      <stop stop-color="#fff"/>
      <stop offset="1" stop-color="#fff" stop-opacity=".62"/>
    </radialGradient>
    <radialGradient id="i" cx="0" cy="0" r="1" gradientTransform="matrix(74.24996 52.63165 -47.39676 66.86484 23.5 23.596)" gradientUnits="userSpaceOnUse">
      <stop stop-color="#fff"/>
      <stop offset="1" stop-color="#fff" stop-opacity=".62"/>
    </radialGradient>
    <linearGradient id="j" x1="137" x2="76.883" y1="82.817" y2="-7.39" gradientUnits="userSpaceOnUse">
      <stop stop-color="#79AEE7"/>
      <stop offset=".332" stop-color="#4960A7"/>
      <stop offset="1" stop-color="#1B2030" stop-opacity=".25"/>
    </linearGradient>
    <linearGradient id="k" x1="22.829" x2="65.733" y1="81.682" y2="4.358" gradientUnits="userSpaceOnUse">
      <stop stop-color="#EBF8FC"/>
      <stop offset=".295" stop-color="#7FB8EF"/>
      <stop offset=".576" stop-color="#5142F1"/>
      <stop offset="1" stop-color="#1D1D29"/>
    </linearGradient>
    <filter id="h" width="144.48" height="84.48" x=".76" y="6.76" color-interpolation-filters="sRGB" filterUnits="userSpaceOnUse">
      <feFlood flood-opacity="0" result="BackgroundImageFix"/>
      <feColorMatrix in="SourceAlpha" result="hardAlpha" values="0 0 0 0 0 0 0 0 0 0 0 0 0 0 0 0 0 0 127 0"/>
      <feOffset/>
      <feGaussianBlur stdDeviation="3.12"/>
      <feComposite in2="hardAlpha" operator="out"/>
      <feColorMatrix values="0 0 0 0 1 0 0 0 0 1 0 0 0 0 1 0 0 0 0.25 0"/>
      <feBlend in2="BackgroundImageFix" result="effect1_dropShadow_2654_7337"/>
      <feBlend in="SourceGraphic" in2="effect1_dropShadow_2654_7337" result="shape"/>
    </filter>
  </defs>
</svg>
