<svg xmlns="http://www.w3.org/2000/svg" fill="none"  width="144" height="144" viewBox="0 0 144 144"><g clip-path="url(#a)"><g opacity=".4"><path fill="url(#b)" d="M6 134.56v-31.19h5.03l11.54 25.8h-1.38l11.53-25.8h4.99v31.19H32.5v-19.62l-8.95 19.62h-3.43l-8.9-19.53v19.53H6Z"/><path fill="url(#c)" d="M44.26 134.56v-22.34h5.57v22.34h-5.57Zm-.31-26.54v-5.4h6.19v5.4h-6.19Z"/><path fill="url(#d)" d="M55.87 134.56V102h5.57v32.56h-5.57Z"/><path fill="url(#e)" d="M67.49 134.56V102h5.56v32.56H67.5Z"/><path fill="url(#f)" d="M79.1 134.56v-22.34h5.57v22.34H79.1Zm-.31-26.54v-5.4h6.19v5.4h-6.2Z"/><path fill="url(#g)" d="M100.87 135c-2.32 0-4.32-.47-6.02-1.42a9.98 9.98 0 0 1-3.96-4.02c-.92-1.74-1.38-3.8-1.38-6.2s.46-4.43 1.38-6.14a9.98 9.98 0 0 1 3.96-4.03c1.7-.94 3.7-1.41 6.02-1.41s4.32.47 6 1.41a9.62 9.62 0 0 1 3.97 4.03 12.48 12.48 0 0 1 1.43 6.15c0 2.38-.48 4.45-1.43 6.19a9.62 9.62 0 0 1-3.96 4.02c-1.7.95-3.7 1.42-6.01 1.42Zm0-4.25c1.75 0 3.14-.6 4.18-1.81 1.04-1.24 1.56-3.1 1.56-5.57s-.52-4.32-1.56-5.53a5.24 5.24 0 0 0-4.18-1.82c-1.76 0-3.15.6-4.19 1.82-1.04 1.2-1.56 3.05-1.56 5.53 0 2.47.52 4.33 1.56 5.57a5.24 5.24 0 0 0 4.19 1.81Z"/><path fill="url(#h)" d="M117.07 134.56v-16.77c0-.91-.03-1.84-.1-2.79a42.47 42.47 0 0 0-.26-2.78h5.4l.44 4.42H122a7.8 7.8 0 0 1 3.16-3.58 9.1 9.1 0 0 1 4.86-1.28c2.64 0 4.63.73 5.97 2.2 1.33 1.48 2 3.78 2 6.9v13.68h-5.57v-13.4c0-1.8-.35-3.09-1.07-3.85-.68-.8-1.72-1.2-3.11-1.2-1.73 0-3.1.53-4.1 1.6a5.9 5.9 0 0 0-1.52 4.24v12.6h-5.56Z"/></g><g fill="#202348" filter="url(#i)" opacity=".9"><path fill-rule="evenodd" d="M55.57 72.58v-.01c-4.1-5.77-6.04-13.79-6.04-23.83 0-10.15 1.93-18.16 6.05-23.77 4.18-5.69 10.17-8.5 17.71-8.5 7.6 0 13.6 2.8 17.72 8.5a28.14 28.14 0 0 1 4.26 9c.99-3.47 2.4-6.48 4.25-9 4.18-5.69 10.17-8.5 17.71-8.5 7.6 0 13.6 2.8 17.72 8.5 4.12 5.62 6.05 13.6 6.05 23.68 0 10.1-1.93 18.15-6.04 23.92-4.12 5.81-10.11 8.69-17.73 8.69-7.56 0-13.55-2.88-17.72-8.68a29.55 29.55 0 0 1-4.25-9.14 29.5 29.5 0 0 1-4.24 9.13c-4.12 5.81-10.11 8.69-17.73 8.69-7.56 0-13.55-2.88-17.72-8.68Zm24.75-39.42a8.11 8.11 0 0 0-2.9-3.2 7.84 7.84 0 0 0-4.13-1.03c-3.12 0-5.4 1.34-7.03 4.23-1.64 2.96-2.58 8.02-2.58 15.5 0 7.44.94 12.62 2.6 15.76a8.48 8.48 0 0 0 2.95 3.25 7.65 7.65 0 0 0 4.07 1.04c1.65 0 3-.37 4.1-1.04a8.18 8.18 0 0 0 2.91-3.24c1.66-3.14 2.6-8.32 2.6-15.78 0-7.47-.94-12.54-2.59-15.5Zm43.94 0v-.02a8.07 8.07 0 0 0-2.9-3.18 7.85 7.85 0 0 0-4.13-1.03c-3.12 0-5.4 1.34-7.03 4.23-1.64 2.96-2.58 8.03-2.58 15.5 0 7.44.94 12.62 2.6 15.76a8.48 8.48 0 0 0 2.94 3.25 7.64 7.64 0 0 0 4.07 1.04c1.65 0 3-.37 4.11-1.04a8.17 8.17 0 0 0 2.9-3.24c1.67-3.14 2.6-8.32 2.6-15.78 0-7.47-.94-12.54-2.58-15.5Z" clip-rule="evenodd"/><path d="M5.85 81.53V71.08L26.43 49.9a37.02 37.02 0 0 0 5.6-7.09 12.78 12.78 0 0 0 1.75-6.36c0-2.73-.9-4.78-2.67-6.18-1.77-1.4-4.32-2.09-7.62-2.09-2.76 0-5.48.52-8.18 1.55a28.13 28.13 0 0 0-7.8 4.54L3 23.92c2.7-2.3 6.03-4.12 10.01-5.45 3.98-1.33 8.12-2 12.4-2 7.23 0 12.78 1.6 16.64 4.82 3.85 3.15 5.78 7.66 5.78 13.54 0 3.93-.91 7.69-2.75 11.26-1.84 3.58-4.81 7.36-8.91 11.36L23.37 69.9H50.3v11.63H5.85Z"/></g><g opacity=".85"><path fill="url(#j)" fill-rule="evenodd" d="M55.57 72.58v-.01c-4.1-5.77-6.04-13.79-6.04-23.83 0-10.15 1.93-18.16 6.05-23.77 4.18-5.69 10.17-8.5 17.71-8.5 7.6 0 13.6 2.8 17.72 8.5a28.14 28.14 0 0 1 4.26 9c.99-3.47 2.4-6.48 4.25-9 4.18-5.69 10.17-8.5 17.71-8.5 7.6 0 13.6 2.8 17.72 8.5 4.12 5.62 6.05 13.6 6.05 23.68 0 10.1-1.93 18.15-6.04 23.92-4.12 5.81-10.11 8.69-17.73 8.69-7.56 0-13.55-2.88-17.72-8.68a29.55 29.55 0 0 1-4.25-9.14 29.5 29.5 0 0 1-4.24 9.13c-4.12 5.81-10.11 8.69-17.73 8.69-7.56 0-13.55-2.88-17.72-8.68Zm24.75-39.42a8.11 8.11 0 0 0-2.9-3.2 7.84 7.84 0 0 0-4.13-1.03c-3.12 0-5.4 1.34-7.03 4.23-1.64 2.96-2.58 8.02-2.58 15.5 0 7.44.94 12.62 2.6 15.76a8.48 8.48 0 0 0 2.95 3.25 7.65 7.65 0 0 0 4.07 1.04c1.65 0 3-.37 4.1-1.04a8.18 8.18 0 0 0 2.91-3.24c1.66-3.14 2.6-8.32 2.6-15.78 0-7.47-.94-12.54-2.59-15.5Zm43.94 0v-.02a8.07 8.07 0 0 0-2.9-3.18 7.85 7.85 0 0 0-4.13-1.03c-3.12 0-5.4 1.34-7.03 4.23-1.64 2.96-2.58 8.03-2.58 15.5 0 7.44.94 12.62 2.6 15.76a8.48 8.48 0 0 0 2.94 3.25 7.64 7.64 0 0 0 4.07 1.04c1.65 0 3-.37 4.11-1.04a8.17 8.17 0 0 0 2.9-3.24c1.67-3.14 2.6-8.32 2.6-15.78 0-7.47-.94-12.54-2.58-15.5Z" clip-rule="evenodd"/><path fill="url(#k)" d="M5.85 81.53V71.08L26.43 49.9a37.02 37.02 0 0 0 5.6-7.09 12.78 12.78 0 0 0 1.75-6.36c0-2.73-.9-4.78-2.67-6.18-1.77-1.4-4.32-2.09-7.62-2.09-2.76 0-5.48.52-8.18 1.55a28.13 28.13 0 0 0-7.8 4.54L3 23.92c2.7-2.3 6.03-4.12 10.01-5.45 3.98-1.33 8.12-2 12.4-2 7.23 0 12.78 1.6 16.64 4.82 3.85 3.15 5.78 7.66 5.78 13.54 0 3.93-.91 7.69-2.75 11.26-1.84 3.58-4.81 7.36-8.91 11.36L23.37 69.9H50.3v11.63H5.85Z"/></g><path fill="url(#l)" fill-rule="evenodd" d="M14.6 27.86a24.74 24.74 0 0 1 8.89-1.67c3.55 0 6.6.75 8.86 2.52 2.36 1.85 3.43 4.55 3.43 7.75 0 2.55-.69 5.01-2 7.34a38.89 38.89 0 0 1-5.91 7.5L7.84 71.9v7.64H48.3V71.9H18.44l16.33-15.88c4-3.9 6.82-7.52 8.53-10.84 1.7-3.3 2.53-6.74 2.53-10.35 0-5.4-1.74-9.3-5.05-12h-.01c-3.37-2.81-8.4-4.36-15.35-4.36-4.08 0-8 .63-11.77 1.9a28.9 28.9 0 0 0-8.2 4.16l2.88 6.64a28.35 28.35 0 0 1 6.28-3.3Zm86.54 43.55c3.76 5.23 9.12 7.85 16.1 7.85 7.03 0 12.39-2.62 16.1-7.85 3.76-5.3 5.66-12.88 5.66-22.76 0-9.87-1.9-17.36-5.66-22.5h-.01c-3.7-5.12-9.06-7.68-16.1-7.68-6.98 0-12.34 2.56-16.1 7.68-1.69 2.3-3 5.08-3.94 8.36l-1.92 6.72-1.93-6.72a26.13 26.13 0 0 0-3.94-8.35v-.01c-3.71-5.12-9.07-7.68-16.1-7.68-6.99 0-12.34 2.56-16.1 7.68-3.77 5.13-5.67 12.65-5.67 22.59 0 9.82 1.9 17.37 5.66 22.67m43.95 0a27.57 27.57 0 0 1-3.95-8.52l-1.93-6.78-1.92 6.78a27.48 27.48 0 0 1-3.95 8.52c-3.7 5.23-9.06 7.85-16.1 7.85-6.98 0-12.33-2.62-16.1-7.85m24.89-39.22a10.1 10.1 0 0 0-3.63-3.94 9.84 9.84 0 0 0-5.15-1.32c-1.86 0-3.58.4-5.1 1.32a10.35 10.35 0 0 0-3.68 3.93v.01c-1.9 3.42-2.84 8.92-2.84 16.46 0 7.54.94 13.12 2.83 16.7v.03l.02.01c.97 1.76 2.2 3.1 3.66 3.99a9.63 9.63 0 0 0 5.1 1.33c1.97 0 3.69-.44 5.16-1.33 1.46-.9 2.67-2.23 3.62-4v-.01c1.9-3.6 2.84-9.17 2.84-16.72 0-7.54-.94-13.04-2.83-16.46Zm43.93 0c1.9 3.42 2.84 8.92 2.84 16.46 0 7.55-.94 13.13-2.83 16.72l-.01.01a10.16 10.16 0 0 1-3.63 4 9.72 9.72 0 0 1-5.15 1.33 9.63 9.63 0 0 1-5.1-1.33 10.44 10.44 0 0 1-3.67-3.99v-.02l-.02-.01c-1.89-3.6-2.82-9.17-2.82-16.7 0-7.55.94-13.05 2.83-16.47v-.01a10.35 10.35 0 0 1 3.68-3.93 9.76 9.76 0 0 1 5.1-1.32c1.96 0 3.68.44 5.15 1.32 1.47.88 2.68 2.2 3.63 3.93" clip-rule="evenodd" style="mix-blend-mode:color-dodge"/><path fill="url(#m)" fill-rule="evenodd" d="M26.43 49.9 5.85 71.09v10.45H50.3V69.9H23.37l12.8-12.45c4.1-4 7.07-7.78 8.9-11.36a24.32 24.32 0 0 0 2.76-11.27c0-5.87-1.93-10.38-5.78-13.53-3.86-3.21-9.4-4.82-16.63-4.82-4.3 0-8.42.67-12.4 2A29.75 29.75 0 0 0 3 23.92l4.5 10.36a34.44 34.44 0 0 1 1.64-1.24 26.68 26.68 0 0 1 6.17-3.3 22.74 22.74 0 0 1 8.18-1.55c3.3 0 5.85.7 7.62 2.1 1.78 1.39 2.67 3.45 2.67 6.17 0 2.18-.59 4.3-1.75 6.36a37.02 37.02 0 0 1-5.6 7.09ZM14.6 27.87a24.74 24.74 0 0 1 8.88-1.67c3.55 0 6.6.75 8.86 2.52 2.36 1.85 3.43 4.55 3.43 7.75 0 2.55-.69 5.01-2 7.34a38.86 38.86 0 0 1-5.91 7.5L7.84 71.9v7.64H48.3V71.9H18.44l16.33-15.88c4-3.9 6.82-7.52 8.53-10.84 1.7-3.3 2.53-6.74 2.53-10.35 0-5.4-1.74-9.3-5.05-12h-.01c-3.37-2.81-8.4-4.36-15.35-4.36-4.08 0-8 .63-11.77 1.9a28.9 28.9 0 0 0-8.2 4.16l2.88 6.64a28.35 28.35 0 0 1 6.28-3.3Zm76.4-2.89c-4.12-5.7-10.12-8.5-17.71-8.5-7.55 0-13.54 2.81-17.72 8.5-4.12 5.61-6.05 13.62-6.05 23.77 0 10.04 1.93 18.06 6.04 23.83 4.18 5.8 10.16 8.69 17.73 8.69 7.6 0 13.6-2.88 17.72-8.7a27.35 27.35 0 0 0 3.17-5.93 34.76 34.76 0 0 0 1.07-3.2 34.45 34.45 0 0 0 1.07 3.2c.86 2.19 1.92 4.18 3.18 5.95 4.17 5.8 10.16 8.68 17.72 8.68 7.62 0 13.61-2.88 17.73-8.7 4.1-5.76 6.04-13.81 6.04-23.9 0-10.1-1.93-18.07-6.05-23.69-4.13-5.7-10.12-8.5-17.72-8.5-7.54 0-13.53 2.81-17.7 8.5a26 26 0 0 0-3.2 5.83 33.57 33.57 0 0 0-1.06 3.16 33.48 33.48 0 0 0-1.08-3.15 26.09 26.09 0 0 0-3.18-5.84Zm10.13 46.44c3.76 5.23 9.12 7.85 16.1 7.85 7.03 0 12.39-2.62 16.1-7.85 3.76-5.3 5.66-12.88 5.66-22.76 0-9.87-1.9-17.36-5.66-22.5h-.01c-3.7-5.12-9.06-7.68-16.1-7.68-6.98 0-12.34 2.56-16.1 7.68-1.69 2.3-3 5.08-3.94 8.36l-1.92 6.72-1.93-6.72a26.13 26.13 0 0 0-3.94-8.35v-.01c-3.71-5.12-9.07-7.68-16.1-7.68-6.99 0-12.34 2.56-16.1 7.68-3.77 5.13-5.67 12.65-5.67 22.59 0 9.82 1.9 17.37 5.66 22.67m43.95 0a27.57 27.57 0 0 1-3.95-8.52l-1.93-6.78-1.92 6.78a27.48 27.48 0 0 1-3.95 8.52c-3.7 5.23-9.06 7.85-16.1 7.85-6.98 0-12.33-2.62-16.1-7.85m9.07-38.25c1.63-2.89 3.91-4.23 7.03-4.23 1.66 0 3.01.37 4.13 1.03 1.11.67 2.1 1.71 2.9 3.2 1.64 2.95 2.59 8.02 2.59 15.5 0 7.45-.94 12.63-2.6 15.77a8.17 8.17 0 0 1-2.9 3.24 7.73 7.73 0 0 1-4.12 1.04 7.64 7.64 0 0 1-4.06-1.04 8.47 8.47 0 0 1-2.95-3.25c-1.66-3.14-2.6-8.32-2.6-15.77 0-7.47.94-12.53 2.58-15.5Zm15.82-.97a10.11 10.11 0 0 0-3.64-3.94 9.83 9.83 0 0 0-5.15-1.32c-1.85 0-3.57.4-5.1 1.32a10.35 10.35 0 0 0-3.67 3.93v.01c-1.9 3.42-2.84 8.92-2.84 16.46 0 7.54.94 13.12 2.83 16.7v.03l.02.01c.97 1.76 2.2 3.1 3.66 3.99a9.63 9.63 0 0 0 5.1 1.33c1.97 0 3.69-.44 5.16-1.33 1.46-.9 2.67-2.23 3.62-4v-.01c1.9-3.6 2.84-9.17 2.84-16.72 0-7.54-.94-13.04-2.83-16.46Zm28.12.97c1.63-2.89 3.9-4.23 7.03-4.23 1.66 0 3.01.37 4.13 1.03 1.11.67 2.09 1.7 2.9 3.18v.02c1.64 2.95 2.59 8.02 2.59 15.5 0 7.45-.94 12.63-2.6 15.77a8.17 8.17 0 0 1-2.9 3.24 7.73 7.73 0 0 1-4.12 1.04 7.64 7.64 0 0 1-4.07-1.04 8.47 8.47 0 0 1-2.95-3.25c-1.65-3.14-2.59-8.32-2.59-15.77 0-7.47.94-12.53 2.58-15.49Zm15.81-.97c1.9 3.42 2.84 8.92 2.84 16.46 0 7.55-.94 13.13-2.83 16.72l-.01.01a10.16 10.16 0 0 1-3.63 4 9.72 9.72 0 0 1-5.15 1.33 9.63 9.63 0 0 1-5.1-1.33 10.44 10.44 0 0 1-3.67-3.99v-.02l-.02-.01c-1.89-3.6-2.82-9.17-2.82-16.7 0-7.55.93-13.05 2.83-16.47v-.01a10.35 10.35 0 0 1 3.68-3.93 9.76 9.76 0 0 1 5.1-1.32c1.96 0 3.68.44 5.15 1.32 1.47.88 2.68 2.2 3.63 3.93" clip-rule="evenodd" style="mix-blend-mode:color-dodge"/></g><defs><radialGradient id="b" cx="0" cy="0" r="1" gradientTransform="matrix(78.1 32.11 -21.56 52.43 19.61 102.2)" gradientUnits="userSpaceOnUse"><stop stop-color="#fff"/><stop offset="1" stop-color="#fff" stop-opacity=".62"/></radialGradient><radialGradient id="c" cx="0" cy="0" r="1" gradientTransform="matrix(78.1 32.11 -21.56 52.43 19.61 102.2)" gradientUnits="userSpaceOnUse"><stop stop-color="#fff"/><stop offset="1" stop-color="#fff" stop-opacity=".62"/></radialGradient><radialGradient id="d" cx="0" cy="0" r="1" gradientTransform="matrix(78.1 32.11 -21.56 52.43 19.61 102.2)" gradientUnits="userSpaceOnUse"><stop stop-color="#fff"/><stop offset="1" stop-color="#fff" stop-opacity=".62"/></radialGradient><radialGradient id="e" cx="0" cy="0" r="1" gradientTransform="matrix(78.1 32.11 -21.56 52.43 19.61 102.2)" gradientUnits="userSpaceOnUse"><stop stop-color="#fff"/><stop offset="1" stop-color="#fff" stop-opacity=".62"/></radialGradient><radialGradient id="f" cx="0" cy="0" r="1" gradientTransform="matrix(78.1 32.11 -21.56 52.43 19.61 102.2)" gradientUnits="userSpaceOnUse"><stop stop-color="#fff"/><stop offset="1" stop-color="#fff" stop-opacity=".62"/></radialGradient><radialGradient id="g" cx="0" cy="0" r="1" gradientTransform="matrix(78.1 32.11 -21.56 52.43 19.61 102.2)" gradientUnits="userSpaceOnUse"><stop stop-color="#fff"/><stop offset="1" stop-color="#fff" stop-opacity=".62"/></radialGradient><radialGradient id="h" cx="0" cy="0" r="1" gradientTransform="matrix(78.1 32.11 -21.56 52.43 19.61 102.2)" gradientUnits="userSpaceOnUse"><stop stop-color="#fff"/><stop offset="1" stop-color="#fff" stop-opacity=".62"/></radialGradient><radialGradient id="j" cx="0" cy="0" r="1" gradientTransform="matrix(77.62 47.56 -40.44 66 20.25 26.05)" gradientUnits="userSpaceOnUse"><stop stop-color="#fff"/><stop offset="1" stop-color="#fff" stop-opacity=".62"/></radialGradient><radialGradient id="k" cx="0" cy="0" r="1" gradientTransform="matrix(77.62 47.56 -40.44 66 20.25 26.05)" gradientUnits="userSpaceOnUse"><stop stop-color="#fff"/><stop offset="1" stop-color="#fff" stop-opacity=".62"/></radialGradient><linearGradient id="l" x1="139" x2="88.52" y1="79.36" y2="-8.66" gradientUnits="userSpaceOnUse"><stop stop-color="#79AEE7"/><stop offset=".33" stop-color="#4960A7"/><stop offset="1" stop-color="#1B2030" stop-opacity=".25"/></linearGradient><linearGradient id="m" x1="19.55" x2="55.18" y1="78.53" y2="4.24" gradientUnits="userSpaceOnUse"><stop stop-color="#EBF8FC"/><stop offset=".29" stop-color="#7FB8EF"/><stop offset=".58" stop-color="#5142F1"/><stop offset="1" stop-color="#1D1D29"/></linearGradient><clipPath id="a"><rect width="144" height="144" fill="#fff" rx="8"/></clipPath><filter id="i" width="150.48" height="77.54" x="-3.24" y="10.23" color-interpolation-filters="sRGB" filterUnits="userSpaceOnUse"><feFlood flood-opacity="0" result="BackgroundImageFix"/><feColorMatrix in="SourceAlpha" result="hardAlpha" values="0 0 0 0 0 0 0 0 0 0 0 0 0 0 0 0 0 0 127 0"/><feOffset/><feGaussianBlur stdDeviation="3.12"/><feComposite in2="hardAlpha" operator="out"/><feColorMatrix values="0 0 0 0 1 0 0 0 0 1 0 0 0 0 1 0 0 0 0.25 0"/><feBlend in2="BackgroundImageFix" result="effect1_dropShadow_2765_10395"/><feBlend in="SourceGraphic" in2="effect1_dropShadow_2765_10395" result="shape"/></filter></defs></svg>