<svg width="89" height="80" viewBox="0 0 89 80" fill="none" xmlns="http://www.w3.org/2000/svg">
    <mask id="mask0_2183_57821" style="mask-type:luminance" maskUnits="userSpaceOnUse" x="0" y="0" width="89" height="80">
    <path d="M69.9928 4.50609L87.7458 35.4939C89.3442 38.2821 89.3442 41.7179 87.7458 44.5061L69.9928 75.4939C68.4 78.2821 65.4463 80 62.2523 80H26.7437C23.5497 80 20.596 78.2821 19.0032 75.4939L1.25028 44.5061C-0.34254 41.7179 -0.34254 38.2821 1.25028 35.4939L19.006 4.50609C20.6044 1.71795 23.5553 0 26.7465 0H62.2523C65.4463 0 68.4 1.71795 69.9928 4.50609Z" fill="white"/>
    </mask>
    <g mask="url(#mask0_2183_57821)">
    <path d="M89.1146 -4.88086H-0.306641V85.241H89.1146V-4.88086Z" fill="#FC8702"/>
    <path d="M44.4002 62.7084C56.7467 62.7084 66.7555 52.6211 66.7555 40.1779C66.7555 27.7347 56.7467 17.6475 44.4002 17.6475C32.0537 17.6475 22.0449 27.7347 22.0449 40.1779C22.0449 52.6211 32.0537 62.7084 44.4002 62.7084Z" fill="#D94432"/>
    <g opacity="0.1">
    <path d="M66.3254 40.1788C66.3251 44.5589 65.0406 48.8413 62.6334 52.4881C60.2262 56.1349 56.8035 58.9836 52.7951 60.6764C48.7867 62.3692 44.3715 62.8307 40.1037 62.0028C35.836 61.175 31.9061 59.0947 28.8076 56.0233C34.5976 57.3357 48.9274 57.7131 56.6512 47.98C62.4579 40.9561 61.2955 29.2628 58.9761 23.6133C61.2914 25.6956 63.1433 28.2482 64.4099 31.1033C65.6766 33.9584 66.3294 37.0513 66.3254 40.1788Z" fill="#010101"/>
    </g>
    <path d="M62.8412 8.80494C62.8412 8.80494 52.3342 0.637653 41.6037 7.28414C38.3621 9.19923 35.1206 15.2261 33.7793 20.5771C33.7793 20.5771 46.913 16.24 52.6695 27.2236H55.3522L62.8412 8.80494Z" fill="#88B04B"/>
    <path opacity="0.5" d="M62.8485 8.80677C62.8485 8.80677 51.5591 0.0198932 40.7168 7.90555C40.7168 7.90555 47.1439 2.10396 58.4334 8.80677H62.8485Z" fill="white"/>
    <path opacity="0.1" d="M52.6777 27.2243H55.3045L62.8494 8.80566H58.4342L52.6777 27.2243Z" fill="#010107"/>
    <path d="M65.138 33.4758C66.1999 34.3771 66.7588 40.235 65.6969 45.248C65.6969 45.248 68.3237 47.0504 69.5532 47.3321L71.2299 47.839C74.3596 48.6839 80.172 49.7541 80.3396 43.4456L79.7808 40.1787C79.5013 38.5452 80.2279 37.2497 78.663 34.2644C77.0981 31.2791 73.9125 31.1665 71.6211 32.0677C71.6211 32.0677 71.2857 32.4056 70.3356 31.3918C69.3855 30.3779 66.2558 30.2089 65.138 33.4758ZM14.3915 33.8138C13.9482 34.4211 13.6517 35.1244 13.5255 35.8675C13.3994 36.6107 13.4471 37.3733 13.6649 38.0946L13.8326 39.2211C13.8326 39.2211 8.18789 38.2072 8.80266 42.7133L8.97033 43.8962C9.52921 47.6137 10.0881 49.3035 12.5472 50.43C15.2298 51.6692 15.3416 49.0782 17.0741 49.7541C18.8067 50.43 28.0841 55.781 29.5931 47.2194L29.4813 43.5582C29.4254 41.6995 30.4314 40.404 29.2019 36.8554C27.9723 33.3069 24.4514 32.6873 21.7687 33.3069C21.7687 33.3069 21.3216 33.5885 20.4833 32.3493C19.645 31.1101 16.124 30.4342 14.3915 33.8138Z" fill="#88B04B"/>
    <path opacity="0.16" d="M65.1279 33.4758C66.1898 34.3771 66.7487 40.235 65.6868 45.248C65.6868 45.248 68.3136 47.0504 69.5431 47.3321L71.2198 47.839C69.7667 47.7827 69.2637 44.9664 69.5431 44.8537C69.5431 40.5729 68.7607 37.813 68.8166 34.8277C68.8578 34.0996 69.1671 33.4132 69.6839 32.9028C70.2007 32.3923 70.8879 32.0945 71.611 32.0677C71.611 32.0677 71.2756 32.4056 70.3255 31.3918C69.3754 30.3779 66.2457 30.2089 65.1279 33.4758Z" fill="#010101"/>
    <g opacity="0.3">
    <path d="M65.9096 45.4154C65.9096 45.4154 68.7599 47.1052 69.5982 47.2742C70.9954 47.6122 78.0374 50.3721 79.9376 45.8097C80.1611 45.0212 80.3288 44.1763 80.4406 43.3877C80.1052 44.5705 77.8697 45.8097 75.4665 46.1477C72.225 46.7109 69.6541 44.6269 67.698 45.2465L66.1332 44.5705L65.9096 45.4154ZM10.3008 48.6824C10.9714 49.4146 11.698 49.9779 12.5363 50.4285C15.2189 51.6676 15.3307 49.0766 17.0633 49.7525C18.5722 50.3158 25.8377 54.5403 28.688 49.8089C29.0691 48.9766 29.3685 48.1088 29.5822 47.2179C29.0234 48.457 26.3407 49.4709 23.714 49.4709C20.0253 49.5272 17.5663 46.8799 15.3307 47.2179C11.6421 49.1893 10.3008 48.6824 10.3008 48.6824Z" fill="#010101"/>
    </g>
    <g opacity="0.1">
    <path d="M69.5978 47.3322C67.9211 47.1632 80.1606 51.275 80.4401 43.4457L79.8812 40.1788C79.6018 38.5453 80.3283 37.2498 78.7634 34.2645C77.1986 31.2793 74.0129 31.1666 71.7215 32.0678C79.0429 31.6172 77.7016 47.3885 69.5978 47.3322ZM17.0069 49.7542C15.2185 49.3036 28.0169 55.7811 29.5259 47.2196L29.47 43.5584C29.4141 41.6996 30.4201 40.4041 29.1905 36.8555C27.961 33.307 24.44 32.6874 21.7574 33.307C29.9171 34.0392 25.949 51.2187 17.0069 49.7542Z" fill="#010101"/>
    </g>
    <g opacity="0.3">
    <path d="M55.8528 50.4284C60.3284 50.4284 63.9566 47.4778 63.9566 43.8382C63.9566 40.1986 60.3284 37.248 55.8528 37.248C51.3772 37.248 47.749 40.1986 47.749 43.8382C47.749 47.4778 51.3772 50.4284 55.8528 50.4284Z" fill="#FCFCFC"/>
    <path d="M55.8579 50.4292C51.3868 50.4292 47.7541 47.5002 47.7541 43.839C47.7541 40.1778 51.3868 37.2489 55.8579 37.2489C60.3289 37.2489 63.9617 40.1778 63.9617 43.839C63.9617 39.7272 59.826 36.3477 54.7401 36.3477C49.6543 36.3477 45.5186 39.7272 45.5186 43.839C45.5186 47.9508 49.6543 51.3304 54.7401 51.3304C59.826 51.3304 63.9617 47.9508 63.9617 43.839C63.9617 47.5002 60.3289 50.4292 55.8579 50.4292Z" fill="#88B04B"/>
    </g>
    <path d="M53.3475 46.9381C54.2735 46.9381 55.0242 45.5511 55.0242 43.8401C55.0242 42.1292 54.2735 40.7422 53.3475 40.7422C52.4216 40.7422 51.6709 42.1292 51.6709 43.8401C51.6709 45.5511 52.4216 46.9381 53.3475 46.9381Z" fill="#211309"/>
    <path d="M59.4921 46.9381C60.4181 46.9381 61.1687 45.5511 61.1687 43.8401C61.1687 42.1292 60.4181 40.7422 59.4921 40.7422C58.5661 40.7422 57.8154 42.1292 57.8154 43.8401C57.8154 45.5511 58.5661 46.9381 59.4921 46.9381Z" fill="#211309"/>
    <path d="M55.0281 43.8401C55.0281 45.5299 54.3016 46.9381 53.3515 46.9381C53.072 46.9381 52.7367 46.8254 52.569 46.6001C54.4692 46.3748 54.4692 41.3054 52.4014 41.3054C52.6249 40.9675 52.9602 40.7985 53.3515 40.7422C54.3016 40.7422 55.0281 42.1503 55.0281 43.8401ZM61.1758 43.8401C61.1758 45.5299 60.4493 46.9381 59.4992 46.9381C59.2197 46.9381 58.8844 46.8254 58.7167 46.6001C60.6169 46.3748 60.6169 41.3054 58.5491 41.3054C58.7726 40.9675 59.108 40.7985 59.4992 40.7422C60.4493 40.7422 61.1758 42.1503 61.1758 43.8401Z" fill="#42210B"/>
    <path d="M61.6267 36.7989C62.7155 36.5756 63.3438 35.1343 63.03 33.5797C62.7161 32.025 61.579 30.9457 60.4901 31.169C59.4013 31.3922 58.773 32.8335 59.0868 34.3882C59.4007 35.9429 60.5378 37.0222 61.6267 36.7989Z" fill="#42210B"/>
    <path d="M50.3397 33.7005C50.6904 31.9629 49.994 30.3532 48.7841 30.1052C47.5743 29.8571 46.3091 31.0645 45.9584 32.8021C45.6076 34.5397 46.304 36.1493 47.5139 36.3974C48.7238 36.6455 49.9889 35.438 50.3397 33.7005Z" fill="#42210B"/>
    <path d="M53.9057 64.1191C53.9057 64.1191 52.3408 67.2171 50.8318 68.3436C50.1612 68.7942 49.5464 69.3575 48.9316 69.8644V72.3428C48.9316 72.5681 54.6322 70.653 53.9057 64.1191Z" fill="#6D4716"/>
    <path d="M54.2472 64.1169C54.2472 64.1169 51.2292 63.3283 49.2731 65.2434C47.317 67.1585 47.3729 69.8622 48.4907 69.8622C49.6084 69.8622 49.7202 70.2564 54.2472 64.1169Z" fill="white"/>
    <path d="M68.7206 55.2734C68.7206 55.2734 66.038 50.6547 58.0459 54.8791C50.0539 59.1036 56.537 67.9468 49.2715 72.1713C49.2715 72.1713 51.1717 74.5933 53.9661 68.848C56.5928 63.6097 56.537 54.9355 68.7206 55.2734Z" fill="#99671D"/>
    <path d="M49.319 72.1727C49.319 72.1727 52.7282 73.6935 55.0196 66.0332C57.311 58.3728 59.9937 53.7541 66.4208 54.1484C67.315 54.1484 68.2093 54.4863 68.8799 55.1059C72.0097 57.9222 69.6065 66.1458 66.4208 68.7368C62.6204 71.7785 54.2372 74.8764 50.828 73.7499C47.4188 72.6234 49.319 72.1727 49.319 72.1727Z" fill="#444444"/>
    <path d="M48.7637 61.1333L49.3226 65.3014C50.3844 64.5128 51.3345 64.0059 52.117 64.0059L51.7816 60.5137C50.7756 60.7953 49.7697 60.9643 48.7637 61.1333Z" fill="black"/>
    <path d="M67.986 57.4145H61.503C61.3353 57.4145 61.2236 57.3019 61.2236 57.1329V57.0766C61.2236 56.9076 61.3353 56.7949 61.503 56.7949H67.986C68.1537 56.7949 68.2655 56.9076 68.2655 57.0766V57.1329C68.2655 57.3019 68.1537 57.4145 67.986 57.4145ZM68.6008 59.2169H60.3852C60.2176 59.2169 60.1058 59.1043 60.1058 58.9353V58.879C60.1058 58.71 60.2176 58.5974 60.3852 58.5974H68.6008C68.7685 58.5974 68.8803 58.71 68.8803 58.879V58.9353C68.8803 59.1043 68.7126 59.2169 68.6008 59.2169ZM68.6008 60.9631H58.5968C58.4291 60.9631 58.3174 60.8504 58.3174 60.6814V60.6251C58.3174 60.4561 58.4291 60.3435 58.5968 60.3435H68.6008C68.7685 60.3435 68.8803 60.4561 68.8803 60.6251V60.6814C68.8803 60.8504 68.7126 60.9631 68.6008 60.9631ZM67.986 62.7655H57.982C57.8144 62.7655 57.7026 62.6528 57.7026 62.4839V62.4275C57.7026 62.2586 57.8144 62.1459 57.982 62.1459H67.986C68.1537 62.1459 68.2655 62.2586 68.2655 62.4275V62.4839C68.2655 62.5965 68.1537 62.7655 67.986 62.7655ZM67.3713 64.5116H57.3673C57.1996 64.5116 57.0878 64.3989 57.0878 64.23V64.1736C57.0878 64.0047 57.1996 63.892 57.3673 63.892H67.3713C67.5389 63.892 67.6507 64.0047 67.6507 64.1736V64.23C67.6507 64.3989 67.5389 64.5116 67.3713 64.5116ZM66.2535 66.314H56.2495C56.0818 66.314 55.9701 66.2014 55.9701 66.0324V65.9761C55.9701 65.8071 56.0818 65.6945 56.2495 65.6945H66.2535C66.4212 65.6945 66.5329 65.8071 66.5329 65.9761V66.0324C66.5329 66.1451 66.3653 66.314 66.2535 66.314ZM65.0799 68.0601H56.2495C56.0818 68.0601 55.9701 67.9475 55.9701 67.7785C55.9701 67.6095 56.0818 67.4969 56.2495 67.4969H65.0799C65.2475 67.4969 65.3593 67.6095 65.3593 67.7785V67.8348C65.3593 67.9475 65.1916 68.0601 65.0799 68.0601ZM62.7325 69.8626H55.0759C54.9082 69.8626 54.7964 69.7499 54.7964 69.581V69.5246C54.7964 69.3557 54.9082 69.243 55.0759 69.243H62.7325C62.9002 69.243 63.012 69.3557 63.012 69.5246V69.581C63.012 69.6936 62.8443 69.8626 62.7325 69.8626ZM59.7705 71.6087H54.4611C54.2934 71.6087 54.1816 71.496 54.1816 71.3271V71.2707C54.1816 71.1018 54.2934 70.9891 54.4611 70.9891H59.7705C59.9381 70.9891 60.0499 71.1018 60.0499 71.2707V71.3271C60.0499 71.496 59.9381 71.6087 59.7705 71.6087Z" fill="#88B04B"/>
    <path d="M34.9018 64.6807C34.9018 64.6807 33.3369 67.7786 31.8279 68.9051C31.1573 69.3557 30.5425 69.919 29.9277 70.4259V72.9043C29.9277 73.1296 35.6283 71.2145 34.9018 64.6807Z" fill="#6D4716"/>
    <path d="M33.3944 58.7676L32.2207 65.1324C33.2826 64.3439 33.7297 64.9635 34.5121 64.9635L35.7417 59.7815C34.6239 59.5561 34.1209 58.9929 33.3944 58.7676Z" fill="black"/>
    <path d="M35.2369 64.6813C35.2369 64.6813 32.1631 63.8928 30.2629 65.8079C28.3627 67.723 28.3627 70.4266 29.4805 70.4266C30.5982 70.4266 30.71 70.8209 35.2369 64.6813Z" fill="white"/>
    <path d="M49.7167 55.8379C49.7167 55.8379 47.0341 51.2191 39.042 55.4436C31.05 59.668 37.5331 68.5113 30.2676 72.7357C30.2676 72.7357 32.2796 74.9888 34.9622 69.3561C37.5331 64.1178 37.5331 55.4999 49.7167 55.8379Z" fill="#99671D"/>
    <path d="M30.3133 72.7352C30.3133 72.7352 33.7225 74.256 36.0139 66.5957C38.3053 58.9353 40.9879 54.3166 47.4151 54.7109C48.3093 54.7109 49.2035 55.0488 49.8742 55.6684C53.0039 58.4847 50.6007 66.7083 47.4151 69.2993C43.6147 72.341 35.2315 75.4389 31.7664 74.3124C28.3013 73.1859 30.3133 72.7352 30.3133 72.7352Z" fill="#444444"/>
    <path d="M48.9821 57.976H42.4991C42.3314 57.976 42.2197 57.8634 42.2197 57.6944V57.6381C42.2197 57.4691 42.3314 57.3564 42.4991 57.3564H48.9821C49.1498 57.3564 49.2616 57.4691 49.2616 57.6381V57.6944C49.2616 57.8634 49.1498 57.976 48.9821 57.976ZM49.5969 59.7785H41.3254C41.1578 59.7785 41.046 59.6658 41.046 59.4968V59.4405C41.046 59.2715 41.1578 59.1589 41.3254 59.1589H49.541C49.7087 59.1589 49.8205 59.2715 49.8205 59.4405V59.4968C49.8763 59.6658 49.7087 59.7785 49.5969 59.7785ZM49.5969 61.5246H39.5929C39.4252 61.5246 39.3135 61.4119 39.3135 61.2429V61.1866C39.3135 61.0176 39.4252 60.905 39.5929 60.905H49.5969C49.7646 60.905 49.8763 61.0176 49.8763 61.1866V61.2429C49.8763 61.4119 49.7087 61.5246 49.5969 61.5246ZM48.9821 63.327H38.9781C38.8105 63.327 38.6987 63.2144 38.6987 63.0454V62.9891C38.6987 62.8201 38.8105 62.7074 38.9781 62.7074H48.9821C49.1498 62.7074 49.2616 62.8201 49.2616 62.9891V63.0454C49.2616 63.158 49.1498 63.327 48.9821 63.327ZM48.3674 65.0731H38.4193C38.2516 65.0731 38.1398 64.9605 38.1398 64.7915V64.7352C38.1398 64.5662 38.2516 64.4535 38.4193 64.4535H48.4233C48.5909 64.4535 48.7027 64.5662 48.7027 64.7352V64.7915C48.6468 64.9605 48.535 65.0731 48.3674 65.0731ZM47.2496 66.8756H37.2456C37.0779 66.8756 36.9662 66.7629 36.9662 66.5939V66.5376C36.9662 66.3686 37.0779 66.256 37.2456 66.256H47.2496C47.4173 66.256 47.529 66.3686 47.529 66.5376V66.5939C47.529 66.7066 47.3614 66.8756 47.2496 66.8756ZM46.0759 68.6217H37.2456C37.0779 68.6217 36.9662 68.509 36.9662 68.34C36.9662 68.1711 37.0779 68.0584 37.2456 68.0584H46.0759C46.2436 68.0584 46.3554 68.1711 46.3554 68.34V68.3964C46.3554 68.509 46.1877 68.6217 46.0759 68.6217ZM43.7286 70.4241H36.0719C35.9043 70.4241 35.7925 70.3115 35.7925 70.1425V70.0862C35.7925 69.9172 35.9043 69.8045 36.0719 69.8045H43.7286C43.8963 69.8045 44.0081 69.9172 44.0081 70.0862V70.1425C44.0081 70.2551 43.8404 70.4241 43.7286 70.4241ZM40.7666 72.1702H35.4572C35.2895 72.1702 35.1777 72.0576 35.1777 71.8886V71.8323C35.1777 71.6633 35.2895 71.5506 35.4572 71.5506H40.7666C40.9342 71.5506 41.046 71.6633 41.046 71.8323V71.8886C41.046 72.0576 40.9342 72.1702 40.7666 72.1702Z" fill="#88B04B"/>
    </g>
    </svg>
    