<svg width="121" height="164" viewBox="0 0 121 164" fill="none" xmlns="http://www.w3.org/2000/svg">
  <g opacity=".85">
    <path d="M62.01 131.82H51.08a12 12 0 0 0-12 12v7.36a12 12 0 0 0 12 12H62a12 12 0 0 0 12-12v-7.36a12 12 0 0 0-12-12Z" fill="url(#a)"/>
    <path d="M105.06 13.4C95.1 4.52 79.86 0 59.8 0 43.03 0 28.97 3.86 18 11.47 7.28 19 2.18 30.17.54 42.49c-.45 3.39 2.31 6.24 5.73 6.24h30.78c3.32 0 5.86-2.7 6.23-5.99.38-3.35 1.36-6.59 3.95-8.86a14.13 14.13 0 0 1 9.65-3.66c4.47 0 7.9 1.53 10.52 4.68 2.65 3.14 4 7.31 4 12.41 0 5.17-1.53 9.44-4.66 13.07-5.2 6-13.14 10.08-20.51 14.1a11.38 11.38 0 0 0-5.83 10.65l1.3 25.1a6 6 0 0 0 6 5.7h17.9a6 6 0 0 0 5.98-5.5l.73-8.8c.45-5.41 4.46-9.83 9.71-11.19 7.68-1.97 18.34-5.34 23.77-9.85 9.55-8 14.39-19.34 14.39-33.73 0-13.16-5.09-24.42-15.12-33.45Z" fill="url(#b)"/>
  </g>
  <g style="mix-blend-mode:color-dodge" fill-rule="evenodd" clip-rule="evenodd">
    <path d="M62.01 133.82H51.08a10 10 0 0 0-10 10v7.36a10 10 0 0 0 10 10H62a10 10 0 0 0 10-10v-7.36a10 10 0 0 0-10-10Zm-10.93-2H62a12 12 0 0 1 12 12v7.36a12 12 0 0 1-12 12H51.08a12 12 0 0 1-12-12v-7.36a12 12 0 0 1 12-12Z" fill="url(#c)"/>
    <path d="M47.22 33.88a14.13 14.13 0 0 1 9.66-3.66c4.47 0 7.9 1.53 10.52 4.68 2.65 3.14 4 7.31 4 12.41 0 5.17-1.53 9.44-4.67 13.07-4.83 5.59-12.06 9.5-18.98 13.27l-1.52.82a11.38 11.38 0 0 0-5.83 10.66l1.3 25.1a6 6 0 0 0 6 5.7h17.9a6 6 0 0 0 5.98-5.5l.73-8.8c.45-5.41 4.46-9.83 9.71-11.19 7.68-1.97 18.34-5.34 23.77-9.85 9.55-8 14.39-19.34 14.39-33.73 0-13.16-5.09-24.42-15.12-33.45C95.1 4.5 79.86 0 59.8 0 43.03 0 28.97 3.86 18 11.47 7.28 19 2.18 30.17.54 42.49c-.45 3.39 2.3 6.24 5.72 6.24h30.8c3.3 0 5.85-2.7 6.22-5.99.38-3.35 1.36-6.59 3.94-8.86ZM19.15 13.11C9 20.25 4.1 30.8 2.52 42.76c-.27 2.06 1.41 3.97 3.74 3.97h30.8c2.11 0 3.96-1.74 4.23-4.21.4-3.55 1.48-7.38 4.61-10.14a16.12 16.12 0 0 1 10.98-4.16c5 0 9.02 1.74 12.05 5.4 3.02 3.57 4.46 8.24 4.46 13.7 0 5.6-1.67 10.35-5.14 14.37-5.09 5.88-12.63 9.97-19.48 13.68l-1.59.86a9.38 9.38 0 0 0-4.78 8.8l1.3 25.1a4 4 0 0 0 4 3.8h17.9a4 4 0 0 0 3.99-3.68l.73-8.8c.52-6.31 5.2-11.4 11.2-12.94 3.8-.98 8.3-2.3 12.51-3.9 4.24-1.64 8.02-3.52 10.48-5.56 9.02-7.55 13.67-18.29 13.67-32.19 0-12.58-4.83-23.3-14.45-31.96C94.27 6.46 79.6 2 59.79 2 43.34 2 29.71 5.78 19.15 13.1Z" fill="url(#d)"/>
  </g>
  <g style="mix-blend-mode:color-dodge" fill-rule="evenodd" clip-rule="evenodd">
    <path d="M62.01 133.82H51.08a10 10 0 0 0-10 10v7.36a10 10 0 0 0 10 10H62a10 10 0 0 0 10-10v-7.36a10 10 0 0 0-10-10Z" fill="url(#e)"/>
    <path d="M19.15 13.1C9 20.26 4.1 30.83 2.52 42.77c-.27 2.06 1.41 3.97 3.75 3.97h30.78c2.12 0 3.97-1.74 4.24-4.21.4-3.55 1.48-7.38 4.61-10.14a16.12 16.12 0 0 1 10.98-4.16c5 0 9.02 1.74 12.05 5.4 3.02 3.57 4.46 8.24 4.46 13.7 0 5.6-1.67 10.35-5.14 14.37-5.09 5.88-12.63 9.97-19.48 13.68l-1.59.86a9.38 9.38 0 0 0-4.78 8.8l1.3 25.1a4 4 0 0 0 4 3.8h17.9a4 4 0 0 0 3.99-3.68l.73-8.8c.52-6.31 5.2-11.4 11.2-12.94 3.8-.98 8.3-2.3 12.51-3.9 4.24-1.64 8.02-3.52 10.48-5.56 9.02-7.55 13.67-18.29 13.67-32.19 0-12.58-4.83-23.3-14.45-31.96C94.27 6.46 79.6 2 59.79 2 43.34 2 29.71 5.78 19.15 13.1Z" fill="url(#f)"/>
  </g>
  <defs>
    <linearGradient id="c" x1="43.27" y1="161.74" x2="65.2" y2="137.72" gradientUnits="userSpaceOnUse">
      <stop stop-color="#EBF8FC"/>
      <stop offset=".3" stop-color="#7FB8EF"/>
      <stop offset=".58" stop-color="#5142F1"/>
      <stop offset="1" stop-color="#1D1D29"/>
    </linearGradient>
    <linearGradient id="d" x1="14.85" y1="110.58" x2="96.25" y2="27.96" gradientUnits="userSpaceOnUse">
      <stop stop-color="#EBF8FC"/>
      <stop offset=".3" stop-color="#7FB8EF"/>
      <stop offset=".58" stop-color="#5142F1"/>
      <stop offset="1" stop-color="#1D1D29"/>
    </linearGradient>
    <linearGradient id="e" x1="72.01" y1="161.11" x2="45.95" y2="137.61" gradientUnits="userSpaceOnUse">
      <stop stop-color="#79AEE7"/>
      <stop offset=".33" stop-color="#4960A7"/>
      <stop offset="1" stop-color="#1B2030" stop-opacity=".25"/>
    </linearGradient>
    <linearGradient id="f" x1="118.18" y1="113.62" x2="12.95" y2="26.92" gradientUnits="userSpaceOnUse">
      <stop stop-color="#79AEE7"/>
      <stop offset=".33" stop-color="#4960A7"/>
      <stop offset="1" stop-color="#1B2030" stop-opacity=".25"/>
    </linearGradient>
    <radialGradient id="a" cx="0" cy="0" r="1" gradientUnits="userSpaceOnUse" gradientTransform="matrix(20 23 -22 19 43.44 136.44)">
      <stop stop-color="#fff"/>
      <stop offset="1" stop-color="#fff" stop-opacity=".62"/>
    </radialGradient>
    <radialGradient id="b" cx="0" cy="0" r="1" gradientUnits="userSpaceOnUse" gradientTransform="matrix(68 85 -79 63 15.02 17.06)">
      <stop stop-color="#fff"/>
      <stop offset="1" stop-color="#fff" stop-opacity=".62"/>
    </radialGradient>
  </defs>
</svg>
