<svg width="150" height="142" viewBox="0 0 150 142" fill="none" xmlns="http://www.w3.org/2000/svg">
    <path opacity="0.4" d="M9.97537 136.296V105.768H14.8685L26.0838 131.013H24.7414L35.9567 105.768H40.8065V136.296H35.7401V113.649H37.299L27.0364 136.296H23.7021L13.4395 113.649H15.0417V136.296H9.97537ZM47.177 136.296V114.428H52.5897V136.296H47.177ZM46.8739 110.315V105.032H52.8929V110.315H46.8739ZM58.4677 136.296V104.426H63.8804V136.296H58.4677ZM69.7584 136.296V104.426H75.1711V136.296H69.7584ZM81.0491 136.296V114.428H86.4618V136.296H81.0491ZM80.7459 110.315V105.032H86.7649V110.315H80.7459ZM102.213 136.729C99.9609 136.729 98.0123 136.267 96.3668 135.343C94.7214 134.419 93.4367 133.106 92.5129 131.403C91.618 129.7 91.1706 127.679 91.1706 125.34C91.1706 123.002 91.618 120.996 92.5129 119.321C93.4367 117.618 94.7214 116.305 96.3668 115.381C98.0123 114.457 99.9609 113.995 102.213 113.995C104.464 113.995 106.413 114.457 108.058 115.381C109.733 116.305 111.017 117.618 111.912 119.321C112.836 120.996 113.298 123.002 113.298 125.34C113.298 127.679 112.836 129.7 111.912 131.403C111.017 133.106 109.733 134.419 108.058 135.343C106.413 136.267 104.464 136.729 102.213 136.729ZM102.213 132.572C103.916 132.572 105.273 131.98 106.283 130.797C107.293 129.584 107.799 127.765 107.799 125.34C107.799 122.916 107.293 121.111 106.283 119.928C105.273 118.744 103.916 118.152 102.213 118.152C100.509 118.152 99.1526 118.744 98.1422 119.928C97.1318 121.111 96.6267 122.916 96.6267 125.34C96.6267 127.765 97.1318 129.584 98.1422 130.797C99.1526 131.98 100.509 132.572 102.213 132.572ZM117.966 136.296V119.884C117.966 118.989 117.937 118.08 117.879 117.156C117.821 116.233 117.735 115.323 117.619 114.428H122.859L123.292 118.759H122.772C123.465 117.229 124.49 116.059 125.847 115.251C127.204 114.414 128.777 113.995 130.567 113.995C133.136 113.995 135.07 114.717 136.369 116.16C137.668 117.604 138.318 119.856 138.318 122.916V136.296H132.905V123.175C132.905 121.414 132.559 120.159 131.866 119.408C131.202 118.629 130.191 118.239 128.835 118.239C127.16 118.239 125.832 118.759 124.851 119.798C123.869 120.837 123.379 122.223 123.379 123.955V136.296H117.966Z" fill="url(#paint0_radial_1718_39429)"/>
    <g opacity="0.9" filter="url(#filter0_d_1718_39429)">
    <path d="M111.388 95.2957C101.321 95.2957 93.5668 91.4797 88.1269 83.8477C82.6871 76.1346 79.9672 65.1737 79.9672 50.9652C79.9672 36.5943 82.6871 25.674 88.1269 18.2044C93.5668 10.7348 101.321 7 111.388 7C121.537 7 129.291 10.7348 134.65 18.2044C140.089 25.674 142.809 36.5537 142.809 50.8434C142.809 65.1331 140.089 76.1346 134.65 83.8477C129.291 91.4797 121.537 95.2957 111.388 95.2957ZM111.388 82.3863C116.909 82.3863 121.009 79.8694 123.689 74.8355C126.368 69.7204 127.708 61.7231 127.708 50.8434C127.708 39.9637 126.368 32.0882 123.689 27.2167C121.009 22.264 116.909 19.7877 111.388 19.7877C105.948 19.7877 101.848 22.264 99.0878 27.2167C96.4085 32.0882 95.0688 39.9637 95.0688 50.8434C95.0688 61.7231 96.4085 69.7204 99.0878 74.8355C101.848 79.8694 105.948 82.3863 111.388 82.3863Z" fill="#202348"/>
    <path fill-rule="evenodd" clip-rule="evenodd" d="M38.3635 95.2957C28.2958 95.2957 20.4202 93.1442 14.7368 88.841C9.1346 84.5379 6.3335 78.5703 6.3335 70.9383C6.3335 64.9301 8.1603 59.9369 11.8139 55.9585C14.4124 53.129 17.5654 51.1209 21.2727 49.9341C18.1412 48.5786 15.4754 46.6084 13.2754 44.0233C10.1089 40.2073 8.52567 35.5794 8.52567 30.1396C8.52567 22.9135 11.1644 17.2707 16.4418 13.2111C21.8005 9.07038 29.1077 7 38.3635 7C47.7006 7 55.0078 9.07038 60.2852 13.2111C65.6439 17.2707 68.3232 22.9135 68.3232 30.1396C68.3232 35.5794 66.7806 40.2479 63.6953 44.1451C61.6635 46.7809 59.1303 48.7297 56.0957 49.9913C59.7326 51.2188 62.7935 53.2485 65.2785 56.0803C68.7698 59.9775 70.5154 64.9301 70.5154 70.9383C70.5154 78.5703 67.6737 84.5379 61.9903 88.841C56.3881 93.1442 48.5125 95.2957 38.3635 95.2957ZM51.6383 79.8288C48.7155 82.0209 44.2905 83.117 38.3635 83.117C32.5178 83.117 28.0928 82.0209 25.0887 79.8288C22.1658 77.5554 20.7044 74.2266 20.7044 69.8422C20.7044 65.4579 22.1658 62.1696 25.0887 59.9774C28.0928 57.7853 32.5178 56.6892 38.3635 56.6892C44.2905 56.6892 48.7155 57.7853 51.6383 59.9774C54.5612 62.1696 56.0227 65.4579 56.0227 69.8422C56.0227 74.2266 54.5612 77.5554 51.6383 79.8288ZM49.8115 41.1004C47.2134 43.3738 43.3974 44.5105 38.3635 44.5105C33.4109 44.5105 29.5949 43.3738 26.9155 41.1004C24.3174 38.8271 23.0183 35.7012 23.0183 31.7228C23.0183 27.8256 24.3174 24.7809 26.9155 22.5888C29.5949 20.3154 33.4109 19.1787 38.3635 19.1787C43.3974 19.1787 47.2134 20.3154 49.8115 22.5888C52.4909 24.7809 53.8305 27.8256 53.8305 31.7228C53.8305 35.7012 52.4909 38.8271 49.8115 41.1004Z" fill="#202348"/>
    </g>
    <g opacity="0.85">
    <path d="M111.388 95.2957C101.321 95.2957 93.5668 91.4797 88.1269 83.8477C82.6871 76.1346 79.9672 65.1737 79.9672 50.9652C79.9672 36.5943 82.6871 25.674 88.1269 18.2044C93.5668 10.7348 101.321 7 111.388 7C121.537 7 129.291 10.7348 134.65 18.2044C140.089 25.674 142.809 36.5537 142.809 50.8434C142.809 65.1331 140.089 76.1346 134.65 83.8477C129.291 91.4797 121.537 95.2957 111.388 95.2957ZM111.388 82.3863C116.909 82.3863 121.009 79.8694 123.689 74.8355C126.368 69.7204 127.708 61.7231 127.708 50.8434C127.708 39.9637 126.368 32.0882 123.689 27.2167C121.009 22.264 116.909 19.7877 111.388 19.7877C105.948 19.7877 101.848 22.264 99.0878 27.2167C96.4085 32.0882 95.0688 39.9637 95.0688 50.8434C95.0688 61.7231 96.4085 69.7204 99.0878 74.8355C101.848 79.8694 105.948 82.3863 111.388 82.3863Z" fill="url(#paint1_radial_1718_39429)"/>
    <path fill-rule="evenodd" clip-rule="evenodd" d="M38.3635 95.2957C28.2958 95.2957 20.4202 93.1442 14.7368 88.841C9.1346 84.5379 6.3335 78.5703 6.3335 70.9383C6.3335 64.9301 8.1603 59.9369 11.8139 55.9585C14.4124 53.129 17.5654 51.1209 21.2727 49.9341C18.1412 48.5786 15.4754 46.6084 13.2754 44.0233C10.1089 40.2073 8.52567 35.5794 8.52567 30.1396C8.52567 22.9135 11.1644 17.2707 16.4418 13.2111C21.8005 9.07038 29.1077 7 38.3635 7C47.7006 7 55.0078 9.07038 60.2852 13.2111C65.6439 17.2707 68.3232 22.9135 68.3232 30.1396C68.3232 35.5794 66.7806 40.2479 63.6953 44.1451C61.6635 46.7809 59.1303 48.7297 56.0957 49.9913C59.7326 51.2188 62.7935 53.2485 65.2785 56.0803C68.7698 59.9775 70.5154 64.9301 70.5154 70.9383C70.5154 78.5703 67.6737 84.5379 61.9903 88.841C56.3881 93.1442 48.5125 95.2957 38.3635 95.2957ZM51.6383 79.8288C48.7155 82.0209 44.2905 83.117 38.3635 83.117C32.5178 83.117 28.0928 82.0209 25.0887 79.8288C22.1658 77.5554 20.7044 74.2266 20.7044 69.8422C20.7044 65.4579 22.1658 62.1696 25.0887 59.9774C28.0928 57.7853 32.5178 56.6892 38.3635 56.6892C44.2905 56.6892 48.7155 57.7853 51.6383 59.9774C54.5612 62.1696 56.0227 65.4579 56.0227 69.8422C56.0227 74.2266 54.5612 77.5554 51.6383 79.8288ZM49.8115 41.1004C47.2134 43.3738 43.3974 44.5105 38.3635 44.5105C33.4109 44.5105 29.5949 43.3738 26.9155 41.1004C24.3174 38.8271 23.0183 35.7012 23.0183 31.7228C23.0183 27.8256 24.3174 24.7809 26.9155 22.5888C29.5949 20.3154 33.4109 19.1787 38.3635 19.1787C43.3974 19.1787 47.2134 20.3154 49.8115 22.5888C52.4909 24.7809 53.8305 27.8256 53.8305 31.7228C53.8305 35.7012 52.4909 38.8271 49.8115 41.1004Z" fill="url(#paint2_radial_1718_39429)"/>
    </g>
    <g style="mix-blend-mode:color-dodge">
    <path d="M133.431 19.0788L133.437 19.0875C138.613 26.1948 141.309 36.7088 141.309 50.8434C141.309 64.9732 138.615 75.6226 133.424 82.9832L133.422 82.9858C128.372 90.1782 121.099 93.7958 111.388 93.7958C101.765 93.7958 94.4857 90.1823 89.3511 82.9809C84.1602 75.6193 81.4672 65.0101 81.4672 50.9652C81.4672 36.7471 84.1643 26.1936 89.3395 19.0875C94.4688 12.0442 101.75 8.49999 111.388 8.49999C121.112 8.49999 128.386 12.0471 133.431 19.0788ZM125.013 75.5403L125.018 75.5315C127.87 70.0855 129.208 61.7869 129.208 50.8434C129.208 39.9128 127.874 31.7171 125.006 26.4982C123.562 23.8307 121.695 21.7591 119.38 20.3609C117.062 18.961 114.38 18.2877 111.388 18.2877C108.433 18.2877 105.772 18.9631 103.458 20.3609C101.146 21.7569 99.2614 23.8242 97.7776 26.4864L97.7735 26.4938C94.9032 31.7124 93.5688 39.9097 93.5688 50.8434C93.5688 61.7869 94.9064 70.0855 97.7591 75.5315L97.7657 75.5442L97.7726 75.5567C99.254 78.258 101.137 80.3579 103.449 81.7769C105.764 83.1986 108.428 83.8863 111.388 83.8863C114.384 83.8863 117.07 83.2007 119.389 81.7769C121.706 80.3548 123.571 78.249 125.013 75.5403ZM21.73 51.3627L25.5352 50.1447L21.8686 48.5576C18.9495 47.2941 16.4731 45.4641 14.4239 43.0584C11.5068 39.5397 10.0257 35.2625 10.0257 30.1396C10.0257 23.3334 12.4829 18.1489 17.3564 14.4001L17.359 14.3981C22.3735 10.5232 29.3194 8.49999 38.3635 8.49999C47.4942 8.49999 54.4324 10.5255 59.3593 14.3913L59.3693 14.3991L59.3795 14.4068C64.3325 18.159 66.8232 23.3424 66.8232 30.1396C66.8232 35.2754 65.3746 39.6073 62.5192 43.2141L62.5132 43.2217L62.5073 43.2294C60.633 45.6608 58.3098 47.4464 55.5199 48.6063L51.8375 50.1372L55.616 51.4126C59.0076 52.5573 61.8436 54.4402 64.1511 57.0696L64.1561 57.0754L64.1613 57.0811C67.3696 60.6626 69.0154 65.241 69.0154 70.9383C69.0154 78.1391 66.364 83.648 61.0848 87.6451L61.0765 87.6515C55.8291 91.6821 48.3219 93.7958 38.3635 93.7958C28.4941 93.7958 20.9809 91.6853 15.6465 87.6484C10.4496 83.6547 7.83349 78.1456 7.83349 70.9383C7.83349 65.2603 9.54852 60.6428 12.9187 56.9731C15.3386 54.3381 18.2673 52.4711 21.73 51.3627ZM52.5383 81.0288L52.5489 81.0209L52.5593 81.0128C55.9168 78.4013 57.5227 74.5939 57.5227 69.8422C57.5227 65.0919 55.9165 61.3111 52.5383 58.7775C49.2386 56.3026 44.4292 55.1892 38.3635 55.1892C32.3689 55.1892 27.5746 56.3065 24.2045 58.7658L24.1966 58.7716L24.1887 58.7775C20.8106 61.3111 19.2044 65.0919 19.2044 69.8422C19.2044 74.5939 20.8102 78.4013 24.1678 81.0128L24.186 81.0269L24.2045 81.0405C27.5746 83.4997 32.3689 84.617 38.3635 84.617C44.4292 84.617 49.2386 83.5036 52.5383 81.0288ZM25.9278 42.2293L25.9364 42.2368L25.9451 42.2442C28.988 44.8261 33.1993 46.0105 38.3635 46.0105C43.5926 46.0105 47.8177 44.8333 50.7907 42.2368C53.8468 39.6394 55.3305 36.0724 55.3305 31.7228C55.3305 27.4485 53.8417 23.9575 50.7805 21.4435C47.8081 18.8532 43.5866 17.6787 38.3635 17.6787C33.2002 17.6787 28.9895 18.8627 25.9467 21.4437C22.9602 23.9643 21.5184 27.4567 21.5184 31.7228C21.5184 36.0607 22.9529 39.6263 25.9278 42.2293Z" fill="url(#paint3_linear_1718_39429)"/>
    <path d="M133.431 19.0788L133.437 19.0875C138.613 26.1948 141.309 36.7088 141.309 50.8434C141.309 64.9732 138.615 75.6226 133.424 82.9832L133.422 82.9858C128.372 90.1782 121.099 93.7958 111.388 93.7958C101.765 93.7958 94.4857 90.1823 89.3511 82.9809C84.1602 75.6193 81.4672 65.0101 81.4672 50.9652C81.4672 36.7471 84.1643 26.1936 89.3395 19.0875C94.4688 12.0442 101.75 8.49999 111.388 8.49999C121.112 8.49999 128.386 12.0471 133.431 19.0788ZM125.013 75.5403L125.018 75.5315C127.87 70.0855 129.208 61.7869 129.208 50.8434C129.208 39.9128 127.874 31.7171 125.006 26.4982C123.562 23.8307 121.695 21.7591 119.38 20.3609C117.062 18.961 114.38 18.2877 111.388 18.2877C108.433 18.2877 105.772 18.9631 103.458 20.3609C101.146 21.7569 99.2614 23.8242 97.7776 26.4864L97.7735 26.4938C94.9032 31.7124 93.5688 39.9097 93.5688 50.8434C93.5688 61.7869 94.9064 70.0855 97.7591 75.5315L97.7657 75.5442L97.7726 75.5567C99.254 78.258 101.137 80.3579 103.449 81.7769C105.764 83.1986 108.428 83.8863 111.388 83.8863C114.384 83.8863 117.07 83.2007 119.389 81.7769C121.706 80.3548 123.571 78.249 125.013 75.5403ZM21.73 51.3627L25.5352 50.1447L21.8686 48.5576C18.9495 47.2941 16.4731 45.4641 14.4239 43.0584C11.5068 39.5397 10.0257 35.2625 10.0257 30.1396C10.0257 23.3334 12.4829 18.1489 17.3564 14.4001L17.359 14.3981C22.3735 10.5232 29.3194 8.49999 38.3635 8.49999C47.4942 8.49999 54.4324 10.5255 59.3593 14.3913L59.3693 14.3991L59.3795 14.4068C64.3325 18.159 66.8232 23.3424 66.8232 30.1396C66.8232 35.2754 65.3746 39.6073 62.5192 43.2141L62.5132 43.2217L62.5073 43.2294C60.633 45.6608 58.3098 47.4464 55.5199 48.6063L51.8375 50.1372L55.616 51.4126C59.0076 52.5573 61.8436 54.4402 64.1511 57.0696L64.1561 57.0754L64.1613 57.0811C67.3696 60.6626 69.0154 65.241 69.0154 70.9383C69.0154 78.1391 66.364 83.648 61.0848 87.6451L61.0765 87.6515C55.8291 91.6821 48.3219 93.7958 38.3635 93.7958C28.4941 93.7958 20.9809 91.6853 15.6465 87.6484C10.4496 83.6547 7.83349 78.1456 7.83349 70.9383C7.83349 65.2603 9.54852 60.6428 12.9187 56.9731C15.3386 54.3381 18.2673 52.4711 21.73 51.3627ZM52.5383 81.0288L52.5489 81.0209L52.5593 81.0128C55.9168 78.4013 57.5227 74.5939 57.5227 69.8422C57.5227 65.0919 55.9165 61.3111 52.5383 58.7775C49.2386 56.3026 44.4292 55.1892 38.3635 55.1892C32.3689 55.1892 27.5746 56.3065 24.2045 58.7658L24.1966 58.7716L24.1887 58.7775C20.8106 61.3111 19.2044 65.0919 19.2044 69.8422C19.2044 74.5939 20.8102 78.4013 24.1678 81.0128L24.186 81.0269L24.2045 81.0405C27.5746 83.4997 32.3689 84.617 38.3635 84.617C44.4292 84.617 49.2386 83.5036 52.5383 81.0288ZM25.9278 42.2293L25.9364 42.2368L25.9451 42.2442C28.988 44.8261 33.1993 46.0105 38.3635 46.0105C43.5926 46.0105 47.8177 44.8333 50.7907 42.2368C53.8468 39.6394 55.3305 36.0724 55.3305 31.7228C55.3305 27.4485 53.8417 23.9575 50.7805 21.4435C47.8081 18.8532 43.5866 17.6787 38.3635 17.6787C33.2002 17.6787 28.9895 18.8627 25.9467 21.4437C22.9602 23.9643 21.5184 27.4567 21.5184 31.7228C21.5184 36.0607 22.9529 39.6263 25.9278 42.2293Z" stroke="url(#paint4_linear_1718_39429)" stroke-width="2.99999"/>
    </g>
    <defs>
    <filter id="filter0_d_1718_39429" x="0.0934963" y="0.76" width="148.956" height="100.776" filterUnits="userSpaceOnUse" color-interpolation-filters="sRGB">
    <feFlood flood-opacity="0" result="BackgroundImageFix"/>
    <feColorMatrix in="SourceAlpha" type="matrix" values="0 0 0 0 0 0 0 0 0 0 0 0 0 0 0 0 0 0 127 0" result="hardAlpha"/>
    <feOffset/>
    <feGaussianBlur stdDeviation="3.12"/>
    <feComposite in2="hardAlpha" operator="out"/>
    <feColorMatrix type="matrix" values="0 0 0 0 1 0 0 0 0 1 0 0 0 0 1 0 0 0 0.25 0"/>
    <feBlend mode="normal" in2="BackgroundImageFix" result="effect1_dropShadow_1718_39429"/>
    <feBlend mode="normal" in="SourceGraphic" in2="effect1_dropShadow_1718_39429" result="shape"/>
    </filter>
    <radialGradient id="paint0_radial_1718_39429" cx="0" cy="0" r="1" gradientUnits="userSpaceOnUse" gradientTransform="translate(23.2085 104.624) rotate(22.4861) scale(82.1859 55.4365)">
    <stop stop-color="white"/>
    <stop offset="1" stop-color="white" stop-opacity="0.62"/>
    </radialGradient>
    <radialGradient id="paint1_radial_1718_39429" cx="0" cy="0" r="1" gradientUnits="userSpaceOnUse" gradientTransform="translate(23.393 19.9948) rotate(40.056) scale(100.295 94.2986)">
    <stop stop-color="white"/>
    <stop offset="1" stop-color="white" stop-opacity="0.62"/>
    </radialGradient>
    <radialGradient id="paint2_radial_1718_39429" cx="0" cy="0" r="1" gradientUnits="userSpaceOnUse" gradientTransform="translate(23.393 19.9948) rotate(40.056) scale(100.295 94.2986)">
    <stop stop-color="white"/>
    <stop offset="1" stop-color="white" stop-opacity="0.62"/>
    </radialGradient>
    <linearGradient id="paint3_linear_1718_39429" x1="142.809" y1="95.0584" x2="60.0431" y2="-6.92121" gradientUnits="userSpaceOnUse">
    <stop stop-color="#79AEE7"/>
    <stop offset="0.331593" stop-color="#4960A7"/>
    <stop offset="1" stop-color="#1B2030" stop-opacity="0.25"/>
    </linearGradient>
    <linearGradient id="paint4_linear_1718_39429" x1="22.6998" y1="91.2266" x2="79.651" y2="4.68993" gradientUnits="userSpaceOnUse">
    <stop stop-color="#EBF8FC"/>
    <stop offset="0.295134" stop-color="#7FB8EF"/>
    <stop offset="0.57639" stop-color="#5142F1"/>
    <stop offset="1" stop-color="#1D1D29"/>
    </linearGradient>
    </defs>
    </svg>
    