<svg xmlns="http://www.w3.org/2000/svg" width="49" height="49" fill="none" viewBox="0 0 49 49">
  <path fill="url(#a)" fill-rule="evenodd" d="M.07 12.357 41.94.24l2.22 7.725-17.619 5.099h20.527c.553 0 1.001.45 1.001 1.005v33.165c0 .555-.448 1.005-1.001 1.005H7.01c-.553 0-1.002-.45-1.002-1.005V19.006L2.29 20.082.07 12.357ZM20.53 40.2c0 .554.448 1.005 1 1.005h11.017c.553 0 1.001-.45 1.001-1.005v-1.041c0-.555-.448-1.005-1.001-1.005h-2.464c-.553 0-1.002-.45-1.002-1.005v-15.04c0-.555-.448-1.005-1.001-1.005h-1.432a.999.999 0 0 0-.504.136l-4.646 2.71c-.309.18-.498.51-.498.869v1.16a1 1 0 0 0 1.501.871l2.79-1.613V37.15c0 .555-.45 1.005-1.002 1.005H21.53c-.553 0-1.002.45-1.002 1.005v1.04Z" clip-rule="evenodd"/>
  <defs>
    <radialGradient id="a" cx="0" cy="0" r="1" gradientTransform="matrix(43.33132 40.0987 -33.90488 36.63817 4.454 6.295)" gradientUnits="userSpaceOnUse">
      <stop stop-color="#1F2348" stop-opacity=".1"/>
      <stop offset="1" stop-color="#1F2348" stop-opacity=".4"/>
    </radialGradient>
  </defs>
</svg>
