<svg xmlns="http://www.w3.org/2000/svg" width="48" height="48" fill="none" viewBox="0 0 48 48">
  <path fill="url(#a)" d="M32.399 8.263c1.989 0 3.6 1.628 3.6 3.632 0 2.006-1.611 3.631-3.6 3.631-1.987 0-3.6-1.625-3.6-3.631 0-2.004 1.613-3.632 3.6-3.632ZM28.799 1a11.948 11.948 0 0 0-8.484 3.546 12.166 12.166 0 0 0-3.515 8.56c0 4.116 2.041 7.747 5.137 9.926-3.793.363-8.064 1.235-12.336 3.389C2.4 30.052 0 25.21 0 25.21S2.4 47 16.8 47h14.4s11.999 0 11.999-12.104c0-7.263-7.2-9.685-4.8-14.526C48 20.37 48 11.895 48 11.895c-2.4 1.212-5.377 1.212-7.2.363C40.344 5.964 35.135 1 28.8 1Z"/>
  <defs>
    <radialGradient id="a" cx="0" cy="0" r="1" gradientTransform="matrix(43.33137 38.42773 -32.35606 36.48492 4.385 6.803)" gradientUnits="userSpaceOnUse">
      <stop stop-color="#1F2348" stop-opacity=".1"/>
      <stop offset="1" stop-color="#1F2348" stop-opacity=".4"/>
    </radialGradient>
  </defs>
</svg>
