<svg xmlns="http://www.w3.org/2000/svg" width="72" height="64" fill="none" viewBox="0 0 72 64">
  <path fill="url(#a)" d="m41.973.859 5.462 2.844c.21.114.453.163.699.149l8.022-.54c2.516-.157 4.317.533 5.64 2.094 1.324 1.562 2.187 4.174 2.187 7.98 0 2.251.197 3.697.897 4.958.706 1.267 1.714 2.133 3.178 3.676 1.912 2.004 2.392 2.646 2.672 6.635l1.062 15.369c.164 2.27.329 3.922.083 5.348-.248 1.417-.844 2.721-2.488 4.522l-7.747 8.475c-2.2 2.406-5.613 1.555-8.244 1.14l-14.87-2.338c-1.644-.26-2.706-.896-3.399-1.714-.699-.812-1.088-1.867-1.083-3.11.028-3.88 1.597-3.087 4.511-3.082 2.596.007 5.131-.388 6.886-1.84 1.911-1.57 1.677-1.909 3.33-.354 1.69 1.59 4.137 2.194 6.652 2.194 2.516 0 4.88-.694 6.653-2.194 1.776-1.502 2.866-3.828 2.866-6.665l-.769-19.142c.11-1.847-1.978-1.847-1.87 0v19.142c0 2.205-.745 3.657-1.938 4.665-1.187 1.01-2.914 1.564-4.942 1.564-2.027 0-3.754-.556-4.946-1.564-1.187-1.008-1.879-2.46-1.927-4.665l-.58-24.57c-.057-2.135-2.063-1.37-2.063 0v24.57c0 1.871-.666 3.957-1.96 4.863-1.254.886-3.179 1.366-5.392 1.366-2.215 0-4.125-.494-5.387-1.366-1.267-.873-1.946-2.026-1.973-3.9l-.41-24.653c-.034-2.143-2.221-1.377-2.221 0v24.652c0 1.875-.712 3.028-1.974 3.9-1.259.873-3.178 1.367-5.39 1.367-2.209 0-4.125-.494-5.387-1.366-1.268-.873-1.967-2.026-1.967-3.9V24.846c.023-1.766-2.185-1.766-2.17 0L11.21 43.47c0 2.238-3.378 2.899-5.673 2.899-1.535 0-2.816-.694-3.837-2.092-1.015-1.4-1.7-3.52-1.7-6.133V21.697c0-2.638.378-4.67 1.131-5.993.748-1.322 1.782-2.074 3.735-2.379l6.811-1.05a1.33 1.33 0 0 0 .835-.485l4.982-6.26c.899-1.133 3.104-1.856 4.893-1.615l6.721.886c.308.04.625-.027.884-.191L36.015.785C37.94-.444 40.18-.083 41.973.86Z" opacity=".8"/>
  <g style="mix-blend-mode:screen">
    <path fill="url(#b)" fill-opacity=".6" d="m41.973.859 5.462 2.844c.21.114.453.163.699.149l8.022-.54c2.516-.157 4.317.533 5.64 2.094 1.324 1.562 2.187 4.174 2.187 7.98 0 2.251.197 3.697.897 4.958.706 1.267 1.714 2.133 3.178 3.676 1.912 2.004 2.392 2.646 2.672 6.635l1.062 15.369c.164 2.27.329 3.922.083 5.348-.248 1.417-.844 2.721-2.488 4.522l-7.747 8.475c-2.2 2.406-5.613 1.555-8.244 1.14l-14.87-2.338c-1.644-.26-2.706-.896-3.399-1.714-.699-.812-1.088-1.867-1.083-3.11.028-3.88 1.597-3.087 4.511-3.082 2.596.007 5.131-.388 6.886-1.84 1.911-1.57 1.677-1.909 3.33-.354 1.69 1.59 4.137 2.194 6.652 2.194 2.516 0 4.88-.694 6.653-2.194 1.776-1.502 2.866-3.828 2.866-6.665l-.769-19.142c.11-1.847-1.978-1.847-1.87 0v19.142c0 2.205-.745 3.657-1.938 4.665-1.187 1.01-2.914 1.564-4.942 1.564-2.027 0-3.754-.556-4.946-1.564-1.187-1.008-1.879-2.46-1.927-4.665l-.58-24.57c-.057-2.135-2.063-1.37-2.063 0v24.57c0 1.871-.666 3.957-1.96 4.863-1.254.886-3.179 1.366-5.392 1.366-2.215 0-4.125-.494-5.387-1.366-1.267-.873-1.946-2.026-1.973-3.9l-.41-24.653c-.034-2.143-2.221-1.377-2.221 0v24.652c0 1.875-.712 3.028-1.974 3.9-1.259.873-3.178 1.367-5.39 1.367-2.209 0-4.125-.494-5.387-1.366-1.268-.873-1.967-2.026-1.967-3.9V24.846c.023-1.766-2.185-1.766-2.17 0L11.21 43.47c0 2.238-3.378 2.899-5.673 2.899-1.535 0-2.816-.694-3.837-2.092-1.015-1.4-1.7-3.52-1.7-6.133V21.697c0-2.638.378-4.67 1.131-5.993.748-1.322 1.782-2.074 3.735-2.379l6.811-1.05a1.33 1.33 0 0 0 .835-.485l4.982-6.26c.899-1.133 3.104-1.856 4.893-1.615l6.721.886c.308.04.625-.027.884-.191L36.015.785C37.94-.444 40.18-.083 41.973.86Z"/>
    <path fill="#1F2348" fill-opacity=".2" d="m41.973.859 5.462 2.844c.21.114.453.163.699.149l8.022-.54c2.516-.157 4.317.533 5.64 2.094 1.324 1.562 2.187 4.174 2.187 7.98 0 2.251.197 3.697.897 4.958.706 1.267 1.714 2.133 3.178 3.676 1.912 2.004 2.392 2.646 2.672 6.635l1.062 15.369c.164 2.27.329 3.922.083 5.348-.248 1.417-.844 2.721-2.488 4.522l-7.747 8.475c-2.2 2.406-5.613 1.555-8.244 1.14l-14.87-2.338c-1.644-.26-2.706-.896-3.399-1.714-.699-.812-1.088-1.867-1.083-3.11.028-3.88 1.597-3.087 4.511-3.082 2.596.007 5.131-.388 6.886-1.84 1.911-1.57 1.677-1.909 3.33-.354 1.69 1.59 4.137 2.194 6.652 2.194 2.516 0 4.88-.694 6.653-2.194 1.776-1.502 2.866-3.828 2.866-6.665l-.769-19.142c.11-1.847-1.978-1.847-1.87 0v19.142c0 2.205-.745 3.657-1.938 4.665-1.187 1.01-2.914 1.564-4.942 1.564-2.027 0-3.754-.556-4.946-1.564-1.187-1.008-1.879-2.46-1.927-4.665l-.58-24.57c-.057-2.135-2.063-1.37-2.063 0v24.57c0 1.871-.666 3.957-1.96 4.863-1.254.886-3.179 1.366-5.392 1.366-2.215 0-4.125-.494-5.387-1.366-1.267-.873-1.946-2.026-1.973-3.9l-.41-24.653c-.034-2.143-2.221-1.377-2.221 0v24.652c0 1.875-.712 3.028-1.974 3.9-1.259.873-3.178 1.367-5.39 1.367-2.209 0-4.125-.494-5.387-1.366-1.268-.873-1.967-2.026-1.967-3.9V24.846c.023-1.766-2.185-1.766-2.17 0L11.21 43.47c0 2.238-3.378 2.899-5.673 2.899-1.535 0-2.816-.694-3.837-2.092-1.015-1.4-1.7-3.52-1.7-6.133V21.697c0-2.638.378-4.67 1.131-5.993.748-1.322 1.782-2.074 3.735-2.379l6.811-1.05a1.33 1.33 0 0 0 .835-.485l4.982-6.26c.899-1.133 3.104-1.856 4.893-1.615l6.721.886c.308.04.625-.027.884-.191L36.015.785C37.94-.444 40.18-.083 41.973.86Z" style="mix-blend-mode:color-burn"/>
  </g>
  <path fill="url(#c)" d="m41.973.859 5.462 2.844c.21.114.453.163.699.149l8.022-.54c2.516-.157 4.317.533 5.64 2.094 1.324 1.562 2.187 4.174 2.187 7.98 0 2.251.197 3.697.897 4.958.706 1.267 1.714 2.133 3.178 3.676 1.912 2.004 2.392 2.646 2.672 6.635l1.062 15.369c.164 2.27.329 3.922.083 5.348-.248 1.417-.844 2.721-2.488 4.522l-7.747 8.475c-2.2 2.406-5.613 1.555-8.244 1.14l-14.87-2.338c-1.644-.26-2.706-.896-3.399-1.714-.699-.812-1.088-1.867-1.083-3.11.028-3.88 1.597-3.087 4.511-3.082 2.596.007 5.131-.388 6.886-1.84 1.911-1.57 1.677-1.909 3.33-.354 1.69 1.59 4.137 2.194 6.652 2.194 2.516 0 4.88-.694 6.653-2.194 1.776-1.502 2.866-3.828 2.866-6.665l-.769-19.142c.11-1.847-1.978-1.847-1.87 0v19.142c0 2.205-.745 3.657-1.938 4.665-1.187 1.01-2.914 1.564-4.942 1.564-2.027 0-3.754-.556-4.946-1.564-1.187-1.008-1.879-2.46-1.927-4.665l-.58-24.57c-.057-2.135-2.063-1.37-2.063 0v24.57c0 1.871-.666 3.957-1.96 4.863-1.254.886-3.179 1.366-5.392 1.366-2.215 0-4.125-.494-5.387-1.366-1.267-.873-1.946-2.026-1.973-3.9l-.41-24.653c-.034-2.143-2.221-1.377-2.221 0v24.652c0 1.875-.712 3.028-1.974 3.9-1.259.873-3.178 1.367-5.39 1.367-2.209 0-4.125-.494-5.387-1.366-1.268-.873-1.967-2.026-1.967-3.9V24.846c.023-1.766-2.185-1.766-2.17 0L11.21 43.47c0 2.238-3.378 2.899-5.673 2.899-1.535 0-2.816-.694-3.837-2.092-1.015-1.4-1.7-3.52-1.7-6.133V21.697c0-2.638.378-4.67 1.131-5.993.748-1.322 1.782-2.074 3.735-2.379l6.811-1.05a1.33 1.33 0 0 0 .835-.485l4.982-6.26c.899-1.133 3.104-1.856 4.893-1.615l6.721.886c.308.04.625-.027.884-.191L36.015.785C37.94-.444 40.18-.083 41.973.86Z" style="mix-blend-mode:color-dodge"/>
  <defs>
    <linearGradient id="b" x1="5.7" x2="57.075" y1="2.4" y2="68.412" gradientUnits="userSpaceOnUse">
      <stop stop-color="#CCE8FE"/>
      <stop offset=".242" stop-color="#CDA0FF"/>
      <stop offset=".4" stop-color="#8489F5"/>
      <stop offset=".713" stop-color="#CDF1FF"/>
      <stop offset="1" stop-color="#B591E9"/>
    </linearGradient>
    <linearGradient id="c" x1="72" x2="11.058" y1="63.828" y2="9.175" gradientUnits="userSpaceOnUse">
      <stop stop-color="#79AEE7"/>
      <stop offset=".332" stop-color="#4960A7"/>
      <stop offset="1" stop-color="#1B2030" stop-opacity=".25"/>
    </linearGradient>
    <radialGradient id="a" cx="0" cy="0" r="1" gradientTransform="matrix(40.5 46.78367 -44.18926 38.25405 9 9.42)" gradientUnits="userSpaceOnUse">
      <stop stop-color="#fff"/>
      <stop offset="1" stop-color="#fff" stop-opacity=".62"/>
    </radialGradient>
  </defs>
</svg>
