<svg xmlns="http://www.w3.org/2000/svg" width="144" height="136" fill="none" viewBox="0 0 144 136">
    <path fill="url(#a)" d="m77.973 32.859 5.462 2.844c.21.114.453.163.699.149l8.022-.54c2.516-.157 4.317.533 5.64 2.094 1.324 1.562 2.187 4.174 2.187 7.98 0 2.251.197 3.697.897 4.958.706 1.267 1.714 2.133 3.178 3.676 1.912 2.004 2.392 2.646 2.672 6.635l1.062 15.369c.164 2.27.329 3.922.083 5.348-.248 1.417-.844 2.721-2.488 4.522l-7.747 8.475c-2.2 2.406-5.613 1.555-8.244 1.14l-14.87-2.338c-1.644-.26-2.706-.896-3.399-1.714-.699-.812-1.088-1.867-1.083-3.11.028-3.88 1.597-3.087 4.511-3.082 2.596.007 5.131-.388 6.886-1.84 1.912-1.57 1.677-1.909 3.33-.354 1.69 1.59 4.137 2.194 6.653 2.194 2.515 0 4.879-.694 6.652-2.194 1.776-1.502 2.866-3.828 2.866-6.665l-.769-19.143c.111-1.846-1.978-1.846-1.87 0v19.143c0 2.205-.745 3.657-1.938 4.665-1.187 1.01-2.914 1.564-4.941 1.564-2.028 0-3.755-.556-4.947-1.564-1.187-1.008-1.879-2.46-1.927-4.665l-.58-24.57c-.057-2.135-2.063-1.37-2.063 0v24.57c0 1.871-.666 3.957-1.96 4.863-1.254.886-3.179 1.365-5.392 1.365-2.215 0-4.125-.493-5.387-1.365-1.267-.873-1.946-2.026-1.973-3.9l-.41-24.653c-.034-2.143-2.221-1.377-2.221 0v24.652c0 1.875-.712 3.028-1.974 3.9-1.259.873-3.178 1.367-5.39 1.367-2.209 0-4.125-.494-5.387-1.366-1.268-.873-1.967-2.026-1.967-3.9V56.846c.023-1.766-2.185-1.766-2.17 0L47.21 75.47c0 2.238-3.378 2.899-5.673 2.899-1.535 0-2.816-.694-3.837-2.092-1.015-1.4-1.7-3.52-1.7-6.133V53.697c0-2.638.378-4.67 1.131-5.993.748-1.322 1.782-2.074 3.735-2.379l6.811-1.05a1.33 1.33 0 0 0 .835-.485l4.982-6.26c.899-1.133 3.104-1.856 4.893-1.615l6.721.886c.308.04.625-.027.884-.191l6.023-3.825c1.925-1.229 4.165-.868 5.958.074Z" opacity=".8"/>
    <g style="mix-blend-mode:screen">
      <g filter="url(#b)">
        <path fill="url(#c)" fill-opacity=".6" d="m77.973 32.859 5.462 2.844c.21.114.453.163.699.149l8.022-.54c2.516-.157 4.317.533 5.64 2.094 1.324 1.562 2.187 4.174 2.187 7.98 0 2.251.197 3.697.897 4.958.706 1.267 1.714 2.133 3.178 3.676 1.912 2.004 2.392 2.646 2.672 6.635l1.062 15.369c.164 2.27.329 3.922.083 5.348-.248 1.417-.844 2.721-2.488 4.522l-7.747 8.475c-2.2 2.406-5.613 1.555-8.244 1.14l-14.87-2.338c-1.644-.26-2.706-.896-3.399-1.714-.699-.812-1.088-1.867-1.083-3.11.028-3.88 1.597-3.087 4.511-3.082 2.596.007 5.131-.388 6.886-1.84 1.912-1.57 1.677-1.909 3.33-.354 1.69 1.59 4.137 2.194 6.653 2.194 2.515 0 4.879-.694 6.652-2.194 1.776-1.502 2.866-3.828 2.866-6.665l-.769-19.143c.111-1.846-1.978-1.846-1.87 0v19.143c0 2.205-.745 3.657-1.938 4.665-1.187 1.01-2.914 1.564-4.941 1.564-2.028 0-3.755-.556-4.947-1.564-1.187-1.008-1.879-2.46-1.927-4.665l-.58-24.57c-.057-2.135-2.063-1.37-2.063 0v24.57c0 1.871-.666 3.957-1.96 4.863-1.254.886-3.179 1.365-5.392 1.365-2.215 0-4.125-.493-5.387-1.365-1.267-.873-1.946-2.026-1.973-3.9l-.41-24.653c-.034-2.143-2.221-1.377-2.221 0v24.652c0 1.875-.712 3.028-1.974 3.9-1.259.873-3.178 1.367-5.39 1.367-2.209 0-4.125-.494-5.387-1.366-1.268-.873-1.967-2.026-1.967-3.9V56.846c.023-1.766-2.185-1.766-2.17 0L47.21 75.47c0 2.238-3.378 2.899-5.673 2.899-1.535 0-2.816-.694-3.837-2.092-1.015-1.4-1.7-3.52-1.7-6.133V53.697c0-2.638.378-4.67 1.131-5.993.748-1.322 1.782-2.074 3.735-2.379l6.811-1.05a1.33 1.33 0 0 0 .835-.485l4.982-6.26c.899-1.133 3.104-1.856 4.893-1.615l6.721.886c.308.04.625-.027.884-.191l6.023-3.825c1.925-1.229 4.165-.868 5.958.074Z"/>
        <path fill="#1F2348" fill-opacity=".2" d="m77.973 32.859 5.462 2.844c.21.114.453.163.699.149l8.022-.54c2.516-.157 4.317.533 5.64 2.094 1.324 1.562 2.187 4.174 2.187 7.98 0 2.251.197 3.697.897 4.958.706 1.267 1.714 2.133 3.178 3.676 1.912 2.004 2.392 2.646 2.672 6.635l1.062 15.369c.164 2.27.329 3.922.083 5.348-.248 1.417-.844 2.721-2.488 4.522l-7.747 8.475c-2.2 2.406-5.613 1.555-8.244 1.14l-14.87-2.338c-1.644-.26-2.706-.896-3.399-1.714-.699-.812-1.088-1.867-1.083-3.11.028-3.88 1.597-3.087 4.511-3.082 2.596.007 5.131-.388 6.886-1.84 1.912-1.57 1.677-1.909 3.33-.354 1.69 1.59 4.137 2.194 6.653 2.194 2.515 0 4.879-.694 6.652-2.194 1.776-1.502 2.866-3.828 2.866-6.665l-.769-19.143c.111-1.846-1.978-1.846-1.87 0v19.143c0 2.205-.745 3.657-1.938 4.665-1.187 1.01-2.914 1.564-4.941 1.564-2.028 0-3.755-.556-4.947-1.564-1.187-1.008-1.879-2.46-1.927-4.665l-.58-24.57c-.057-2.135-2.063-1.37-2.063 0v24.57c0 1.871-.666 3.957-1.96 4.863-1.254.886-3.179 1.365-5.392 1.365-2.215 0-4.125-.493-5.387-1.365-1.267-.873-1.946-2.026-1.973-3.9l-.41-24.653c-.034-2.143-2.221-1.377-2.221 0v24.652c0 1.875-.712 3.028-1.974 3.9-1.259.873-3.178 1.367-5.39 1.367-2.209 0-4.125-.494-5.387-1.366-1.268-.873-1.967-2.026-1.967-3.9V56.846c.023-1.766-2.185-1.766-2.17 0L47.21 75.47c0 2.238-3.378 2.899-5.673 2.899-1.535 0-2.816-.694-3.837-2.092-1.015-1.4-1.7-3.52-1.7-6.133V53.697c0-2.638.378-4.67 1.131-5.993.748-1.322 1.782-2.074 3.735-2.379l6.811-1.05a1.33 1.33 0 0 0 .835-.485l4.982-6.26c.899-1.133 3.104-1.856 4.893-1.615l6.721.886c.308.04.625-.027.884-.191l6.023-3.825c1.925-1.229 4.165-.868 5.958.074Z" style="mix-blend-mode:color-burn"/>
      </g>
      <path stroke="url(#d)" stroke-opacity=".3" stroke-width="1.516" d="M77.623 33.53h-.002c-1.66-.871-3.589-1.134-5.198-.106l-.002.001-6.023 3.825h-.001a2.1 2.1 0 0 1-1.385.303h-.003l-6.721-.887h-.002c-.765-.103-1.647-.001-2.442.26-.807.267-1.431.666-1.756 1.075v.001l-4.983 6.26v.002c-.32.4-.79.682-1.315.76l-6.807 1.05c-.905.141-1.54.377-2.02.693-.476.311-.844.73-1.172 1.31l-.001.002c-.656 1.152-1.032 3.024-1.032 5.618v16.448c0 2.489.653 4.443 1.554 5.687.898 1.229 1.964 1.78 3.225 1.78 1.094 0 2.408-.16 3.42-.557 1.036-.408 1.495-.943 1.495-1.584v-.019l.466-18.612c-.002-.598.185-1.12.538-1.501a1.78 1.78 0 0 1 2.616 0c.354.385.539.911.532 1.513v20.516c0 .842.156 1.472.42 1.973.264.5.662.92 1.219 1.304h.001c1.093.756 2.84 1.232 4.955 1.232 2.12 0 3.87-.477 4.96-1.231.555-.385.955-.806 1.222-1.307.266-.502.425-1.131.425-1.97V52.715c0-1.09.846-1.914 1.726-2.067.474-.082 1.012.021 1.425.431.399.396.575.971.585 1.624L77.623 33.53Zm0 0 5.458 2.842c.342.184.724.258 1.097.236h.007m-6.562-3.077 6.562 3.077m-9.632 49.415c2.635.007 5.4-.384 7.37-2.013.289-.237.573-.484.795-.678.124-.108.229-.2.304-.262a2.67 2.67 0 0 1 .31-.234c.017.01.039.023.066.042.18.12.427.343.853.745 1.888 1.774 4.558 2.4 7.172 2.4 2.648 0 5.2-.73 7.143-2.374 1.963-1.66 3.133-4.205 3.133-7.243v-.03l-.767-19.108c.028-.585-.113-1.11-.42-1.507a1.608 1.608 0 0 0-1.273-.64 1.61 1.61 0 0 0-1.273.64c-.31.4-.451.93-.421 1.523v19.122c0 2.006-.664 3.237-1.67 4.086l-.001.002c-1.015.863-2.552 1.383-4.45 1.383-1.898 0-3.436-.52-4.457-1.384-.99-.84-1.615-2.07-1.66-4.104l-.58-24.57v-.003c-.017-.637-.181-1.201-.553-1.594a1.506 1.506 0 0 0-1.397-.445c-.876.164-1.628 1.019-1.628 2.06v24.569c0 .852-.153 1.75-.446 2.525-.296.785-.711 1.381-1.191 1.717l-.003.002c-1.078.762-2.827 1.227-4.954 1.227-2.122 0-3.863-.476-4.956-1.231v-.001c-.555-.382-.948-.801-1.211-1.303-.265-.504-.423-1.138-.436-1.985v-.001l-.41-24.651 7.013 32.56m-.002.758.002-.758m-.002.758h.001l.001-.758m-.002.758a30.076 30.076 0 0 1-1.338-.042c-.227-.01-.434-.02-.61-.025-.552-.014-.89.016-1.12.102-.173.065-.313.17-.435.461-.14.335-.241.895-.248 1.831m3.753-3.085c-.455 0-.878-.02-1.266-.04-2.1-.1-3.221-.152-3.245 3.122m.758.004-.758-.004m.758.004c-.005 1.074.33 1.949.9 2.612l.003.004c.557.658 1.444 1.218 2.94 1.455m-3.843-4.072v.003l-.758-.006m0 0 4.6 4.075m0 0-.118.749m.118-.749-3.517-.965c.693.818 1.755 1.453 3.4 1.714m.117-.749h.001m-.119.749.119-.749m-.119.749 14.87 2.338-14.751-3.087m0 0 14.869 2.339c.255.04.512.083.77.126 1.124.189 2.264.38 3.377.353 1.331-.033 2.505-.382 3.42-1.382l7.746-8.476m-30.182 7.04 32.483-11.18.747.13-.747-.129c-.218 1.245-.731 2.422-2.301 4.14m0 0 .56.51-.559-.51h-.001ZM84.185 36.607l8.018-.54m-8.018.54 8.018-.54m8.015 14.645-.001-.002c-.798-1.437-.992-3.047-.992-5.325 0-3.71-.844-6.117-2.007-7.49l3 12.817Zm0 0c.598 1.072 1.413 1.903 2.403 2.913.282.288.578.59.887.916l.002.001m-3.292-3.83 3.292 3.83m0 0c.965 1.012 1.468 1.583 1.801 2.351m-1.801-2.35 1.801 2.35M92.203 36.068h.002m-.002 0h.002m0 0c2.328-.144 3.876.487 5.013 1.828l-5.013-1.829Zm13.106 20.826c.338.781.523 1.824.663 3.813m-.663-3.813.663 3.813m0 0ZM83.289 82.815Z"/>
    </g>
    <defs>
      <linearGradient id="c" x1="41.7" x2="93.075" y1="34.4" y2="100.412" gradientUnits="userSpaceOnUse">
        <stop stop-color="#CCE8FE"/>
        <stop offset=".242" stop-color="#CDA0FF"/>
        <stop offset=".4" stop-color="#8489F5"/>
        <stop offset=".713" stop-color="#CDF1FF"/>
        <stop offset="1" stop-color="#B591E9"/>
      </linearGradient>
      <linearGradient id="d" x1="41.7" x2="93.075" y1="34.4" y2="100.412" gradientUnits="userSpaceOnUse">
        <stop stop-color="#CCE8FE"/>
        <stop offset=".242" stop-color="#CDA0FF"/>
        <stop offset=".4" stop-color="#8489F5"/>
        <stop offset=".713" stop-color="#CDF1FF"/>
        <stop offset="1" stop-color="#B591E9"/>
      </linearGradient>
      <linearGradient id="f" x1="108" x2="47.058" y1="95.828" y2="41.175" gradientUnits="userSpaceOnUse">
        <stop stop-color="#79AEE7"/>
        <stop offset=".332" stop-color="#4960A7"/>
        <stop offset="1" stop-color="#1B2030" stop-opacity=".25"/>
      </linearGradient>
      <linearGradient id="g" x1="44.634" x2="89.353" y1="93.05" y2="43.594" gradientUnits="userSpaceOnUse">
        <stop stop-color="#EBF8FC"/>
        <stop offset=".295" stop-color="#7FB8EF"/>
        <stop offset=".576" stop-color="#5142F1"/>
        <stop offset="1" stop-color="#1D1D29"/>
      </linearGradient>
      <filter id="b" width="72" height="66.72" x="36" y="32" color-interpolation-filters="sRGB" filterUnits="userSpaceOnUse">
        <feFlood flood-opacity="0" result="BackgroundImageFix"/>
        <feBlend in="SourceGraphic" in2="BackgroundImageFix" result="shape"/>
        <feColorMatrix in="SourceAlpha" result="hardAlpha" values="0 0 0 0 0 0 0 0 0 0 0 0 0 0 0 0 0 0 127 0"/>
        <feOffset dy="2.72"/>
        <feGaussianBlur stdDeviation="5.441"/>
        <feComposite in2="hardAlpha" k2="-1" k3="1" operator="arithmetic"/>
        <feColorMatrix values="0 0 0 0 0 0 0 0 0 0 0 0 0 0 0 0 0 0 0.05 0"/>
        <feBlend in2="shape" result="effect1_innerShadow_1734_26606"/>
      </filter>

      <radialGradient id="a" cx="0" cy="0" r="1" gradientTransform="matrix(40.5 46.78367 -44.18926 38.25405 45 41.42)" gradientUnits="userSpaceOnUse">
        <stop stop-color="#fff"/>
        <stop offset="1" stop-color="#fff" stop-opacity=".62"/>
      </radialGradient>
    </defs>
  </svg>
  