<svg xmlns="http://www.w3.org/2000/svg" width="146" height="28" fill="none" viewBox="0 0 146 28">
    <g clip-path="url(#a)">
      <path fill="#fff" fill-rule="evenodd" d="M33.365 3.37a1.769 1.769 0 0 0 .87-2.334 1.773 1.773 0 0 0-2.34-.878L31.87.17 5.43 19.007 33.365 3.37Zm69.4 23.312V.032h2.855v26.65h-2.855Zm-44.673-1.408c1.851 1.141 4.059 1.711 6.624 1.711 1.524 0 2.87-.228 4.036-.684 1.193-.456 2.208-1.04 3.046-1.752a11.511 11.511 0 0 0 2.055-2.32v4.453h2.629V13.281H64.639v2.588h9.214c0 1.753-.431 3.25-1.294 4.493a8.244 8.244 0 0 1-3.314 2.856 9.645 9.645 0 0 1-4.3.99c-2.031 0-3.782-.445-5.254-1.332a9.023 9.023 0 0 1-3.313-3.656c-.762-1.548-1.143-3.261-1.142-5.14 0-1.904.38-3.617 1.142-5.14a8.945 8.945 0 0 1 3.39-3.616c1.472-.913 3.223-1.37 5.252-1.37 1.93 0 3.566.393 4.911 1.179A8.4 8.4 0 0 1 73.13 8.33h3.122c-.939-2.107-2.411-3.82-4.417-5.14-1.98-1.344-4.328-2.017-7.043-2.017-2.512 0-4.707.584-6.586 1.752a11.667 11.667 0 0 0-4.303 4.644c-1.014 1.954-1.522 4.124-1.523 6.51 0 2.387.495 4.557 1.486 6.51a11.764 11.764 0 0 0 4.226 4.684Zm25.57.417c1.397.863 3.022 1.294 4.874 1.294 1.574 0 2.92-.304 4.035-.913a7.778 7.778 0 0 0 2.78-2.437v3.045h2.856V7.647H95.35v3.083a7.7 7.7 0 0 0-2.78-2.474c-1.116-.61-2.46-.914-4.035-.914-1.851 0-3.476.444-4.874 1.331a8.82 8.82 0 0 0-3.196 3.542c-.763 1.473-1.144 3.122-1.144 4.949 0 1.803.381 3.453 1.144 4.95a9.085 9.085 0 0 0 3.196 3.577Zm8.834-2.285c-.964.66-2.157.99-3.578.99-1.396 0-2.603-.33-3.618-.99a6.456 6.456 0 0 1-2.322-2.626 8.244 8.244 0 0 1-.8-3.618c0-1.32.267-2.525.8-3.617A6.456 6.456 0 0 1 85.3 10.92c1.016-.66 2.221-.99 3.617-.99 1.42 0 2.613.33 3.578.99a6.268 6.268 0 0 1 2.248 2.628c.508 1.09.762 2.295.762 3.616 0 1.295-.254 2.5-.762 3.618a6.27 6.27 0 0 1-2.247 2.626m22.722-6.55-7.348 9.824h3.617l5.405-7.767 5.368 7.767h3.656l-7.386-9.822 6.891-9.213h-3.655l-4.872 7.193-4.911-7.195h-3.656l6.891 9.214Zm20.594 10.127c-1.929 0-3.616-.43-5.063-1.292a9.336 9.336 0 0 1-3.39-3.578c-.786-1.499-1.179-3.15-1.179-4.951 0-1.827.381-3.476 1.142-4.949a8.64 8.64 0 0 1 3.274-3.542c1.421-.887 3.096-1.331 5.025-1.331 1.956 0 3.631.444 5.026 1.331a8.647 8.647 0 0 1 3.274 3.542c.762 1.473 1.142 3.122 1.142 4.949v1.143h-15.952a8.092 8.092 0 0 0 1.067 3.083 6.701 6.701 0 0 0 2.321 2.209c.964.533 2.081.8 3.351.8 1.345 0 2.474-.293 3.389-.876a6.438 6.438 0 0 0 2.131-2.323h3.122a9.409 9.409 0 0 1-3.159 4.188c-1.421 1.066-3.262 1.599-5.522 1.599m-6.663-11.345h12.946c-.255-1.624-.941-2.981-2.057-4.072-1.117-1.092-2.589-1.638-4.418-1.638-1.826 0-3.297.546-4.414 1.638-1.092 1.09-1.778 2.448-2.057 4.072ZM44.027 2.271a2.407 2.407 0 0 1 1.4 1.215 2.41 2.41 0 0 1 .13 1.85 2.41 2.41 0 0 1-1.213 1.4L1.41 28 42.165 2.41l.014-.009a2.411 2.411 0 0 1 1.848-.13Zm-8.486 14.8a1.447 1.447 0 0 1-.642 1.94l-18.323 7.361 16.999-9.94.02-.009a1.447 1.447 0 0 1 1.945.649" clip-rule="evenodd"/>
    </g>
    <defs>
      <clipPath id="a">
        <path fill="#fff" d="M.667 0h144.667v28H.667z"/>
      </clipPath>
    </defs>
  </svg>
  