<svg width="346" height="335" viewBox="0 0 346 335" fill="none" xmlns="http://www.w3.org/2000/svg">
    <path opacity="0.4" fill-rule="evenodd" clip-rule="evenodd" d="M146.783 110C142.354 110 138.254 112.36 136.038 116.212L109.995 161.353L109.993 161.355C107.78 165.202 107.78 169.921 109.993 173.768L109.995 173.77L136.038 218.911C138.254 222.763 142.354 225.123 146.783 225.123H150.957C151.007 225.172 151.06 225.221 151.116 225.267L160.644 233.264C160.917 233.493 161.037 233.859 160.951 234.206L157.978 246.235C157.506 248.16 159.638 249.708 161.348 248.664L171.971 242.134C172.272 241.949 172.651 241.949 172.952 242.134L183.525 248.628C185.285 249.736 187.417 248.153 186.945 246.235L183.972 234.206C183.887 233.859 184.006 233.493 184.279 233.264L193.743 225.317C193.82 225.255 193.892 225.19 193.958 225.123H198.871C203.301 225.123 207.401 222.763 209.616 218.911L235.657 173.775L235.658 173.772C237.892 169.923 237.891 165.202 235.678 161.355L235.677 161.353L209.633 116.209L209.63 116.205C207.398 112.361 203.302 110 198.871 110H146.783ZM189.741 221.123H198.871C201.874 221.123 204.649 219.524 206.149 216.917L206.15 216.914L232.195 171.771L232.198 171.766C233.713 169.157 233.713 165.962 232.211 163.35L206.171 118.213L206.169 118.211C204.651 115.597 201.872 114 198.871 114H146.783C143.78 114 141.005 115.599 139.505 118.206L139.504 118.208L113.46 163.35L113.459 163.352C111.958 165.963 111.958 169.161 113.46 171.772L113.46 171.773L139.504 216.914L139.505 216.917C141.005 219.524 143.78 221.123 146.783 221.123H155.276L164.865 220.417C165.218 220.391 165.527 220.168 165.662 219.84L170.379 208.382C171.152 206.5 173.807 206.579 174.544 208.382L179.261 219.833C179.396 220.161 179.705 220.385 180.058 220.411L189.741 221.123Z" fill="url(#paint0_radial_1783_32184)"/>
    <g filter="url(#filter0_d_1783_32184)">
    <path d="M199.485 128.959L219.279 163.268C220.69 165.723 220.69 168.731 219.265 171.186L199.471 205.495C198.059 207.95 195.447 209.454 192.623 209.454H178.415L176.429 204.633C175.025 201.198 169.968 201.049 168.496 204.633L166.511 209.454H153.035C150.211 209.454 147.598 207.95 146.186 205.495L126.392 171.186C124.981 168.731 124.981 165.723 126.392 163.268L146.186 128.959C147.598 126.504 150.211 125 153.035 125H192.623C195.447 125 198.059 126.504 199.485 128.959Z" fill="white"/>
    </g>
    <g opacity="0.9" filter="url(#filter1_d_1783_32184)">
    <path d="M199.485 128.959L219.279 163.268C220.69 165.723 220.69 168.731 219.265 171.186L199.471 205.495C198.059 207.95 195.447 209.454 192.623 209.454H178.415L176.429 204.633C175.025 201.198 169.968 201.049 168.496 204.633L166.511 209.454H153.035C150.211 209.454 147.598 207.95 146.186 205.495L126.392 171.186C124.981 168.731 124.981 165.723 126.392 163.268L146.186 128.959C147.598 126.504 150.211 125 153.035 125H192.623C195.447 125 198.059 126.504 199.485 128.959Z" fill="#202348"/>
    </g>
    <path opacity="0.85" d="M199.485 128.959L219.279 163.268C220.69 165.723 220.69 168.731 219.265 171.186L199.471 205.495C198.059 207.95 195.447 209.454 192.623 209.454H178.415L176.429 204.633C175.025 201.198 169.968 201.049 168.496 204.633L166.511 209.454H153.035C150.211 209.454 147.598 207.95 146.186 205.495L126.392 171.186C124.981 168.731 124.981 165.723 126.392 163.268L146.186 128.959C147.598 126.504 150.211 125 153.035 125H192.623C195.447 125 198.059 126.504 199.485 128.959Z" fill="url(#paint1_radial_1783_32184)"/>
    <g style="mix-blend-mode:color-dodge">
    <path d="M217.966 170.436L217.968 170.432C219.123 168.444 219.124 166.007 217.978 164.016L198.187 129.712C198.187 129.712 198.187 129.712 198.187 129.712C197.03 127.718 194.91 126.5 192.623 126.5H153.035C150.746 126.5 148.63 127.719 147.487 129.707L147.486 129.708L127.693 164.016C127.693 164.016 127.692 164.016 127.692 164.017C126.547 166.008 126.547 168.446 127.692 170.437C127.692 170.437 127.693 170.438 127.693 170.438L147.486 204.745L147.487 204.747C148.63 206.735 150.746 207.954 153.035 207.954H165.507L167.109 204.063L217.966 170.436ZM217.966 170.436L198.172 204.745L198.171 204.747M217.966 170.436L198.171 204.747M198.171 204.747C197.028 206.735 194.912 207.954 192.623 207.954M198.171 204.747L192.623 207.954M192.623 207.954H179.419M192.623 207.954H179.419M179.419 207.954L177.817 204.065C177.817 204.065 177.817 204.064 177.816 204.063C175.925 199.44 169.112 199.187 167.109 204.062L179.419 207.954Z" fill="url(#paint2_linear_1783_32184)"/>
    <path d="M217.966 170.436L217.968 170.432C219.123 168.444 219.124 166.007 217.978 164.016L198.187 129.712C198.187 129.712 198.187 129.712 198.187 129.712C197.03 127.718 194.91 126.5 192.623 126.5H153.035C150.746 126.5 148.63 127.719 147.487 129.707L147.486 129.708L127.693 164.016C127.693 164.016 127.692 164.016 127.692 164.017C126.547 166.008 126.547 168.446 127.692 170.437C127.692 170.437 127.693 170.438 127.693 170.438L147.486 204.745L147.487 204.747C148.63 206.735 150.746 207.954 153.035 207.954H165.507L167.109 204.063L217.966 170.436ZM217.966 170.436L198.172 204.745L198.171 204.747M217.966 170.436L198.171 204.747M198.171 204.747C197.028 206.735 194.912 207.954 192.623 207.954M198.171 204.747L192.623 207.954M192.623 207.954H179.419M192.623 207.954H179.419M179.419 207.954L177.817 204.065C177.817 204.065 177.817 204.064 177.816 204.063C175.925 199.44 169.112 199.187 167.109 204.062L179.419 207.954Z" stroke="url(#paint3_linear_1783_32184)" stroke-width="2.99999"/>
    </g>
    <defs>
    <filter id="filter0_d_1783_32184" x="0.533501" y="0.200005" width="344.602" height="334.054" filterUnits="userSpaceOnUse" color-interpolation-filters="sRGB">
    <feFlood flood-opacity="0" result="BackgroundImageFix"/>
    <feColorMatrix in="SourceAlpha" type="matrix" values="0 0 0 0 0 0 0 0 0 0 0 0 0 0 0 0 0 0 127 0" result="hardAlpha"/>
    <feMorphology radius="24.96" operator="dilate" in="SourceAlpha" result="effect1_dropShadow_1783_32184"/>
    <feOffset/>
    <feGaussianBlur stdDeviation="49.92"/>
    <feComposite in2="hardAlpha" operator="out"/>
    <feColorMatrix type="matrix" values="0 0 0 0 1 0 0 0 0 1 0 0 0 0 1 0 0 0 0.2 0"/>
    <feBlend mode="normal" in2="BackgroundImageFix" result="effect1_dropShadow_1783_32184"/>
    <feBlend mode="normal" in="SourceGraphic" in2="effect1_dropShadow_1783_32184" result="shape"/>
    </filter>
    <filter id="filter1_d_1783_32184" x="119.093" y="118.76" width="107.482" height="96.9339" filterUnits="userSpaceOnUse" color-interpolation-filters="sRGB">
    <feFlood flood-opacity="0" result="BackgroundImageFix"/>
    <feColorMatrix in="SourceAlpha" type="matrix" values="0 0 0 0 0 0 0 0 0 0 0 0 0 0 0 0 0 0 127 0" result="hardAlpha"/>
    <feOffset/>
    <feGaussianBlur stdDeviation="3.12"/>
    <feComposite in2="hardAlpha" operator="out"/>
    <feColorMatrix type="matrix" values="0 0 0 0 1 0 0 0 0 1 0 0 0 0 1 0 0 0 0.25 0"/>
    <feBlend mode="normal" in2="BackgroundImageFix" result="effect1_dropShadow_1783_32184"/>
    <feBlend mode="normal" in="SourceGraphic" in2="effect1_dropShadow_1783_32184" result="shape"/>
    </filter>
    <radialGradient id="paint0_radial_1783_32184" cx="0" cy="0" r="1" gradientUnits="userSpaceOnUse" gradientTransform="translate(124.459 130.457) rotate(54.4673) scale(124.859 112.715)">
    <stop stop-color="white"/>
    <stop offset="1" stop-color="white" stop-opacity="0.62"/>
    </radialGradient>
    <radialGradient id="paint1_radial_1783_32184" cx="0" cy="0" r="1" gradientUnits="userSpaceOnUse" gradientTransform="translate(137.209 137.429) rotate(49.1201) scale(81.6514 77.1224)">
    <stop stop-color="white"/>
    <stop offset="1" stop-color="white" stop-opacity="0.62"/>
    </radialGradient>
    <linearGradient id="paint2_linear_1783_32184" x1="220.336" y1="209.227" x2="139.918" y2="137.114" gradientUnits="userSpaceOnUse">
    <stop stop-color="#79AEE7"/>
    <stop offset="0.331593" stop-color="#4960A7"/>
    <stop offset="1" stop-color="#1B2030" stop-opacity="0.25"/>
    </linearGradient>
    <linearGradient id="paint3_linear_1783_32184" x1="136.726" y1="205.562" x2="195.738" y2="140.304" gradientUnits="userSpaceOnUse">
    <stop stop-color="#EBF8FC"/>
    <stop offset="0.295134" stop-color="#7FB8EF"/>
    <stop offset="0.57639" stop-color="#5142F1"/>
    <stop offset="1" stop-color="#1D1D29"/>
    </linearGradient>
    </defs>
    </svg>
    