<svg width="49" height="48" viewBox="0 0 49 48" fill="none" xmlns="http://www.w3.org/2000/svg">
    <path d="M0.441193 35.2156C0.233965 35.4636 0.1129 35.7722 0.0962255 36.0949C0.0795508 36.4177 0.168169 36.7371 0.348738 37.0051L3.35502 41.5324C3.53272 41.7969 3.79047 41.9975 4.0905 42.1049C4.39052 42.2122 4.71705 42.2206 5.0222 42.1289L11.7535 40.1158C11.9063 40.069 12.07 40.0728 12.2205 40.1266C12.3709 40.1803 12.5 40.2811 12.5886 40.414L14.3781 43.128C15.5211 44.8782 17.2651 46.1496 19.281 46.7023C21.297 47.2551 23.4455 47.0511 25.3214 46.1288C27.1973 45.2064 28.6708 43.6295 29.464 41.6955C30.2572 39.7615 30.3153 37.6041 29.6272 35.6302C29.5933 35.5312 29.5806 35.4262 29.5901 35.3219C29.5995 35.2177 29.6309 35.1167 29.6822 35.0254C29.7334 34.9342 29.8034 34.8548 29.8875 34.7925C29.9715 34.7302 30.0678 34.6864 30.17 34.6639L42.9766 31.7888C43.1221 31.7536 43.2749 31.7633 43.4149 31.8165C43.5549 31.8698 43.6755 31.9641 43.7609 32.0871L43.9936 32.436C44.1984 32.7434 44.476 32.9955 44.8017 33.1698C45.1274 33.3441 45.4912 33.4352 45.8606 33.4351C46.3 33.436 46.7298 33.3063 47.0953 33.0623C47.5892 32.7337 47.9325 32.2225 48.0499 31.641C48.1673 31.0595 48.0493 30.4551 47.7216 29.9606L28.6967 1.30841C28.3685 0.814043 27.8572 0.470325 27.2756 0.352869C26.6939 0.235413 26.0894 0.353841 25.595 0.682101C25.1006 1.01036 24.7569 1.52156 24.6394 2.10325C24.522 2.68494 24.6404 3.28946 24.9687 3.78383L25.1804 4.09996C25.2714 4.23364 25.3162 4.39335 25.3082 4.55483C25.3001 4.71632 25.2395 4.87076 25.1357 4.99469L0.441193 35.2156ZM23.8115 41.7978C22.9054 42.3994 21.7975 42.6163 20.7314 42.401C19.6654 42.1856 18.7286 41.5557 18.127 40.6496L17.3277 39.4566C17.2638 39.3593 17.2235 39.2485 17.2099 39.1329C17.1964 39.0172 17.2099 38.9001 17.2496 38.7906C17.2893 38.6812 17.3539 38.5825 17.4384 38.5024C17.5229 38.4223 17.6249 38.363 17.7363 38.3293L24.396 36.3311C24.5701 36.28 24.7568 36.2939 24.9213 36.3702C25.0859 36.4464 25.2172 36.5798 25.2908 36.7456C25.6762 37.6275 25.7393 38.6168 25.4688 39.5404C25.1984 40.4641 24.6117 41.2632 23.8115 41.7978Z" fill="url(#paint0_radial_1718_46505)"/>
    <defs>
    <radialGradient id="paint0_radial_1718_46505" cx="0" cy="0" r="1" gradientUnits="userSpaceOnUse" gradientTransform="translate(4.47885 6.19955) rotate(41.9969) scale(58.3052 49.1759)">
    <stop stop-color="#1F2348" stop-opacity="0.1"/>
    <stop offset="1" stop-color="#1F2348" stop-opacity="0.4"/>
    </radialGradient>
    </defs>
    </svg>
    