<svg xmlns="http://www.w3.org/2000/svg" width="49" height="48" fill="none" viewBox="0 0 49 48">
  <path fill="url(#a)" d="M.44 35.216a1.491 1.491 0 0 0-.092 1.79l3.007 4.526a1.492 1.492 0 0 0 1.667.597l6.731-2.013a.741.741 0 0 1 .835.298l1.79 2.714a8.559 8.559 0 0 0 15.249-7.498.743.743 0 0 1 .543-.966l12.806-2.875a.742.742 0 0 1 .785.298l.232.349a2.242 2.242 0 0 0 3.102.626 2.24 2.24 0 0 0 .626-3.101L28.696 1.308a2.237 2.237 0 1 0-3.728 2.476l.212.316a.742.742 0 0 1-.045.895L.441 35.215Zm23.371 6.582a4.1 4.1 0 0 1-5.684-1.148l-.8-1.193a.749.749 0 0 1 .409-1.128l6.66-1.998a.748.748 0 0 1 .894.415 4.1 4.1 0 0 1-1.479 5.052Z"/>
  <defs>
    <radialGradient id="a" cx="0" cy="0" r="1" gradientTransform="matrix(43.33125 39.01153 -32.90319 36.54654 4.479 6.2)" gradientUnits="userSpaceOnUse">
      <stop stop-color="#1F2348" stop-opacity=".1"/>
      <stop offset="1" stop-color="#1F2348" stop-opacity=".4"/>
    </radialGradient>
  </defs>
</svg>
