<svg width="144" height="150" fill="none" xmlns="http://www.w3.org/2000/svg"><path opacity=".4" d="M37.196 49.241C28.9 56.935 23.17 67.358 21.433 79.082c1.698-1.073 3.532-1.49 5.344-1.9.463-.106.924-.21 1.38-.326l.004.005c3.907-.978 2.302 7.306-.764 10.522-1.51 1.584-3.593 2.7-6.37 3.132.17 2.225.48 4.41.926 6.546 1.446-1.724 3.37-2.62 5.198-3.47.69-.32 1.366-.634 1.997-.985 3.356-1.863 4.247 5.807 1.58 9.923-1.18 1.825-3.03 3.339-5.614 4.453a50.634 50.634 0 0 0 2.93 5.7c.822-3.224 3.07-6.054 6.357-8.287l.003.005c2.615-1.772 5.37 4.304 4.47 8.335-.596 2.656-2.429 5.179-5.436 7.377a51.234 51.234 0 0 0 7.063 6.688c-1.33-5.147 1.786-12.554 4.647-11.373 6.788 2.793 6.875 10.876 3.376 16.51.619.319 1.244.626 1.875.919 1.67.741 3.38 1.392 5.122 1.948-2.232-3.735-1.115-7.302-.11-10.516v-.002c.156-.495.308-.981.445-1.458 1.15-4.006 7.867 2.001 9.15 6.506.626 2.215.55 4.701-.477 7.444l-.107.258c2.456.358 4.935.538 7.418.537 2.47 0 4.9-.176 7.276-.516l-.125-.297c-2.41-6.47.255-11.542 5.926-15.005 2.03-1.239 2.743 1.052 3.076 2.12l.056.179c1.008 3.157 2.208 6.937-.052 10.723a50.219 50.219 0 0 0 7.017-2.835c-6.767-10.841 3-18.881 5.456-16.03 2.514 2.925 3.572 7.294 2.496 11.053a51.277 51.277 0 0 0 7.229-6.798c-5.769-4.16-7.713-10.06-3.553-15.4a1.835 1.835 0 0 1 2.474-.394l.003-.005c3.354 2.286 5.627 5.183 6.407 8.497a50.772 50.772 0 0 0 3.025-5.848c-5.79-2.436-8.452-7.179-6.843-13.306a1.835 1.835 0 0 1 1.865-1.362c.279.014.55.092.794.227.631.35 1.307.665 1.996.985 1.885.877 3.872 1.8 5.336 3.638.461-2.182.782-4.415.954-6.69-6.485-.94-9.544-5.612-9.583-11.89a1.835 1.835 0 0 1 2.278-1.791l.003-.005c.45.113.903.215 1.357.318 1.87.424 3.757.851 5.5 1.993l.056.06c-1.763-12.087-7.769-22.797-16.458-30.571L108.93 46c10.267 9.382 16.964 22.605 17.817 37.395 3.97-3.411 7.795-2.304 11.162-1.33l.298.086c3.982 1.162-2.209 7.588-4.881 8.93-1.949.983-4.166 1.292-6.713.565a54.84 54.84 0 0 1-1.675 9.36c4.237-2.04 7.903-1.286 11.543.895 3.811 2.288-5.199 7.281-7.124 7.878-2.354.73-4.818.669-7.275-.754a54.701 54.701 0 0 1-4.207 7.695c4.731-.711 8.195 1.304 11.205 4.419l-.003.005c3.034 3.13-6.504 5.848-10.353 5.34-2.173-.289-4.232-1.227-5.972-3.112a55.275 55.275 0 0 1-6.055 5.787c3.99.689 6.992 3.061 9.256 5.409l-.003.006c3.049 3.152-6.525 5.977-11.666 5.074-2.688-.473-5.23-1.752-7.26-4.127a54.603 54.603 0 0 1-4.58 2.103c3.48 1.903 5.57 4.845 7.121 7.53 2.218 3.823-7.454 4.21-12.747 1.659-2.52-1.217-4.703-3.148-6.07-5.917-2.9.472-5.875.717-8.908.717a55.382 55.382 0 0 1-9.046-.74c-3.247 6.604-11.295 8.697-17.73 7.023-4.062-1.051 2.046-7.993 6.11-10.297a54.806 54.806 0 0 1-4.62-2.13c-4.772 5.689-12.705 5.328-18.576 1.995a1.828 1.828 0 0 1-.838-2.159c.086-.266.231-.509.425-.71l-.003-.005c2.298-2.381 5.34-4.785 9.413-5.437a55.515 55.515 0 0 1-6.122-5.864c-4.412 4.884-10.878 3.645-16 .737a1.828 1.828 0 0 1-.838-2.159c.086-.266.231-.509.425-.71l-.003-.005c3.056-3.159 6.572-5.186 11.397-4.388a54.986 54.986 0 0 1-4.265-7.804c-5.516 3.306-10.942-.278-14.875-4.178a1.842 1.842 0 0 1-.527-1.52 1.837 1.837 0 0 1 .874-1.35c3.685-2.215 7.413-2.957 11.73-.804a54.798 54.798 0 0 1-1.707-9.496c-5.894 1.763-9.987-1.926-12.817-6.77a1.835 1.835 0 0 1 1.068-2.68l.314-.09c3.408-.981 7.286-2.097 11.296 1.465.8-14.522 7.234-27.542 17.153-36.912l3.118 2.616Z" fill="url(#Earn bragging rights 1 1 1__a)"/><path opacity=".85" d="M67.703 9.567c1.435-3.495 6.366-3.35 7.735 0l9.17 22.26 24.2 1.78c3.748.263 5.329 4.945 2.286 7.41L92.688 56.473l5.78 23.394c.878 3.56-3.083 6.5-6.352 4.444L71.57 71.69 50.932 84.376c-3.176 1.938-7.136-.937-6.26-4.51l5.782-23.394-18.526-15.547c-2.87-2.4-1.316-7.042 2.405-7.305l24.2-1.78 9.17-22.273Z" fill="url(#Earn bragging rights 1 1 1__b)"/><g style="mix-blend-mode:color-dodge"><path d="M68.628 9.948v-.001c1.082-2.633 4.84-2.558 5.884-.002l.001.003 9.17 22.26.235.57.616.046 24.201 1.78h.003c2.857.201 4.053 3.752 1.726 5.637l-.007.005-.006.006-18.406 15.455-.478.4.15.605 5.78 23.393c.66 2.673-2.329 4.944-4.848 3.358l-.01-.005-20.545-12.62-.524-.322-.523.322L50.41 83.522c-2.433 1.484-5.426-.732-4.767-3.418l5.78-23.392.15-.605-.478-.4L32.57 40.159l-.002-.001c-2.16-1.806-1.014-5.339 1.835-5.54l.003-.001 24.2-1.78.616-.046.235-.57 9.171-22.273Z" fill="url(#Earn bragging rights 1 1 1__c)"/><path d="M68.628 9.948v-.001c1.082-2.633 4.84-2.558 5.884-.002l.001.003 9.17 22.26.235.57.616.046 24.201 1.78h.003c2.857.201 4.053 3.752 1.726 5.637l-.007.005-.006.006-18.406 15.455-.478.4.15.605 5.78 23.393c.66 2.673-2.329 4.944-4.848 3.358l-.01-.005-20.545-12.62-.524-.322-.523.322L50.41 83.522c-2.433 1.484-5.426-.732-4.767-3.418l5.78-23.392.15-.605-.478-.4L32.57 40.159l-.002-.001c-2.16-1.806-1.014-5.339 1.835-5.54l.003-.001 24.2-1.78.616-.046.235-.57 9.171-22.273Z" stroke="url(#Earn bragging rights 1 1 1__d)" stroke-width="2"/></g><defs><radialGradient id="Earn bragging rights 1 1 1__a" cx="0" cy="0" r="1" gradientUnits="userSpaceOnUse" gradientTransform="matrix(76.22222 74.88768 -71.4606 72.73407 20.938 61.078)"><stop stop-color="#fff"/><stop offset="1" stop-color="#fff" stop-opacity=".62"/></radialGradient><radialGradient id="Earn bragging rights 1 1 1__b" cx="0" cy="0" r="1" gradientUnits="userSpaceOnUse" gradientTransform="rotate(50.942 .965 51.986) scale(73.4285 68.5773)"><stop stop-color="#fff"/><stop offset="1" stop-color="#fff" stop-opacity=".62"/></radialGradient><linearGradient id="Earn bragging rights 1 1 1__c" x1="112.697" y1="84.79" x2="39.095" y2="22.917" gradientUnits="userSpaceOnUse"><stop stop-color="#79AEE7"/><stop offset=".332" stop-color="#4960A7"/><stop offset="1" stop-color="#1B2030" stop-opacity=".25"/></linearGradient><linearGradient id="Earn bragging rights 1 1 1__d" x1="40.307" y1="81.405" x2="95.049" y2="24.655" gradientUnits="userSpaceOnUse"><stop stop-color="#EBF8FC"/><stop offset=".295" stop-color="#7FB8EF"/><stop offset=".576" stop-color="#5142F1"/><stop offset="1" stop-color="#1D1D29"/></linearGradient></defs></svg>