<svg xmlns="http://www.w3.org/2000/svg" width="54" height="72" fill="none" viewBox="0 0 54 72">
  <path fill="url(#a)" d="M49.167 64.333h-2.834v-7.62c0-8.228-3.911-15.89-10.517-20.713a25.597 25.597 0 0 0 10.517-20.713v-7.62h2.834a2.834 2.834 0 0 0 0-5.667H3.833a2.834 2.834 0 0 0 0 5.667h2.834v7.62c0 8.228 3.911 15.89 10.517 20.713A25.597 25.597 0 0 0 6.667 56.713v7.62H3.833a2.834 2.834 0 0 0 0 5.667h45.334a2.834 2.834 0 0 0 0-5.667Zm-12.114 0H15.95c-1.041 0-1.723-1.092-1.28-2.035 7.889-16.768 15.775-16.835 23.662.001.44.942-.24 2.033-1.28 2.033v.001Z" opacity=".8"/>
  <g style="mix-blend-mode:screen">
    <path fill="url(#b)" fill-opacity=".6" d="M49.167 64.333h-2.834v-7.62c0-8.228-3.911-15.89-10.517-20.713a25.597 25.597 0 0 0 10.517-20.713v-7.62h2.834a2.834 2.834 0 0 0 0-5.667H3.833a2.834 2.834 0 0 0 0 5.667h2.834v7.62c0 8.228 3.911 15.89 10.517 20.713A25.597 25.597 0 0 0 6.667 56.713v7.62H3.833a2.834 2.834 0 0 0 0 5.667h45.334a2.834 2.834 0 0 0 0-5.667Zm-12.114 0H15.95c-1.041 0-1.723-1.092-1.28-2.035 7.889-16.768 15.775-16.835 23.662.001.44.942-.24 2.033-1.28 2.033v.001Z"/>
    <path fill="#1F2348" fill-opacity=".2" d="M49.167 64.333h-2.834v-7.62c0-8.228-3.911-15.89-10.517-20.713a25.597 25.597 0 0 0 10.517-20.713v-7.62h2.834a2.834 2.834 0 0 0 0-5.667H3.833a2.834 2.834 0 0 0 0 5.667h2.834v7.62c0 8.228 3.911 15.89 10.517 20.713A25.597 25.597 0 0 0 6.667 56.713v7.62H3.833a2.834 2.834 0 0 0 0 5.667h45.334a2.834 2.834 0 0 0 0-5.667Zm-12.114 0H15.95c-1.041 0-1.723-1.092-1.28-2.035 7.889-16.768 15.775-16.835 23.662.001.44.942-.24 2.033-1.28 2.033v.001Z" style="mix-blend-mode:color-burn"/>
  </g>
  <path fill="url(#c)" d="M49.167 64.333h-2.834v-7.62c0-8.228-3.911-15.89-10.517-20.713a25.597 25.597 0 0 0 10.517-20.713v-7.62h2.834a2.834 2.834 0 0 0 0-5.667H3.833a2.834 2.834 0 0 0 0 5.667h2.834v7.62c0 8.228 3.911 15.89 10.517 20.713A25.597 25.597 0 0 0 6.667 56.713v7.62H3.833a2.834 2.834 0 0 0 0 5.667h45.334a2.834 2.834 0 0 0 0-5.667Zm-12.114 0H15.95c-1.041 0-1.723-1.092-1.28-2.035 7.889-16.768 15.775-16.835 23.662.001.44.942-.24 2.033-1.28 2.033v.001Z" style="mix-blend-mode:color-dodge"/>
  <defs>
    <linearGradient id="b" x1="5.037" x2="60.68" y1="4.55" y2="52.213" gradientUnits="userSpaceOnUse">
      <stop stop-color="#CCE8FE"/>
      <stop offset=".242" stop-color="#CDA0FF"/>
      <stop offset=".4" stop-color="#8489F5"/>
      <stop offset=".713" stop-color="#CDF1FF"/>
      <stop offset="1" stop-color="#B591E9"/>
    </linearGradient>
    <linearGradient id="c" x1="52" x2="-5.376" y1="69.817" y2="35.514" gradientUnits="userSpaceOnUse">
      <stop stop-color="#79AEE7"/>
      <stop offset=".332" stop-color="#4960A7"/>
      <stop offset="1" stop-color="#1B2030" stop-opacity=".25"/>
    </linearGradient>
    <radialGradient id="a" cx="0" cy="0" r="1" gradientTransform="matrix(28.68722 49.70776 -41.0766 23.70603 7.375 12.008)" gradientUnits="userSpaceOnUse">
      <stop stop-color="#fff"/>
      <stop offset="1" stop-color="#fff" stop-opacity=".62"/>
    </radialGradient>
  </defs>
</svg>
