<svg width="160" height="208" viewBox="0 0 160 208" fill="none" xmlns="http://www.w3.org/2000/svg">
<rect width="160" height="208" rx="8" fill="url(#paint0_radial_881_311271)"/>
<path d="M64.2748 39.912H66.7228V57H63.9868V46.392L59.4508 57H57.4108L52.8508 46.512V57H50.1148V39.912H52.5628L58.4428 53.28L64.2748 39.912ZM78.1134 54.48H81.8334V57H71.2974V54.48H75.0414V43.464L71.5614 45.552V42.792L76.3134 39.912H78.1134V54.48ZM89.648 39.696C91.808 39.696 93.472 40.432 94.64 41.904C95.824 43.36 96.416 45.44 96.416 48.144C96.416 50.032 96.136 51.656 95.576 53.016C95.016 54.376 94.208 55.416 93.152 56.136C92.112 56.856 90.872 57.216 89.432 57.216C88.408 57.216 87.408 57.048 86.432 56.712C85.472 56.36 84.64 55.864 83.936 55.224L84.968 52.968C86.488 54.152 87.936 54.744 89.312 54.744C90.576 54.744 91.552 54.208 92.24 53.136C92.944 52.048 93.312 50.496 93.344 48.48C92.976 49.216 92.416 49.8 91.664 50.232C90.928 50.664 90.088 50.88 89.144 50.88C88.136 50.88 87.232 50.648 86.432 50.184C85.648 49.72 85.032 49.072 84.584 48.24C84.136 47.408 83.912 46.456 83.912 45.384C83.912 44.296 84.152 43.32 84.632 42.456C85.128 41.592 85.808 40.92 86.672 40.44C87.552 39.944 88.544 39.696 89.648 39.696ZM89.816 48.408C90.712 48.408 91.44 48.12 92 47.544C92.56 46.968 92.84 46.216 92.84 45.288C92.84 44.36 92.56 43.608 92 43.032C91.44 42.44 90.712 42.144 89.816 42.144C88.92 42.144 88.2 42.432 87.656 43.008C87.128 43.584 86.864 44.344 86.864 45.288C86.864 46.232 87.128 46.992 87.656 47.568C88.2 48.128 88.92 48.408 89.816 48.408ZM107.471 48.216C108.575 48.488 109.439 48.992 110.063 49.728C110.687 50.464 110.999 51.352 110.999 52.392C110.999 53.368 110.727 54.224 110.183 54.96C109.655 55.68 108.903 56.232 107.927 56.616C106.967 57 105.855 57.192 104.591 57.192C103.327 57.192 102.207 57 101.231 56.616C100.271 56.232 99.5186 55.68 98.9746 54.96C98.4466 54.224 98.1826 53.368 98.1826 52.392C98.1826 51.352 98.4946 50.464 99.1186 49.728C99.7426 48.992 100.607 48.488 101.711 48.216C100.751 47.896 99.9906 47.392 99.4306 46.704C98.8866 46.016 98.6146 45.216 98.6146 44.304C98.6146 43.376 98.8706 42.568 99.3826 41.88C99.8946 41.176 100.599 40.64 101.495 40.272C102.407 39.888 103.439 39.696 104.591 39.696C105.743 39.696 106.767 39.888 107.663 40.272C108.575 40.64 109.287 41.176 109.799 41.88C110.311 42.568 110.567 43.376 110.567 44.304C110.567 45.232 110.287 46.048 109.727 46.752C109.183 47.44 108.431 47.928 107.471 48.216ZM104.591 42.12C103.647 42.12 102.903 42.336 102.359 42.768C101.815 43.2 101.543 43.816 101.543 44.616C101.543 45.368 101.815 45.984 102.359 46.464C102.919 46.928 103.663 47.232 104.591 47.376C105.519 47.232 106.255 46.928 106.799 46.464C107.359 45.984 107.639 45.368 107.639 44.616C107.639 43.816 107.367 43.2 106.823 42.768C106.279 42.336 105.535 42.12 104.591 42.12ZM104.591 54.768C105.679 54.768 106.527 54.544 107.135 54.096C107.759 53.648 108.071 53.008 108.071 52.176C108.071 51.392 107.751 50.76 107.111 50.28C106.487 49.8 105.647 49.488 104.591 49.344C103.535 49.488 102.687 49.8 102.047 50.28C101.423 50.76 101.111 51.392 101.111 52.176C101.111 53.008 101.415 53.648 102.023 54.096C102.647 54.544 103.503 54.768 104.591 54.768Z" fill="white"/>
<path d="M41.8395 9.168H42.9615V17H41.7075V12.138L39.6285 17H38.6935L36.6035 12.193V17H35.3495V9.168H36.4715L39.1665 15.295L41.8395 9.168ZM51.6572 17L50.8762 15.163H47.0482L46.2562 17H44.8262L48.3682 9.168H49.5232L53.0762 17H51.6572ZM47.5212 14.063H50.4032L48.9622 10.708L47.5212 14.063ZM58.2291 17.099C57.4591 17.099 56.7844 16.934 56.2051 16.604C55.6331 16.274 55.1931 15.8083 54.8851 15.207C54.5771 14.5983 54.4231 13.887 54.4231 13.073C54.4231 12.2663 54.5771 11.5623 54.8851 10.961C55.1931 10.3523 55.6331 9.88667 56.2051 9.564C56.7844 9.234 57.4591 9.069 58.2291 9.069C58.7571 9.069 59.2521 9.15333 59.7141 9.322C60.1834 9.48333 60.5721 9.71067 60.8801 10.004L60.4181 11.038C60.0661 10.752 59.7141 10.5467 59.3621 10.422C59.0174 10.29 58.6471 10.224 58.2511 10.224C57.4958 10.224 56.9091 10.4697 56.4911 10.961C56.0804 11.4523 55.8751 12.1563 55.8751 13.073C55.8751 13.997 56.0804 14.7083 56.4911 15.207C56.9018 15.6983 57.4884 15.944 58.2511 15.944C58.6471 15.944 59.0174 15.8817 59.3621 15.757C59.7141 15.625 60.0661 15.416 60.4181 15.13L60.8801 16.164C60.5721 16.4573 60.1834 16.6883 59.7141 16.857C59.2521 17.0183 58.7571 17.099 58.2291 17.099ZM69.6524 17H68.1564L67.1554 14.393C67.0674 14.151 66.9317 13.9823 66.7484 13.887C66.565 13.7917 66.3267 13.744 66.0334 13.744H64.6144V17H63.2064V9.168H66.5614C67.4487 9.168 68.1234 9.36233 68.5854 9.751C69.0474 10.1397 69.2784 10.697 69.2784 11.423C69.2784 11.9437 69.139 12.3873 68.8604 12.754C68.589 13.1133 68.2004 13.37 67.6944 13.524C68.1564 13.6193 68.49 13.942 68.6954 14.492L69.6524 17ZM66.3634 12.644C66.8987 12.644 67.2947 12.545 67.5514 12.347C67.808 12.149 67.9364 11.8483 67.9364 11.445C67.9364 11.049 67.808 10.7557 67.5514 10.565C67.302 10.367 66.906 10.268 66.3634 10.268H64.5924V12.644H66.3634ZM75.3523 17.099C74.597 17.099 73.937 16.9377 73.3723 16.615C72.815 16.285 72.3823 15.8193 72.0743 15.218C71.7736 14.6093 71.6233 13.8943 71.6233 13.073C71.6233 12.259 71.7736 11.5513 72.0743 10.95C72.375 10.3413 72.804 9.87567 73.3613 9.553C73.926 9.23033 74.5896 9.069 75.3523 9.069C76.115 9.069 76.775 9.23033 77.3323 9.553C77.897 9.87567 78.326 10.3413 78.6193 10.95C78.92 11.5513 79.0703 12.259 79.0703 13.073C79.0703 13.8943 78.92 14.6093 78.6193 15.218C78.3186 15.8193 77.8896 16.285 77.3323 16.615C76.775 16.9377 76.115 17.099 75.3523 17.099ZM75.3523 15.966C76.0783 15.966 76.643 15.7167 77.0463 15.218C77.4496 14.7193 77.6513 14.0043 77.6513 13.073C77.6513 12.149 77.4496 11.4413 77.0463 10.95C76.643 10.4513 76.0783 10.202 75.3523 10.202C74.6263 10.202 74.0616 10.4477 73.6583 10.939C73.255 11.4303 73.0533 12.1417 73.0533 13.073C73.0533 14.0043 73.255 14.7193 73.6583 15.218C74.0616 15.7167 74.6263 15.966 75.3523 15.966ZM90.3603 12.952C90.815 13.084 91.1633 13.315 91.4053 13.645C91.6546 13.975 91.7793 14.382 91.7793 14.866C91.7793 15.5333 91.541 16.0577 91.0643 16.439C90.595 16.813 89.9386 17 89.0953 17H85.5423V9.168H88.9853C89.792 9.168 90.4263 9.35133 90.8883 9.718C91.3503 10.0773 91.5813 10.576 91.5813 11.214C91.5813 11.6247 91.4713 11.984 91.2513 12.292C91.0386 12.5927 90.7416 12.8127 90.3603 12.952ZM86.9283 12.468H88.7543C89.737 12.468 90.2283 12.1013 90.2283 11.368C90.2283 11.0013 90.1073 10.7263 89.8653 10.543C89.6233 10.3597 89.253 10.268 88.7543 10.268H86.9283V12.468ZM88.9413 15.9C89.4546 15.9 89.8286 15.8083 90.0633 15.625C90.3053 15.4417 90.4263 15.152 90.4263 14.756C90.4263 14.3527 90.3053 14.0557 90.0633 13.865C89.8286 13.6743 89.4546 13.579 88.9413 13.579H86.9283V15.9H88.9413ZM94.137 17V9.168H95.556V15.834H99.219V17H94.137ZM104.339 17.099C103.583 17.099 102.923 16.9377 102.359 16.615C101.801 16.285 101.369 15.8193 101.061 15.218C100.76 14.6093 100.61 13.8943 100.61 13.073C100.61 12.259 100.76 11.5513 101.061 10.95C101.361 10.3413 101.79 9.87567 102.348 9.553C102.912 9.23033 103.576 9.069 104.339 9.069C105.101 9.069 105.761 9.23033 106.319 9.553C106.883 9.87567 107.312 10.3413 107.606 10.95C107.906 11.5513 108.057 12.259 108.057 13.073C108.057 13.8943 107.906 14.6093 107.606 15.218C107.305 15.8193 106.876 16.285 106.319 16.615C105.761 16.9377 105.101 17.099 104.339 17.099ZM104.339 15.966C105.065 15.966 105.629 15.7167 106.033 15.218C106.436 14.7193 106.638 14.0043 106.638 13.073C106.638 12.149 106.436 11.4413 106.033 10.95C105.629 10.4513 105.065 10.202 104.339 10.202C103.613 10.202 103.048 10.4477 102.645 10.939C102.241 11.4303 102.04 12.1417 102.04 13.073C102.04 14.0043 102.241 14.7193 102.645 15.218C103.048 15.7167 103.613 15.966 104.339 15.966ZM114.063 17.099C113.293 17.099 112.618 16.934 112.039 16.604C111.467 16.274 111.027 15.8083 110.719 15.207C110.411 14.5983 110.257 13.887 110.257 13.073C110.257 12.2663 110.411 11.5623 110.719 10.961C111.027 10.3523 111.467 9.88667 112.039 9.564C112.618 9.234 113.293 9.069 114.063 9.069C114.591 9.069 115.086 9.15333 115.548 9.322C116.017 9.48333 116.406 9.71067 116.714 10.004L116.252 11.038C115.9 10.752 115.548 10.5467 115.196 10.422C114.851 10.29 114.481 10.224 114.085 10.224C113.33 10.224 112.743 10.4697 112.325 10.961C111.914 11.4523 111.709 12.1563 111.709 13.073C111.709 13.997 111.914 14.7083 112.325 15.207C112.736 15.6983 113.322 15.944 114.085 15.944C114.481 15.944 114.851 15.8817 115.196 15.757C115.548 15.625 115.9 15.416 116.252 15.13L116.714 16.164C116.406 16.4573 116.017 16.6883 115.548 16.857C115.086 17.0183 114.591 17.099 114.063 17.099ZM125.838 17H124.1L120.459 13.337V17H119.04V9.168H120.459V12.677L123.957 9.168H125.662L121.856 12.93L125.838 17Z" fill="white"/>
<path d="M36.7004 163.216C37.7084 163.504 38.4764 164 39.0044 164.704C39.5324 165.408 39.7964 166.296 39.7964 167.368C39.7964 168.856 39.2924 170.032 38.2844 170.896C37.2764 171.744 35.9084 172.168 34.1804 172.168C33.0764 172.168 32.0124 171.984 30.9884 171.616C29.9804 171.248 29.1244 170.728 28.4204 170.056L29.1884 168.544C30.7724 169.856 32.4204 170.512 34.1324 170.512C35.3484 170.512 36.2684 170.24 36.8924 169.696C37.5324 169.152 37.8524 168.352 37.8524 167.296C37.8524 165.2 36.5404 164.152 33.9164 164.152H31.9484V162.496H33.5324C34.7964 162.496 35.7644 162.216 36.4364 161.656C37.1084 161.096 37.4444 160.296 37.4444 159.256C37.4444 158.328 37.1644 157.616 36.6044 157.12C36.0604 156.624 35.2844 156.376 34.2764 156.376C32.6444 156.376 31.0284 157.032 29.4284 158.344L28.6844 156.832C29.3724 156.176 30.2124 155.664 31.2044 155.296C32.2124 154.912 33.2604 154.72 34.3484 154.72C35.8844 154.72 37.1084 155.112 38.0204 155.896C38.9484 156.68 39.4124 157.736 39.4124 159.064C39.4124 160.04 39.1724 160.896 38.6924 161.632C38.2124 162.368 37.5484 162.896 36.7004 163.216ZM55.1471 166.648V168.28H52.5551V172H50.5871V168.28H42.7151V166.792L50.9471 154.912H52.5551V166.648H55.1471ZM44.7551 166.648H50.5871V158.248L44.7551 166.648ZM68.9137 170.344V172H57.9217V170.512L63.8977 163.888C64.6977 162.992 65.2817 162.184 65.6497 161.464C66.0177 160.744 66.2017 160.024 66.2017 159.304C66.2017 158.36 65.9297 157.64 65.3857 157.144C64.8417 156.632 64.0657 156.376 63.0577 156.376C61.4257 156.376 59.8097 157.032 58.2097 158.344L57.4657 156.832C58.1377 156.192 58.9857 155.68 60.0097 155.296C61.0337 154.912 62.0657 154.72 63.1057 154.72C64.6737 154.72 65.9137 155.128 66.8257 155.944C67.7377 156.744 68.1937 157.832 68.1937 159.208C68.1937 160.184 67.9697 161.128 67.5217 162.04C67.0897 162.936 66.3617 163.944 65.3377 165.064L60.4657 170.344H68.9137ZM77.8021 173.32H76.0261L82.1941 154.024H83.9941L77.8021 173.32ZM99.2317 163.216C100.24 163.504 101.008 164 101.536 164.704C102.064 165.408 102.328 166.296 102.328 167.368C102.328 168.856 101.824 170.032 100.816 170.896C99.8077 171.744 98.4397 172.168 96.7117 172.168C95.6077 172.168 94.5437 171.984 93.5197 171.616C92.5117 171.248 91.6557 170.728 90.9517 170.056L91.7197 168.544C93.3037 169.856 94.9517 170.512 96.6637 170.512C97.8797 170.512 98.7997 170.24 99.4237 169.696C100.064 169.152 100.384 168.352 100.384 167.296C100.384 165.2 99.0717 164.152 96.4477 164.152H94.4797V162.496H96.0637C97.3277 162.496 98.2957 162.216 98.9677 161.656C99.6397 161.096 99.9757 160.296 99.9757 159.256C99.9757 158.328 99.6957 157.616 99.1357 157.12C98.5917 156.624 97.8157 156.376 96.8077 156.376C95.1757 156.376 93.5597 157.032 91.9597 158.344L91.2157 156.832C91.9037 156.176 92.7437 155.664 93.7357 155.296C94.7437 154.912 95.7917 154.72 96.8797 154.72C98.4157 154.72 99.6397 155.112 100.552 155.896C101.48 156.68 101.944 157.736 101.944 159.064C101.944 160.04 101.704 160.896 101.224 161.632C100.744 162.368 100.08 162.896 99.2317 163.216ZM117.678 166.648V168.28H115.086V172H113.118V168.28H105.246V166.792L113.478 154.912H115.086V166.648H117.678ZM107.286 166.648H113.118V158.248L107.286 166.648ZM131.445 170.344V172H120.453V170.512L126.429 163.888C127.229 162.992 127.813 162.184 128.181 161.464C128.549 160.744 128.733 160.024 128.733 159.304C128.733 158.36 128.461 157.64 127.917 157.144C127.373 156.632 126.597 156.376 125.589 156.376C123.957 156.376 122.341 157.032 120.741 158.344L119.997 156.832C120.669 156.192 121.517 155.68 122.541 155.296C123.565 154.912 124.597 154.72 125.637 154.72C127.205 154.72 128.445 155.128 129.357 155.944C130.269 156.744 130.725 157.832 130.725 159.208C130.725 160.184 130.501 161.128 130.053 162.04C129.621 162.936 128.893 163.944 127.869 165.064L122.997 170.344H131.445Z" fill="white"/>
<path d="M67.72 191L64.036 182.54H65.104L68.38 190.208H68.008L71.308 182.54H72.34L68.632 191H67.72ZM75.0958 191.108C74.5198 191.108 74.0158 190.984 73.5838 190.736C73.1598 190.48 72.8318 190.12 72.5998 189.656C72.3678 189.184 72.2518 188.628 72.2518 187.988C72.2518 187.34 72.3678 186.784 72.5998 186.32C72.8318 185.856 73.1598 185.5 73.5838 185.252C74.0158 184.996 74.5198 184.868 75.0958 184.868C75.6798 184.868 76.1838 184.996 76.6078 185.252C77.0398 185.5 77.3718 185.856 77.6038 186.32C77.8438 186.784 77.9638 187.34 77.9638 187.988C77.9638 188.628 77.8438 189.184 77.6038 189.656C77.3718 190.12 77.0398 190.48 76.6078 190.736C76.1838 190.984 75.6798 191.108 75.0958 191.108ZM75.0958 190.316C75.6718 190.316 76.1278 190.12 76.4638 189.728C76.7998 189.328 76.9678 188.748 76.9678 187.988C76.9678 187.22 76.7958 186.64 76.4518 186.248C76.1158 185.848 75.6638 185.648 75.0958 185.648C74.5278 185.648 74.0758 185.848 73.7398 186.248C73.4038 186.64 73.2358 187.22 73.2358 187.988C73.2358 188.748 73.4038 189.328 73.7398 189.728C74.0758 190.12 74.5278 190.316 75.0958 190.316ZM81.5567 191.108C80.9647 191.108 80.5127 190.94 80.2007 190.604C79.8887 190.26 79.7327 189.744 79.7327 189.056V185.732H78.5567V184.976H79.7327V183.332L80.7047 183.056V184.976H82.4327V185.732H80.7047V188.948C80.7047 189.428 80.7847 189.772 80.9447 189.98C81.1127 190.18 81.3607 190.28 81.6887 190.28C81.8407 190.28 81.9767 190.268 82.0967 190.244C82.2167 190.212 82.3247 190.176 82.4207 190.136V190.952C82.3087 191 82.1727 191.036 82.0127 191.06C81.8607 191.092 81.7087 191.108 81.5567 191.108ZM86.2334 191.108C85.2894 191.108 84.5454 190.836 84.0014 190.292C83.4574 189.74 83.1854 188.976 83.1854 188C83.1854 187.368 83.3054 186.82 83.5454 186.356C83.7854 185.884 84.1214 185.52 84.5534 185.264C84.9854 185 85.4814 184.868 86.0414 184.868C86.5934 184.868 87.0574 184.984 87.4334 185.216C87.8094 185.448 88.0974 185.78 88.2974 186.212C88.4974 186.636 88.5974 187.14 88.5974 187.724V188.084H83.9294V187.472H87.9614L87.7574 187.628C87.7574 186.988 87.6134 186.488 87.3254 186.128C87.0374 185.768 86.6094 185.588 86.0414 185.588C85.4414 185.588 84.9734 185.8 84.6374 186.224C84.3014 186.64 84.1334 187.204 84.1334 187.916V188.024C84.1334 188.776 84.3174 189.348 84.6854 189.74C85.0614 190.124 85.5854 190.316 86.2574 190.316C86.6174 190.316 86.9534 190.264 87.2654 190.16C87.5854 190.048 87.8894 189.868 88.1774 189.62L88.5134 190.304C88.2494 190.56 87.9134 190.76 87.5054 190.904C87.1054 191.04 86.6814 191.108 86.2334 191.108ZM92.0887 191.108C91.6087 191.108 91.1607 191.044 90.7447 190.916C90.3287 190.78 89.9847 190.592 89.7127 190.352L90.0487 189.668C90.3447 189.9 90.6647 190.072 91.0087 190.184C91.3607 190.296 91.7247 190.352 92.1007 190.352C92.5807 190.352 92.9407 190.268 93.1807 190.1C93.4287 189.924 93.5527 189.684 93.5527 189.38C93.5527 189.148 93.4727 188.964 93.3127 188.828C93.1607 188.684 92.9087 188.572 92.5567 188.492L91.4407 188.264C90.9287 188.152 90.5447 187.964 90.2887 187.7C90.0327 187.428 89.9047 187.084 89.9047 186.668C89.9047 186.316 89.9967 186.008 90.1807 185.744C90.3647 185.472 90.6327 185.26 90.9847 185.108C91.3367 184.948 91.7487 184.868 92.2207 184.868C92.6607 184.868 93.0647 184.936 93.4327 185.072C93.8087 185.2 94.1207 185.388 94.3687 185.636L94.0207 186.308C93.7807 186.076 93.5047 185.904 93.1927 185.792C92.8887 185.672 92.5727 185.612 92.2447 185.612C91.7727 185.612 91.4167 185.708 91.1767 185.9C90.9447 186.084 90.8287 186.328 90.8287 186.632C90.8287 186.864 90.9007 187.056 91.0447 187.208C91.1967 187.352 91.4287 187.46 91.7407 187.532L92.8567 187.76C93.4007 187.88 93.8047 188.068 94.0687 188.324C94.3407 188.572 94.4767 188.908 94.4767 189.332C94.4767 189.692 94.3767 190.008 94.1767 190.28C93.9767 190.544 93.6967 190.748 93.3367 190.892C92.9847 191.036 92.5687 191.108 92.0887 191.108Z" fill="white"/>
<path d="M94.2175 92.3515C93.3759 91.7478 92.2046 91.941 91.6012 92.783L74.0576 117.257L68.2014 111.392C67.7278 110.918 67.0374 110.733 66.3903 110.906C65.7432 111.08 65.2376 111.585 65.0641 112.233C64.8905 112.88 65.0754 113.571 65.5489 114.045L72.9676 121.467C73.3616 121.846 73.8995 122.038 74.4444 121.994C74.9894 121.949 75.4891 121.673 75.8164 121.234L94.6487 94.9693C95.252 94.1272 95.059 92.9552 94.2175 92.3515Z" fill="white"/>
<defs>
<radialGradient id="paint0_radial_881_311271" cx="0" cy="0" r="1" gradientUnits="userSpaceOnUse" gradientTransform="translate(160 208) rotate(-180) scale(160 208)">
<stop stop-color="#41A38E"/>
<stop offset="1" stop-color="#21BCA5"/>
</radialGradient>
</defs>
</svg>
