<svg width="160" height="184" viewBox="0 0 160 184" fill="none" xmlns="http://www.w3.org/2000/svg">
<rect width="64" height="64" rx="5.56522" fill="#1F2348" fill-opacity="0.2"/>
<path opacity="0.6" d="M33.0391 22.851V38.7998H30.4855V28.899L26.252 38.7998H24.348L20.092 29.011V38.7998H17.5384V22.851H19.8232L25.3112 35.3278L30.7544 22.851H33.0391ZM47.1424 36.4478V38.7998H37.3088V36.4478H40.8032V26.1662L37.5552 28.115V25.539L41.9904 22.851H43.6704V36.4478H47.1424Z" fill="#1F2348"/>
<rect opacity="0.15" x="77" y="17" width="6" height="6" rx="2" fill="#1F2348"/>
<rect opacity="0.15" x="77" y="29" width="6" height="6" rx="2" fill="#1F2348"/>
<rect opacity="0.15" x="77" y="41" width="6" height="6" rx="2" fill="#1F2348"/>
<rect opacity="0.05" x="89" y="17" width="6" height="6" rx="2" fill="#1F2348"/>
<rect opacity="0.05" x="89" y="29" width="6" height="6" rx="2" fill="#1F2348"/>
<rect opacity="0.05" x="89" y="41" width="6" height="6" rx="2" fill="#1F2348"/>
<rect opacity="0.15" x="101" y="17" width="6" height="6" rx="2" fill="#1F2348"/>
<rect opacity="0.15" x="101" y="29" width="6" height="6" rx="2" fill="#1F2348"/>
<rect opacity="0.15" x="101" y="41" width="6" height="6" rx="2" fill="#1F2348"/>
<rect opacity="0.15" x="83" y="167" width="6" height="6" rx="2" transform="rotate(-180 83 167)" fill="#1F2348"/>
<rect opacity="0.15" x="83" y="155" width="6" height="6" rx="2" transform="rotate(-180 83 155)" fill="#1F2348"/>
<rect opacity="0.15" x="83" y="143" width="6" height="6" rx="2" transform="rotate(-180 83 143)" fill="#1F2348"/>
<rect opacity="0.05" x="71" y="167" width="6" height="6" rx="2" transform="rotate(-180 71 167)" fill="#1F2348"/>
<rect opacity="0.05" x="71" y="155" width="6" height="6" rx="2" transform="rotate(-180 71 155)" fill="#1F2348"/>
<rect opacity="0.05" x="71" y="143" width="6" height="6" rx="2" transform="rotate(-180 71 143)" fill="#1F2348"/>
<rect opacity="0.15" x="59" y="167" width="6" height="6" rx="2" transform="rotate(-180 59 167)" fill="#1F2348"/>
<rect opacity="0.15" x="59" y="155" width="6" height="6" rx="2" transform="rotate(-180 59 155)" fill="#1F2348"/>
<rect opacity="0.15" x="59" y="143" width="6" height="6" rx="2" transform="rotate(-180 59 143)" fill="#1F2348"/>
<rect opacity="0.15" x="143" y="17" width="6" height="6" rx="2" transform="rotate(90 143 17)" fill="#1F2348"/>
<rect opacity="0.15" x="131" y="17" width="6" height="6" rx="2" transform="rotate(90 131 17)" fill="#1F2348"/>
<rect opacity="0.15" x="119" y="17" width="6" height="6" rx="2" transform="rotate(90 119 17)" fill="#1F2348"/>
<rect opacity="0.15" x="143" y="29" width="6" height="6" rx="2" transform="rotate(90 143 29)" fill="#1F2348"/>
<rect opacity="0.15" x="131" y="29" width="6" height="6" rx="2" transform="rotate(90 131 29)" fill="#1F2348"/>
<rect opacity="0.15" x="119" y="29" width="6" height="6" rx="2" transform="rotate(90 119 29)" fill="#1F2348"/>
<rect opacity="0.15" x="143" y="41" width="6" height="6" rx="2" transform="rotate(90 143 41)" fill="#1F2348"/>
<rect opacity="0.15" x="131" y="41" width="6" height="6" rx="2" transform="rotate(90 131 41)" fill="#1F2348"/>
<rect opacity="0.15" x="119" y="41" width="6" height="6" rx="2" transform="rotate(90 119 41)" fill="#1F2348"/>
<rect opacity="0.05" x="143" y="53" width="6" height="6" rx="2" transform="rotate(90 143 53)" fill="#1F2348"/>
<rect opacity="0.05" x="131" y="53" width="6" height="6" rx="2" transform="rotate(90 131 53)" fill="#1F2348"/>
<rect opacity="0.05" x="119" y="53" width="6" height="6" rx="2" transform="rotate(90 119 53)" fill="#1F2348"/>
<rect opacity="0.15" x="143" y="65" width="6" height="6" rx="2" transform="rotate(90 143 65)" fill="#1F2348"/>
<rect opacity="0.15" x="131" y="65" width="6" height="6" rx="2" transform="rotate(90 131 65)" fill="#1F2348"/>
<rect opacity="0.15" x="119" y="65" width="6" height="6" rx="2" transform="rotate(90 119 65)" fill="#1F2348"/>
<rect opacity="0.15" x="143" y="77" width="6" height="6" rx="2" transform="rotate(90 143 77)" fill="#1F2348"/>
<rect opacity="0.15" x="131" y="77" width="6" height="6" rx="2" transform="rotate(90 131 77)" fill="#1F2348"/>
<rect opacity="0.15" x="119" y="77" width="6" height="6" rx="2" transform="rotate(90 119 77)" fill="#1F2348"/>
<rect opacity="0.15" x="143" y="89" width="6" height="6" rx="2" transform="rotate(90 143 89)" fill="#1F2348"/>
<rect opacity="0.15" x="131" y="89" width="6" height="6" rx="2" transform="rotate(90 131 89)" fill="#1F2348"/>
<rect opacity="0.15" x="119" y="89" width="6" height="6" rx="2" transform="rotate(90 119 89)" fill="#1F2348"/>
<rect opacity="0.15" x="143" y="101" width="6" height="6" rx="2" transform="rotate(90 143 101)" fill="#1F2348"/>
<rect opacity="0.15" x="131" y="101" width="6" height="6" rx="2" transform="rotate(90 131 101)" fill="#1F2348"/>
<rect opacity="0.15" x="119" y="101" width="6" height="6" rx="2" transform="rotate(90 119 101)" fill="#1F2348"/>
<rect opacity="0.15" x="17" y="167" width="6" height="6" rx="2" transform="rotate(-90 17 167)" fill="#1F2348"/>
<rect opacity="0.15" x="29" y="167" width="6" height="6" rx="2" transform="rotate(-90 29 167)" fill="#1F2348"/>
<rect opacity="0.15" x="41" y="167" width="6" height="6" rx="2" transform="rotate(-90 41 167)" fill="#1F2348"/>
<rect opacity="0.15" x="17" y="155" width="6" height="6" rx="2" transform="rotate(-90 17 155)" fill="#1F2348"/>
<rect opacity="0.15" x="29" y="155" width="6" height="6" rx="2" transform="rotate(-90 29 155)" fill="#1F2348"/>
<rect opacity="0.15" x="41" y="155" width="6" height="6" rx="2" transform="rotate(-90 41 155)" fill="#1F2348"/>
<rect opacity="0.15" x="17" y="143" width="6" height="6" rx="2" transform="rotate(-90 17 143)" fill="#1F2348"/>
<rect opacity="0.15" x="29" y="143" width="6" height="6" rx="2" transform="rotate(-90 29 143)" fill="#1F2348"/>
<rect opacity="0.15" x="41" y="143" width="6" height="6" rx="2" transform="rotate(-90 41 143)" fill="#1F2348"/>
<rect opacity="0.05" x="17" y="131" width="6" height="6" rx="2" transform="rotate(-90 17 131)" fill="#1F2348"/>
<rect opacity="0.05" x="29" y="131" width="6" height="6" rx="2" transform="rotate(-90 29 131)" fill="#1F2348"/>
<rect opacity="0.05" x="41" y="131" width="6" height="6" rx="2" transform="rotate(-90 41 131)" fill="#1F2348"/>
<rect opacity="0.15" x="17" y="119" width="6" height="6" rx="2" transform="rotate(-90 17 119)" fill="#1F2348"/>
<rect opacity="0.15" x="29" y="119" width="6" height="6" rx="2" transform="rotate(-90 29 119)" fill="#1F2348"/>
<rect opacity="0.15" x="41" y="119" width="6" height="6" rx="2" transform="rotate(-90 41 119)" fill="#1F2348"/>
<rect opacity="0.15" x="17" y="107" width="6" height="6" rx="2" transform="rotate(-90 17 107)" fill="#1F2348"/>
<rect opacity="0.15" x="29" y="107" width="6" height="6" rx="2" transform="rotate(-90 29 107)" fill="#1F2348"/>
<rect opacity="0.15" x="41" y="107" width="6" height="6" rx="2" transform="rotate(-90 41 107)" fill="#1F2348"/>
<rect opacity="0.15" x="17" y="95" width="6" height="6" rx="2" transform="rotate(-90 17 95)" fill="#1F2348"/>
<rect opacity="0.15" x="29" y="95" width="6" height="6" rx="2" transform="rotate(-90 29 95)" fill="#1F2348"/>
<rect opacity="0.15" x="41" y="95" width="6" height="6" rx="2" transform="rotate(-90 41 95)" fill="#1F2348"/>
<rect opacity="0.15" x="17" y="83" width="6" height="6" rx="2" transform="rotate(-90 17 83)" fill="#1F2348"/>
<rect opacity="0.15" x="29" y="83" width="6" height="6" rx="2" transform="rotate(-90 29 83)" fill="#1F2348"/>
<rect opacity="0.15" x="41" y="83" width="6" height="6" rx="2" transform="rotate(-90 41 83)" fill="#1F2348"/>
<rect x="96" y="120" width="64" height="64" rx="5.56522" fill="#1F2348" fill-opacity="0.2"/>
<path opacity="0.6" d="M129.028 142.851V158.8H126.475V148.899L122.241 158.8H120.337L116.081 149.011V158.8H113.527V142.851H115.812L121.3 155.328L126.743 142.851H129.028ZM143.087 156.448V158.8H132.379V156.672L137.8 150.825C138.442 150.124 138.913 149.481 139.211 148.899C139.51 148.317 139.659 147.742 139.659 147.174C139.659 146.442 139.443 145.89 139.01 145.517C138.592 145.143 137.987 144.957 137.195 144.957C135.792 144.957 134.351 145.509 132.872 146.614L131.909 144.509C132.536 143.941 133.343 143.493 134.328 143.165C135.314 142.821 136.307 142.649 137.307 142.649C138.905 142.649 140.167 143.045 141.093 143.837C142.034 144.613 142.504 145.666 142.504 146.995C142.504 147.906 142.303 148.765 141.899 149.571C141.511 150.377 140.854 151.281 139.928 152.281L136.008 156.448H143.087Z" fill="#1F2348"/>
</svg>
