<svg width="24" height="23" viewBox="0 0 24 23" fill="none" xmlns="http://www.w3.org/2000/svg">
<path fill-rule="evenodd" clip-rule="evenodd" d="M3.51461 3.3618C8.20076 -1.04704 15.7993 -1.04927 20.4884 3.35683C25.1705 7.77111 25.1705 14.9169 20.4884 19.3312C15.7993 23.7373 8.20076 23.735 3.51461 19.3262C-1.17154 14.9173 -1.17154 7.77065 3.51461 3.3618ZM16.6708 15.723C17.0455 15.3691 17.061 14.8016 16.7063 14.4299L13.5937 11.5034C13.4963 11.4115 13.4963 11.2629 13.5937 11.1711L16.7063 8.24354C17.0974 7.87599 17.0976 7.27985 16.7068 6.91203C16.316 6.54422 15.6822 6.54401 15.2911 6.91156L12.1785 9.83909C12.1315 9.88336 12.0678 9.90823 12.0013 9.90823C11.9348 9.90823 11.8711 9.88336 11.8242 9.83909L8.71254 6.91156C8.31648 6.57522 7.70951 6.59028 7.33285 6.94579C6.9562 7.3013 6.94234 7.87223 7.30135 8.24354L10.414 11.1711C10.461 11.2151 10.4874 11.2749 10.4874 11.3372C10.4874 11.3996 10.461 11.4594 10.414 11.5034L7.30135 14.4299C7.11341 14.6065 7.00781 14.8461 7.00781 15.0959C7.00781 15.3458 7.11341 15.5854 7.30135 15.7619C7.69646 16.1204 8.32243 16.1204 8.71754 15.7619L11.8292 12.8344C11.9274 12.7432 12.0853 12.7432 12.1835 12.8344L15.2961 15.7619C15.6927 16.094 16.2961 16.0769 16.6708 15.723Z" fill="white" fill-opacity="0.25"/>
</svg>
