<svg width="24" height="24" viewBox="0 0 24 24" fill="none" xmlns="http://www.w3.org/2000/svg">
<path opacity="0.2" fill-rule="evenodd" clip-rule="evenodd" d="M3.51461 3.51604C8.20076 -1.16995 15.7993 -1.17231 20.4884 3.51076C25.1705 8.20252 25.1705 15.7975 20.4884 20.4892C15.7993 25.1723 8.20076 25.1699 3.51461 20.484C-1.17154 15.798 -1.17154 8.20203 3.51461 3.51604ZM16.6706 16.655C17.0453 16.2788 17.0609 15.6756 16.7062 15.2806L13.5935 12.1701C13.4962 12.0725 13.4962 11.9145 13.5935 11.8169L16.7062 8.70534C17.0972 8.31468 17.0975 7.68107 16.7067 7.29013C16.3159 6.89919 15.682 6.89897 15.291 7.28963L12.1783 10.4012C12.1314 10.4482 12.0677 10.4747 12.0012 10.4747C11.9347 10.4747 11.871 10.4482 11.824 10.4012L8.71242 7.28963C8.31636 6.93214 7.70939 6.94815 7.33273 7.32601C6.95608 7.70387 6.94221 8.31068 7.30123 8.70534L10.4139 11.8169C10.4609 11.8636 10.4873 11.9272 10.4873 11.9935C10.4873 12.0598 10.4609 12.1233 10.4139 12.1701L7.30123 15.2806C7.11329 15.4683 7.00769 15.7229 7.00769 15.9885C7.00769 16.254 7.11329 16.5087 7.30123 16.6963C7.69634 17.0774 8.32231 17.0774 8.71742 16.6963L11.8291 13.5848C11.9273 13.4879 12.0851 13.4879 12.1833 13.5848L15.296 16.6963C15.6926 17.0493 16.296 17.0311 16.6706 16.655Z" fill="#1F2348"/>
</svg>
