<svg xmlns="http://www.w3.org/2000/svg" width="48" height="48" fill="none"><path fill="#1F2348" fill-rule="evenodd" d="M9 42v3a3 3 0 0 0 3 3h33a3 3 0 0 0 3-3V10.5a3 3 0 0 0-3-3h-6V39a3 3 0 0 1-3 3H9Z" clip-rule="evenodd" opacity=".2"/><path fill="url(#a)" fill-rule="evenodd" d="M0 3a3 3 0 0 1 3-3h33a3 3 0 0 1 3 3v36a3 3 0 0 1-3 3H3a3 3 0 0 1-3-3V3Zm6 4.5A1.5 1.5 0 0 1 7.5 6h12a1.5 1.5 0 0 1 0 3h-12A1.5 1.5 0 0 1 6 7.5Zm1.5 6a1.5 1.5 0 0 0 0 3h15a1.5 1.5 0 0 0 0-3h-15Zm-1.5 9A1.5 1.5 0 0 1 7.5 21H18a1.5 1.5 0 0 1 0 3H7.5A1.5 1.5 0 0 1 6 22.5Zm1.5 6a1.5 1.5 0 0 0 0 3h12a1.5 1.5 0 0 0 0-3h-12Z" clip-rule="evenodd"/><defs><radialGradient id="a" cx="0" cy="0" r="1" gradientTransform="matrix(35.20673 35.08637 -29.7558 29.85787 3.563 5.298)" gradientUnits="userSpaceOnUse"><stop stop-color="#1F2348" stop-opacity=".1"/><stop offset="1" stop-color="#1F2348" stop-opacity=".4"/></radialGradient></defs></svg>