<svg xmlns="http://www.w3.org/2000/svg" width="30" height="27" fill="none" viewBox="0 0 30 27">
  <path fill="url(#a)" fill-opacity=".6" d="M29.314 11.25a4.482 4.482 0 0 1 0 4.5l-5.22 9A4.524 4.524 0 0 1 20.18 27H9.74a4.524 4.524 0 0 1-3.914-2.25l-5.22-9a4.483 4.483 0 0 1 0-4.5l5.22-9A4.524 4.524 0 0 1 9.741 0H20.18c1.615 0 3.107.858 3.915 2.25l5.22 9Z"/>
  <path fill="#1F2348" fill-opacity=".2" d="M29.314 11.25a4.482 4.482 0 0 1 0 4.5l-5.22 9A4.524 4.524 0 0 1 20.18 27H9.74a4.524 4.524 0 0 1-3.914-2.25l-5.22-9a4.483 4.483 0 0 1 0-4.5l5.22-9A4.524 4.524 0 0 1 9.741 0H20.18c1.615 0 3.107.858 3.915 2.25l5.22 9Z" style="mix-blend-mode:color-burn"/>
  <path fill="url(#b)" fill-opacity=".3" fill-rule="evenodd" d="m23.23 24.248 5.219-9a3.482 3.482 0 0 0 0-3.496l-5.22-9A3.524 3.524 0 0 0 20.18 1H9.742c-1.26 0-2.422.67-3.05 1.752l-5.22 9a3.482 3.482 0 0 0 0 3.496l5.22 9A3.524 3.524 0 0 0 9.741 26H20.18c1.26 0 2.422-.67 3.05-1.752Zm6.084-8.498a4.482 4.482 0 0 0 0-4.5l-5.22-9A4.524 4.524 0 0 0 20.18 0H9.74a4.524 4.524 0 0 0-3.914 2.25l-5.22 9a4.483 4.483 0 0 0 0 4.5l5.22 9A4.524 4.524 0 0 0 9.741 27H20.18a4.524 4.524 0 0 0 3.915-2.25l5.22-9Z" clip-rule="evenodd"/>
  <path fill="url(#c)" d="M.606 15.75a4.483 4.483 0 0 1 0-4.5l5.22-9A4.524 4.524 0 0 1 9.74 0h10.439c1.615 0 3.107.858 3.915 2.25l5.22 9a4.482 4.482 0 0 1 0 4.5l-5.22 9A4.524 4.524 0 0 1 20.179 27H9.739a4.524 4.524 0 0 1-3.914-2.25l-5.22-9Z" style="mix-blend-mode:color-dodge"/>
  <defs>
    <linearGradient id="a" x1="2.369" x2="24.122" y1="1.012" y2="28.542" gradientUnits="userSpaceOnUse">
      <stop stop-color="#CCE8FE"/>
      <stop offset=".242" stop-color="#CDA0FF"/>
      <stop offset=".4" stop-color="#8489F5"/>
      <stop offset=".713" stop-color="#CDF1FF"/>
      <stop offset="1" stop-color="#B591E9"/>
    </linearGradient>
    <linearGradient id="b" x1="2.369" x2="24.122" y1="1.012" y2="28.542" gradientUnits="userSpaceOnUse">
      <stop stop-color="#CCE8FE"/>
      <stop offset=".242" stop-color="#CDA0FF"/>
      <stop offset=".4" stop-color="#8489F5"/>
      <stop offset=".713" stop-color="#CDF1FF"/>
      <stop offset="1" stop-color="#B591E9"/>
    </linearGradient>
    <linearGradient id="c" x1="22.501" x2="6.574" y1="23.5" y2="5.101" gradientUnits="userSpaceOnUse">
      <stop stop-color="#79AEE7"/>
      <stop offset=".332" stop-color="#4960A7"/>
      <stop offset="1" stop-color="#1B2030" stop-opacity=".25"/>
    </linearGradient>
  </defs>
</svg>
