<svg width="44" height="47" viewBox="0 0 44 47" fill="none" xmlns="http://www.w3.org/2000/svg">
  <g clip-path="url(#a)">
    <path d="M19.78.7a1.76 1.76 0 0 0-2.02.28 1.64 1.64 0 0 0-.32 1.97 13.39 13.39 0 0 1 .06 12.34.35.35 0 0 1-.6-.01 7.47 7.47 0 0 1-.77-2.1 1.01 1.01 0 0 0-.66-.75 1.07 1.07 0 0 0-1 .16 11.6 11.6 0 0 0-4 5.85c-.68 2.3-.62 4.76.19 7.03a10.5 10.5 0 0 0 4.12 5.23c1.93 1.27 4.2 1.9 6.52 1.79 5.8 0 9.86-2.88 11.14-7.9C34.34 17.2 29.7 5.83 19.78.7Zm6.5 23.98a4.43 4.43 0 0 1-1.64 2.82c-.9.7-2.03 1.05-3.17.97-1.1 0-2.16-.37-3-1.07a4.53 4.53 0 0 1-1.6-2.7.67.67 0 0 1 .49-.77 4.21 4.21 0 0 0 3.77-1.9 3.01 3.01 0 0 0 .62-3.3.67.67 0 0 1 .43-.97.7.7 0 0 1 .4.02 6.43 6.43 0 0 1 3.07 2.83c.66 1.24.89 2.68.64 4.07" fill="url(#b)"/>
    <path d="M11.7 33.46c-.63-.87.37-1.98 1.3-1.45l.75.42a16.02 16.02 0 0 0 16.34-.3c.92-.55 1.96.52 1.37 1.41L23.6 45.33a2 2 0 0 1-3.29.06L11.7 33.46Z" fill="url(#c)"/>
  </g>
  <defs>
    <radialGradient id="b" cx="0" cy="0" r="1" gradientUnits="userSpaceOnUse" gradientTransform="matrix(13 33 -21 8 12.86 7.23)">
      <stop stop-color="#fff"/>
      <stop offset="1" stop-color="#fff" stop-opacity=".62"/>
    </radialGradient>
    <radialGradient id="c" cx="0" cy="0" r="1" gradientUnits="userSpaceOnUse" gradientTransform="matrix(13 33 -21 8 12.86 7.23)">
      <stop stop-color="#fff"/>
      <stop offset="1" stop-color="#fff" stop-opacity=".62"/>
    </radialGradient>
    <clipPath id="a">
      <path fill="#fff" d="M0 .5h44v46H0z"/>
    </clipPath>
  </defs>
</svg>
