<svg width="124" height="24" viewBox="0 0 124 24" fill="none" xmlns="http://www.w3.org/2000/svg">
<path fill-rule="evenodd" clip-rule="evenodd" d="M28.0254 2.88923C28.7801 2.54256 29.1148 1.64523 28.7708 0.887896C28.6034 0.523273 28.2987 0.239602 27.923 0.0987331C27.5474 -0.042136 27.1313 -0.0287775 26.7654 0.135896L26.7441 0.145229L4.08143 16.2919L28.0254 2.88923ZM87.5108 22.8706V0.0278961H89.9588V22.8706H87.5108ZM49.2201 21.6639C50.8068 22.6417 52.6992 23.1306 54.8974 23.1306C56.2041 23.1306 57.3574 22.935 58.3574 22.5439C59.3797 22.1528 60.2499 21.6523 60.9681 21.0426C61.6422 20.4619 62.2347 19.7927 62.7294 19.0532V22.8706H64.9828V11.3839H54.8321V13.6026H62.7294C62.7294 15.1048 62.3597 16.3883 61.6201 17.4532C60.9111 18.5101 59.9299 19.3558 58.7801 19.9012C57.6333 20.4651 56.3713 20.7553 55.0934 20.7492C53.353 20.7492 51.8521 20.3688 50.5908 19.6079C49.3714 18.8476 48.3879 17.7626 47.7508 16.4746C47.0974 15.1475 46.7712 13.679 46.7721 12.0692C46.7721 10.4372 47.0983 8.96878 47.7508 7.6639C48.4078 6.3775 49.4149 5.3029 50.6561 4.5639C51.9183 3.78078 53.4192 3.38923 55.1588 3.38923C56.8121 3.38923 58.2152 3.72612 59.3681 4.3999C60.5153 5.04585 61.4635 5.994 62.1094 7.14123H64.7854C63.981 5.33501 62.7192 3.86656 61.0001 2.7359C59.3023 1.58301 57.2899 1.00656 54.9628 1.00656C52.8099 1.00656 50.9281 1.50701 49.3174 2.5079C47.7446 3.46968 46.4683 4.84753 45.6294 6.48923C44.7601 8.1639 44.325 10.0239 44.3241 12.0692C44.3241 14.1146 44.7485 15.9746 45.5974 17.6492C46.417 19.2919 47.6696 20.681 49.2201 21.6639ZM71.1374 22.0212C72.3348 22.7608 73.7272 23.1306 75.3148 23.1306C76.6641 23.1306 77.817 22.8697 78.7734 22.3479C79.724 21.8531 80.5413 21.1364 81.1561 20.2586V22.8692H83.6041V6.55456H81.1561V9.19723C80.5471 8.30641 79.729 7.57849 78.7734 7.07723C77.817 6.55456 76.6641 6.29323 75.3148 6.29323C73.7281 6.29323 72.3356 6.67367 71.1374 7.43456C69.9625 8.17562 69.0145 9.22605 68.3974 10.4706C67.7441 11.7328 67.4174 13.1466 67.4174 14.7119C67.4174 16.2577 67.7441 17.6719 68.3974 18.9546C69.0194 20.2039 69.9658 21.263 71.1374 22.0212ZM78.7094 20.0626C77.8828 20.6288 76.8605 20.9119 75.6428 20.9119C74.4454 20.9119 73.4117 20.6288 72.5414 20.0626C71.683 19.5103 70.994 18.7314 70.5508 17.8119C70.0899 16.8435 69.8556 15.7829 69.8654 14.7106C69.8654 13.5799 70.0939 12.5466 70.5508 11.6106C70.994 10.6911 71.683 9.91215 72.5414 9.3599C73.4117 8.79456 74.445 8.5119 75.6414 8.5119C76.8592 8.5119 77.8814 8.79456 78.7081 9.3599C79.5489 9.91547 80.2166 10.6963 80.6348 11.6132C81.0703 12.5475 81.2881 13.5803 81.2881 14.7119C81.2881 15.8221 81.0703 16.8559 80.6348 17.8132C80.2165 18.729 79.5494 19.5089 78.7094 20.0639M98.1854 14.4506L91.8868 22.8706H94.9868L99.6201 16.2132L104.221 22.8706H107.355L101.024 14.4519L106.931 6.55456H103.797L99.6214 12.7199L95.4121 6.55323H92.2788L98.1854 14.4506ZM115.837 23.1306C114.184 23.1306 112.737 22.7612 111.497 22.0226C110.272 21.2791 109.268 20.22 108.592 18.9559C107.918 17.6715 107.581 16.2568 107.581 14.7119C107.581 13.1466 107.908 11.7328 108.56 10.4706C109.188 9.21245 110.162 8.15934 111.367 7.43456C112.585 6.67367 114.02 6.29323 115.673 6.29323C117.35 6.29323 118.786 6.67367 119.981 7.43456C121.186 8.15992 122.159 9.21287 122.788 10.4706C123.441 11.7328 123.767 13.1466 123.767 14.7119V15.6919H110.093C110.224 16.6492 110.529 17.5301 111.008 18.3346C111.509 19.1177 112.172 19.7488 112.997 20.2279C113.824 20.6848 114.781 20.9132 115.869 20.9132C117.022 20.9132 117.991 20.663 118.775 20.1626C119.539 19.6606 120.167 18.9765 120.601 18.1719H123.277C122.733 19.6008 121.794 20.8456 120.569 21.7612C119.352 22.675 117.774 23.1319 115.836 23.1319M110.125 13.4079H121.221C121.003 12.0159 120.415 10.8523 119.459 9.91723C118.501 8.98123 117.239 8.51323 115.672 8.51323C114.107 8.51323 112.845 8.98123 111.888 9.91723C110.952 10.8523 110.365 12.0159 110.125 13.4079ZM37.1641 1.94656C37.6908 2.12256 38.1174 2.49323 38.3641 2.9879C38.6108 3.48256 38.6521 4.04656 38.4761 4.57323C38.3904 4.83194 38.2544 5.07116 38.076 5.2771C37.8975 5.48305 37.68 5.65166 37.4361 5.77323L0.634766 23.9999L35.5681 2.06523L35.5801 2.05856C35.8239 1.9362 36.0895 1.8633 36.3616 1.84408C36.6337 1.82486 36.9055 1.85969 37.1641 1.94656ZM29.8908 14.6332C30.0378 14.9268 30.0624 15.2667 29.9592 15.5784C29.856 15.8901 29.6333 16.1481 29.3401 16.2959L13.6348 22.6052L28.2054 14.0852L28.2228 14.0772C28.3686 14.004 28.5276 13.9603 28.6904 13.9486C28.8532 13.9369 29.0167 13.9575 29.1716 14.0091C29.3264 14.0608 29.4695 14.1425 29.5927 14.2496C29.7159 14.3567 29.8167 14.4871 29.8894 14.6332" fill="#1F2348"/>
</svg>
