<svg xmlns="http://www.w3.org/2000/svg" width="145" height="137" fill="none"><g opacity=".06"><mask id="a" width="112" height="137" x="-.016" y="-.371" fill="#000" maskUnits="userSpaceOnUse"><path fill="#fff" d="M-.016-.371h112v137h-112z"/><path d="M110.813 17.648a1.159 1.159 0 0 0-.152-1.646 67.31 67.31 0 0 0-70.597-8.794 67.314 67.314 0 1 0 69.863 114.006 1.159 1.159 0 0 0 .174-1.644L86.058 90.09c-.41-.502-1.148-.575-1.667-.187a26.925 26.925 0 1 1 .3-42.95c.514.395 1.253.333 1.67-.164l24.452-29.14Z"/></mask><path fill="#1F2348" d="M110.813 17.648a1.159 1.159 0 0 0-.152-1.646 67.31 67.31 0 0 0-70.597-8.794 67.314 67.314 0 1 0 69.863 114.006 1.159 1.159 0 0 0 .174-1.644L86.058 90.09c-.41-.502-1.148-.575-1.667-.187a26.925 26.925 0 1 1 .3-42.95c.514.395 1.253.333 1.67-.164l24.452-29.14Z"/><path stroke="#1F2348" stroke-width="1.565" d="M110.813 17.648a1.159 1.159 0 0 0-.152-1.646 67.31 67.31 0 0 0-70.597-8.794 67.314 67.314 0 1 0 69.863 114.006 1.159 1.159 0 0 0 .174-1.644L86.058 90.09c-.41-.502-1.148-.575-1.667-.187a26.925 26.925 0 1 1 .3-42.95c.514.395 1.253.333 1.67-.164l24.452-29.14Z" mask="url(#a)"/></g><path fill="url(#b)" d="M120.183 17.647a1.159 1.159 0 0 1 1.648-.137 67.317 67.317 0 0 1 16.544 79.889 67.299 67.299 0 0 1-17.258 22.329 1.157 1.157 0 0 1-1.645-.16L95.429 90.089c-.41-.502-.333-1.24.151-1.671a26.923 26.923 0 0 0 .279-39.957c-.478-.438-.544-1.177-.128-1.673l24.452-29.141Z"/><path fill="#fff" d="M120.42 76h-2.14l8.32-14.1h2.14L120.42 76Zm-1.98-5.68c-1.133 0-2.02-.387-2.66-1.16-.64-.773-.96-1.827-.96-3.16 0-1.347.32-2.4.96-3.16.653-.76 1.54-1.14 2.66-1.14 1.133 0 2.02.387 2.66 1.16.64.773.96 1.82.96 3.14 0 1.333-.32 2.387-.96 3.16-.64.773-1.527 1.16-2.66 1.16Zm0-1.6c.493 0 .873-.22 1.14-.66.28-.44.42-1.127.42-2.06 0-.947-.14-1.627-.42-2.04-.267-.427-.647-.64-1.14-.64-.493 0-.88.207-1.16.62-.267.413-.4 1.1-.4 2.06s.133 1.653.4 2.08c.28.427.667.64 1.16.64Zm10.14 7.48c-1.133 0-2.02-.387-2.66-1.16-.64-.787-.96-1.847-.96-3.18 0-1.347.32-2.393.96-3.14.653-.76 1.54-1.14 2.66-1.14 1.133 0 2.02.387 2.66 1.16.64.76.96 1.8.96 3.12 0 1.333-.32 2.393-.96 3.18-.64.773-1.527 1.16-2.66 1.16Zm0-1.62c.493 0 .873-.213 1.14-.64.28-.44.42-1.133.42-2.08 0-.947-.14-1.627-.42-2.04-.267-.427-.647-.64-1.14-.64-.493 0-.88.213-1.16.64-.267.413-.4 1.093-.4 2.04 0 .96.133 1.653.4 2.08.28.427.667.64 1.16.64Z"/><defs><radialGradient id="b" cx="0" cy="0" r="1" gradientTransform="rotate(-180 72.492 60) scale(49.8194 102.771)" gradientUnits="userSpaceOnUse"><stop stop-color="#EC991C"/><stop offset="1" stop-color="#E9B213"/></radialGradient></defs></svg>