<svg xmlns="http://www.w3.org/2000/svg" fill="none" viewBox="0 0 90 80"><path fill="url(#a)" d="M88.99 36.25 70.24 3.75A7.516 7.516 0 0 0 63.74 0h-37.5a7.48 7.48 0 0 0-6.487 3.75l-18.75 32.5a7.51 7.51 0 0 0 0 7.5l18.75 32.5A7.48 7.48 0 0 0 26.241 80h37.5a7.48 7.48 0 0 0 6.487-3.75l18.75-32.5a7.48 7.48 0 0 0 .013-7.5Z" opacity=".8"/><g style="mix-blend-mode:screen"><path fill="url(#b)" fill-opacity=".6" d="M88.99 36.25 70.24 3.75A7.516 7.516 0 0 0 63.74 0h-37.5a7.48 7.48 0 0 0-6.487 3.75l-18.75 32.5a7.51 7.51 0 0 0 0 7.5l18.75 32.5A7.48 7.48 0 0 0 26.241 80h37.5a7.48 7.48 0 0 0 6.487-3.75l18.75-32.5a7.48 7.48 0 0 0 .013-7.5Z"/><path fill="#1F2348" fill-opacity=".2" d="M88.99 36.25 70.24 3.75A7.516 7.516 0 0 0 63.74 0h-37.5a7.48 7.48 0 0 0-6.487 3.75l-18.75 32.5a7.51 7.51 0 0 0 0 7.5l18.75 32.5A7.48 7.48 0 0 0 26.241 80h37.5a7.48 7.48 0 0 0 6.487-3.75l18.75-32.5a7.48 7.48 0 0 0 .013-7.5Z" style="mix-blend-mode:color-burn"/></g><path fill="url(#c)" d="M88.99 36.25 70.24 3.75A7.516 7.516 0 0 0 63.74 0h-37.5a7.48 7.48 0 0 0-6.487 3.75l-18.75 32.5a7.51 7.51 0 0 0 0 7.5l18.75 32.5A7.48 7.48 0 0 0 26.241 80h37.5a7.48 7.48 0 0 0 6.487-3.75l18.75-32.5a7.48 7.48 0 0 0 .013-7.5Z" style="mix-blend-mode:color-dodge"/><defs><linearGradient id="b" x1="7.124" x2="71.345" y1="3" y2="85.51" gradientUnits="userSpaceOnUse"><stop stop-color="#CCE8FE"/><stop offset=".242" stop-color="#CDA0FF"/><stop offset=".4" stop-color="#8489F5"/><stop offset=".713" stop-color="#CDF1FF"/><stop offset="1" stop-color="#B591E9"/></linearGradient><linearGradient id="c" x1="89.992" x2="13.815" y1="79.785" y2="11.475" gradientUnits="userSpaceOnUse"><stop stop-color="#79AEE7"/><stop offset=".332" stop-color="#4960A7"/><stop offset="1" stop-color="#1B2030" stop-opacity=".25"/></linearGradient><radialGradient id="a" cx="0" cy="0" r="1" gradientTransform="matrix(50.62071 58.47939 -55.23572 47.81294 11.25 11.774)" gradientUnits="userSpaceOnUse"><stop stop-color="#fff"/><stop offset="1" stop-color="#fff" stop-opacity=".62"/></radialGradient></defs></svg>