<svg xmlns="http://www.w3.org/2000/svg" width="48" height="48" fill="none"><path fill="url(#a)" fill-rule="evenodd" d="M5.879 27.94a14.888 14.888 0 0 1 1.941-.155c-2.84-3.382-4.369-7.61-3.628-11.712.149-.803.853-1.397 1.687-1.5 3.27-.494 6.582.136 9.555 1.528a14.69 14.69 0 0 1 1.81-10.296A15.361 15.361 0 0 1 22.941.282a2.141 2.141 0 0 1 2.08-.024c6.077 3.358 8.683 9.864 7.548 15.852a18.307 18.307 0 0 1 1.886-.758c2.58-.87 5.232-1.148 7.68-.777.833.104 1.538.7 1.676 1.501.741 4.098-.777 8.327-3.628 11.712.655.01 1.313.061 1.952.155.833.113 1.538.7 1.676 1.51 1.631 8.984-7.63 18.599-17.824 18.547H22.02c-10.19.052-19.454-9.563-17.834-18.547.15-.81.854-1.397 1.687-1.51l.007-.003ZM24 4.024c-6.49 4.53-6.49 14.12 0 18.65 6.489-4.53 6.489-14.12 0-18.65ZM12.186 18.78c-1.425-.484-2.85-.725-4.21-.716-.047 6.515 6.965 12.97 14.034 12.927v-.002c0-.103 0-.206.01-.309-.143-5.169-4.641-10.131-9.837-11.9h.003Zm13.802 12.21v-.334c.186-6.396 7.088-12.634 14.044-12.592.046 6.515-6.966 12.97-14.044 12.927Zm0 13.04v.335c7.078.042 14.09-6.42 14.044-12.927-6.956-.042-13.858 6.187-14.044 12.592ZM7.976 31.438c1.36-.009 2.785.232 4.21.716h-.003c5.196 1.76 9.694 6.731 9.836 11.9-.01.103-.01.206-.01.309v.002c-7.068.042-14.08-6.42-14.033-12.927Z" clip-rule="evenodd"/><defs><radialGradient id="a" cx="0" cy="0" r="1" gradientTransform="matrix(36.10947 40.0987 -33.82096 30.45627 7.654 6.055)" gradientUnits="userSpaceOnUse"><stop stop-color="#1F2348" stop-opacity=".1"/><stop offset="1" stop-color="#1F2348" stop-opacity=".4"/></radialGradient></defs></svg>