<svg xmlns="http://www.w3.org/2000/svg" fill="none" viewBox="0 0 32 44"><path fill="#1B1F55" stroke="#1B1F55" stroke-width="2" d="M21.851 15.43a14.99 14.99 0 0 0-12.468 0v-2.4c0-3.246 2.753-5.945 6.234-5.945 3.482 0 6.234 2.7 6.234 5.945v2.4Zm6.256 5.434V13.03c0-6.683-5.63-12.03-12.49-12.03-6.859 0-12.49 5.347-12.49 12.03v7.834c-3.71 5.872-2.468 13.48 2.95 17.974 5.483 4.547 13.597 4.547 19.08 0 5.42-4.494 6.661-12.102 2.95-17.974Zm-12.49 9.549c-1.366 0-2.404-1.054-2.404-2.268 0-1.214 1.038-2.268 2.404-2.268 1.367 0 2.404 1.053 2.404 2.268 0 1.214-1.037 2.268-2.404 2.268Z"/><path fill="url(#a)" fill-rule="evenodd" d="M27.107 21.16v-8.13C27.107 6.938 21.963 2 15.617 2 9.272 2 4.127 6.938 4.127 13.03v8.13c-3.624 5.47-2.522 12.668 2.59 16.907 5.112 4.24 12.69 4.24 17.803 0 5.113-4.24 6.214-11.436 2.588-16.909Zm-11.49 10.253c-1.88 0-3.404-1.464-3.404-3.268 0-1.805 1.524-3.268 3.404-3.268 1.881 0 3.404 1.463 3.404 3.268 0 1.804-1.523 3.268-3.404 3.268Zm6.832-15.024a.809.809 0 0 0 .402-.694V13.03c0-3.836-3.238-6.945-7.234-6.945-3.995 0-7.234 3.109-7.234 6.945v2.665c0 .282.153.545.403.694.25.149.562.163.826.038a13.989 13.989 0 0 1 12.01 0c.264.125.576.11.827-.038Z" clip-rule="evenodd" opacity=".5"/><defs><radialGradient id="a" cx="0" cy="0" r="1" gradientTransform="rotate(61.899 -3.782 8.394) scale(32.5241 25.7948)" gradientUnits="userSpaceOnUse"><stop stop-color="#fff"/><stop offset="1" stop-color="#fff" stop-opacity=".62"/></radialGradient></defs></svg>