<svg xmlns="http://www.w3.org/2000/svg" width="48" height="48" fill="none"><path fill="url(#a)" fill-rule="evenodd" d="M37.705 23.431V13.49C37.705 6.04 31.415 0 23.654 0 15.894 0 9.602 6.039 9.602 13.49v9.941c-4.434 6.693-3.087 15.495 3.166 20.68 6.252 5.185 15.52 5.185 21.772 0 6.253-5.184 7.6-13.987 3.165-20.68Zm-14.051 12.54c-2.3 0-4.164-1.79-4.164-3.996 0-2.207 1.865-3.997 4.164-3.997 2.3 0 4.163 1.79 4.163 3.997 0 2.206-1.863 3.996-4.163 3.996Zm8.355-18.373a.99.99 0 0 0 .492-.85V13.49c0-4.69-3.96-8.493-8.847-8.493-4.886 0-8.847 3.802-8.847 8.493v3.26c0 .345.187.666.492.849.306.182.688.2 1.01.046a17.107 17.107 0 0 1 14.689 0 1.08 1.08 0 0 0 1.01-.046Z" clip-rule="evenodd"/><defs><radialGradient id="a" cx="0" cy="0" r="1" gradientTransform="matrix(30.06863 40.09865 -32.64481 24.47925 10.043 6.055)" gradientUnits="userSpaceOnUse"><stop stop-color="#1F2348" stop-opacity=".1"/><stop offset="1" stop-color="#1F2348" stop-opacity=".4"/></radialGradient></defs></svg>