<svg width="120" height="121" viewBox="0 0 120 121" fill="none" xmlns="http://www.w3.org/2000/svg">
  <g clip-path="url(#a)">
    <path opacity=".4" d="M20 .5h20v48L21.8 37.1a3.6 3.6 0 0 1-1.8-3.2V.5ZM100 .5H80v48l18.2-11.4a3.6 3.6 0 0 0 1.8-3.2V.5ZM70 52.5V.5H50v52h20Z" fill="#1F2348"/>
    <path fill-rule="evenodd" clip-rule="evenodd" d="M63.2 108v5.7H58v-5.5c-3.3-.4-7.1-1.8-9.6-4.1l3.5-5.3c2.8 2 5.1 3.1 7.7 3.1 3.2 0 4.5-1.2 4.5-3.8 0-5.5-14.4-5.3-14.4-15.2 0-5.2 3.1-8.9 8.3-10v-5.4h5.3v5.4c3.4.4 6 2.2 8 4.4l-3.9 4.5c-2-1.8-3.7-2.7-6-2.7-2.6 0-4 1-4 3.5 0 5.1 14.4 4.7 14.4 15 0 5.1-2.9 9.2-8.5 10.3Zm15.9-44.6c-.8-1.7-3.2-2.9-5-2.9H45.8c-1.7 0-4 1.2-4.9 2.9L26.6 87.7a6.7 6.7 0 0 0 0 5.6l14.2 24.3c1 1.7 3.2 2.9 5 2.9h28.4c1.9 0 4-1.2 4.9-2.9l14.2-24.3c1-1.5 1-4.1 0-5.6L79 63.4Z" fill="url(#b)"/>
  </g>
  <defs>
    <radialGradient id="b" cx="0" cy="0" r="1" gradientUnits="userSpaceOnUse" gradientTransform="matrix(104 73 -65 94 28.4 42.7)">
      <stop stop-color="#1F2348" stop-opacity=".6"/>
      <stop offset="1" stop-color="#1F2348" stop-opacity=".2"/>
    </radialGradient>
    <clipPath id="a">
      <path fill="#fff" d="M0 .5h120v120H0z"/>
    </clipPath>
  </defs>
</svg>
