<svg width="35" height="40" viewBox="0 0 35 40" fill="none" xmlns="http://www.w3.org/2000/svg">
<path d="M23.8768 7.75912L23.8695 4.0151C23.8678 3.17561 23.1861 2.49641 22.3466 2.49805L19.6936 2.50326C19.7596 2.74417 19.7952 2.9895 19.8013 3.22615C19.8215 4.00521 20.0354 4.77425 20.4333 5.46038C21.0581 6.53754 22.0851 7.32242 23.2885 7.64235C23.483 7.69404 23.6795 7.73292 23.8768 7.75912Z" fill="#1f2348"/>
<path d="M11.7317 36.5495C12.7111 36.8187 13.9974 37.1712 15.2917 37.5225C12.4459 37.5281 8.35124 37.4985 7.27648 37.4907L7.01087 37.4888L2.65532 37.4975C1.81577 37.4992 1.13338 36.82 1.13173 35.9804L1.06909 4.05983C1.06745 3.22035 1.74709 2.53847 2.58657 2.53683L5.62576 2.53086C6.46525 2.52922 7.12663 3.22195 7.36481 4.02693C7.61534 4.87362 8.07501 5.65263 8.71181 6.28694C9.31915 6.8919 10.0574 7.33523 10.8597 7.5894L4.28162 32.3332C3.97717 33.4784 4.65938 34.6533 5.80414 34.9575L10.0132 36.0764C10.0136 36.0765 10.016 36.0771 10.0216 36.0787L11.7317 36.5495Z" fill="#1f2348"/>
<path fill-rule="evenodd" clip-rule="evenodd" d="M34.5177 7.34283C34.6447 6.86504 34.3605 6.37491 33.8828 6.24792L30.9437 5.46655C30.4935 5.34689 29.9257 5.61564 29.5769 6.19032C29.0649 7.03373 28.3462 7.74449 27.4773 8.24842C26.1134 9.03947 24.4911 9.25629 22.9673 8.85119C21.4435 8.44609 20.143 7.45225 19.3519 6.0883C18.848 5.21941 18.5772 4.24558 18.5516 3.25929C18.5342 2.58798 18.1739 2.07175 17.7232 1.95195L14.7861 1.17111C14.3081 1.04405 13.8177 1.32853 13.6907 1.80602L5.48956 32.6552C5.36262 33.1327 5.64711 33.6232 6.12513 33.7503L10.3345 34.8692C10.3441 34.8717 10.4353 34.8969 10.5936 34.9405C11.3358 35.1452 13.5525 35.7563 15.7487 36.3521C17.0851 36.7147 18.4171 37.0724 19.4163 37.3326C19.8566 37.4472 20.2294 37.5422 20.5084 37.6101L20.5187 37.5766L25.2221 38.8272C25.6996 38.9542 26.1895 38.6701 26.3165 38.192L34.5177 7.34283Z" fill="#1f2348"/>
</svg>
