<svg xmlns="http://www.w3.org/2000/svg" width="48" height="48" fill="none"><g clip-path="url(#a)"><path fill="url(#b)" d="M24.58 9.698c-2.151 1.916-5.093 4.538-9.467 4.353-3.94-.165-6.722-2.854-8.584-4.653a18.173 18.173 0 0 0-.915-.825A23.965 23.965 0 0 0 1.29 16.22c4.024.836 6.852 3 9.063 5.13l.002.003c2.14 2.062 3.311 3.044 4.99 3.114 1.967.083 3.341-.982 5.792-3.16 2.353-2.094 6.099-5.427 11.413-5.073 4.338.289 7.23 3.254 8.984 5.052 2.123 2.171 4.098 3.22 6.467 2.658a23.906 23.906 0 0 0-2.252-10.108c-3.917-.268-6.282-2.696-7.993-4.453 0 0-3.006-3.26-5.572-3.572-3.31-.405-7.604 3.887-7.604 3.887Z"/><path fill="url(#c)" d="M24.58 25.622c-2.151 1.916-5.093 4.538-9.467 4.353-3.94-.165-6.722-2.854-8.584-4.653-2.043-1.968-4.22-3.207-6.428-3.54C.034 22.512 0 23.252 0 24c0 2.87.504 5.622 1.427 8.173 3.951.856 6.74 2.995 8.925 5.102l.002.002c2.14 2.061 3.311 3.044 4.99 3.114 1.967.083 3.341-.982 5.792-3.16 2.353-2.094 6.099-5.427 11.413-5.073 4.338.289 7.23 3.254 8.984 5.052.515.527 1.022.988 1.528 1.376a23.906 23.906 0 0 0 4.245-8.834c-.406.031-.828.04-1.265.023h-.002c-4.091-.163-6.53-2.668-8.284-4.468 0 0-3.006-3.26-5.572-3.573-3.31-.404-7.604 3.888-7.604 3.888Z"/><path fill="url(#d)" d="m10.352 5.427.002.002c2.14 2.062 3.311 3.044 4.99 3.114 1.967.084 3.341-.982 5.792-3.16 1.828-1.626 4.495-4 8.086-4.813A24.085 24.085 0 0 0 24 0 23.893 23.893 0 0 0 9.644 4.765c.243.22.48.441.708.662Z"/><path fill="url(#e)" d="M24.58 41.546c-2.151 1.916-5.093 4.537-9.467 4.353a9.033 9.033 0 0 1-1.255-.141A23.908 23.908 0 0 0 24 48a23.9 23.9 0 0 0 15.154-5.389 34.295 34.295 0 0 1-1.4-1.38s-3.005-3.26-5.571-3.573c-3.31-.404-7.604 3.888-7.604 3.888Z"/></g><defs><radialGradient id="b" cx="0" cy="0" r="1" gradientTransform="matrix(43.33132 40.0987 -33.90488 36.63817 4.385 6.055)" gradientUnits="userSpaceOnUse"><stop stop-color="#1F2348" stop-opacity=".1"/><stop offset="1" stop-color="#1F2348" stop-opacity=".4"/></radialGradient><radialGradient id="c" cx="0" cy="0" r="1" gradientTransform="matrix(43.33132 40.0987 -33.90488 36.63817 4.385 6.055)" gradientUnits="userSpaceOnUse"><stop stop-color="#1F2348" stop-opacity=".1"/><stop offset="1" stop-color="#1F2348" stop-opacity=".4"/></radialGradient><radialGradient id="d" cx="0" cy="0" r="1" gradientTransform="matrix(43.33132 40.0987 -33.90488 36.63817 4.385 6.055)" gradientUnits="userSpaceOnUse"><stop stop-color="#1F2348" stop-opacity=".1"/><stop offset="1" stop-color="#1F2348" stop-opacity=".4"/></radialGradient><radialGradient id="e" cx="0" cy="0" r="1" gradientTransform="matrix(43.33132 40.0987 -33.90488 36.63817 4.385 6.055)" gradientUnits="userSpaceOnUse"><stop stop-color="#1F2348" stop-opacity=".1"/><stop offset="1" stop-color="#1F2348" stop-opacity=".4"/></radialGradient><clipPath id="a"><path fill="#fff" d="M0 0h48v48H0z"/></clipPath></defs></svg>